<?xml version="1.0" ?>
  <svg height="24" id="svg958" version="1.1" viewBox="0 0 6.3499999 6.3500002" width="24" xmlns="http://www.w3.org/2000/svg" xmlns:cc="http://creativecommons.org/ns#" xmlns:dc="http://purl.org/dc/elements/1.1/" xmlns:inkscape="http://www.inkscape.org/namespaces/inkscape" xmlns:rdf="http://www.w3.org/1999/02/22-rdf-syntax-ns#" xmlns:sodipodi="http://sodipodi.sourceforge.net/DTD/sodipodi-0.dtd" xmlns:svg="http://www.w3.org/2000/svg">
    <defs id="defs952"/>
    <g id="layer1">
      <path fill="#231f20" d="m 3.1760336,0.52916667 c -0.7274929,0 -1.3244669,0.59490693 -1.3244669,1.32239993 -1e-7,0.7274931 0.596974,1.3244672 1.3244669,1.3244669 0.727493,3e-7 1.3218832,-0.5969738 1.3218832,-1.3244669 0,-0.727493 -0.5943902,-1.32239993 -1.3218832,-1.32239993 z m 0,0.52968343 c 0.4415099,-10e-8 0.7927165,0.3512065 0.7927165,0.7927165 0,0.44151 -0.3512063,0.7947835 -0.7927165,0.7947835 -0.4415099,0 -0.7953003,-0.3532735 -0.7953002,-0.7947835 0,-0.44151 0.3537903,-0.7927165 0.7953002,-0.7927165 z m -1.05885,2.3807333 c -1.3234335,0 -1.58801706,0.79375 -1.58801706,1.8520833 0,0.2645836 0.26458376,0.5291667 0.52916696,0.5291667 h 4.2333333 c 0.2645833,0 0.5291667,-0.2645831 0.5291667,-0.5291667 0,-1.0583333 -0.2645834,-1.8520833 -1.5885335,-1.8520833 z m 0,0.5291667 H 4.2323 c 0.7947835,0 1.0588501,0.523917 1.0588501,1.3223999 H 1.0588502 C 1.0583335,4.4979167 1.3229168,3.9687501 2.1171836,3.9687501 Z" id="path2966" style="color:#000000;font-style:normal;font-variant:normal;font-weight:normal;font-stretch:normal;font-size:medium;line-height:normal;font-family:sans-serif;font-variant-ligatures:normal;font-variant-position:normal;font-variant-caps:normal;font-variant-numeric:normal;font-variant-alternates:normal;font-variant-east-asian:normal;font-feature-settings:normal;font-variation-settings:normal;text-indent:0;text-align:start;text-decoration:none;text-decoration-line:none;text-decoration-style:solid;text-decoration-color:#000000;letter-spacing:normal;word-spacing:normal;text-transform:none;writing-mode:lr-tb;direction:ltr;text-orientation:mixed;dominant-baseline:auto;baseline-shift:baseline;text-anchor:start;white-space:normal;shape-padding:0;shape-margin:0;inline-size:0;clip-rule:nonzero;display:inline;overflow:visible;visibility:visible;opacity:1;isolation:auto;mix-blend-mode:normal;color-interpolation:sRGB;color-interpolation-filters:linearRGB;solid-color:#000000;solid-opacity:1;vector-effect:none;fill:#000000;fill-opacity:1;fill-rule:nonzero;stroke:none;stroke-width:0.529167;stroke-linecap:round;stroke-linejoin:round;stroke-miterlimit:4;stroke-dasharray:none;stroke-dashoffset:0;stroke-opacity:1;color-rendering:auto;image-rendering:auto;shape-rendering:auto;text-rendering:auto;enable-background:accumulate;stop-color:#000000;stop-opacity:1"/>
    </g>
  </svg>