<?xml version="1.0" encoding="UTF-8"?>
<svg width="130px" height="110.46514px" viewBox="0 0 130 110.46514" version="1.1" xmlns="http://www.w3.org/2000/svg" xmlns:xlink="http://www.w3.org/1999/xlink">
    <title>kuvitukset_image2</title>
    <g id="kuvitukset_image2" stroke="none" stroke-width="1" fill="none" fill-rule="evenodd">
        <path d="M2.08,64.6117832 L2.92,64.7253455 L2.79,64.3227156 C2.57232128,64.4628267 2.33171939,64.5607848 2.08,64.6117832 Z" id="Path"></path>
        <polygon id="Rectangle" fill="#000000" fill-rule="nonzero" transform="translate(23.581459, 56.743911) rotate(-18.072322) translate(-23.581459, -56.743911) " points="19.0271542 56.19948 28.1455715 56.1210655 28.1357644 57.2883413 19.0173471 57.3667558"></polygon>
        <polygon id="Rectangle" fill="#000000" fill-rule="nonzero" transform="translate(17.994122, 88.800258) rotate(-34.210000) translate(-17.994122, -88.800258) " points="17.4817096 84.1674084 18.6302473 84.1519359 18.5065342 93.4331068 17.3579966 93.4485793"></polygon>
        <polygon id="Path" fill="#000000" fill-rule="nonzero" points="25.9277344 100.141295 25 100.792531 30 108.400371 30 106.335602"></polygon>
        <polygon id="Rectangle" fill="#000000" fill-rule="nonzero" transform="translate(7.771215, 73.315064) rotate(-34.210000) translate(-7.771215, -73.315064) " points="7.25880295 68.6822146 8.40734064 68.6667421 8.28362763 77.947913 7.13508993 77.9633856"></polygon>
        <polygon id="Rectangle" fill="#000000" fill-rule="nonzero" transform="translate(58.064383, 45.619219) rotate(-17.800000) translate(-58.064383, -45.619219) " points="53.5071927 45.0738479 62.6312586 44.9964033 62.6215727 46.1645898 53.4975069 46.2420344"></polygon>
        <path d="M2,64.8501886 L2.05885682,65.0078765 L2.30333899,65.0402228 L10,62.8285479 L9.68307866,61.9430693 L2.50254669,64.0010995 L2.50254669,64.0496189 C2.50718257,64.3774853 2.31561501,64.6826573 2,64.8501886 Z" id="Path" fill="#000000" fill-rule="nonzero"></path>
        <polygon id="Rectangle" fill="#000000" fill-rule="nonzero" transform="translate(77.001580, 90.822569) rotate(-21.280000) translate(-77.001580, -90.822569) " points="72.4400831 90.2841036 81.5743306 90.1941216 81.5630767 91.3610347 72.4288292 91.4510168"></polygon>
        <polygon id="Rectangle" fill="#000000" fill-rule="nonzero" transform="translate(93.954421, 84.031955) rotate(-21.280000) translate(-93.954421, -84.031955) " points="89.3929244 83.4934899 98.5271718 83.4035079 98.5159179 84.570421 89.3816705 84.660403"></polygon>
        <polygon id="Path" fill="#000000" fill-rule="nonzero" points="95.8506589 70.2021452 95 70.9748715 101.513177 77.4288366 102 76.9865845 102 76.3013367"></polygon>
        <polygon id="Rectangle" fill="#000000" fill-rule="nonzero" transform="translate(86.123980, 60.931496) rotate(-43.730000) translate(-86.123980, -60.931496) " points="85.6134738 56.3207396 86.7673939 56.3041171 86.6344862 65.5422524 85.4805662 65.5588749"></polygon>
        <polygon id="Rectangle" fill="#000000" fill-rule="nonzero" transform="translate(43.091624, 104.412586) rotate(-21.280000) translate(-43.091624, -104.412586) " points="38.5301274 103.87412 47.6643749 103.784138 47.653121 104.951051 38.5188736 105.041033"></polygon>
        <polygon id="Rectangle" fill="#000000" fill-rule="nonzero" transform="translate(73.543712, 47.388654) rotate(-43.740000) translate(-73.543712, -47.388654) " points="73.0332037 42.7779211 74.1871296 42.7612983 74.0542199 51.9993872 72.9002941 52.01601"></polygon>
        <polygon id="Rectangle" fill="#000000" fill-rule="nonzero" transform="translate(60.049076, 97.620124) rotate(-21.280000) translate(-60.049076, -97.620124) " points="55.4875792 97.0816582 64.6218267 96.9916761 64.6105728 98.1585892 55.4763254 98.2485713"></polygon>
        <path d="M30,109.734651 C30.3806725,110.320503 31.1261712,110.594867 31.8243628,110.406066 C32.5225544,110.217266 33.0029555,109.611403 33,108.923415 L33,107.367987 L31.3089563,110.391685 L30,109.734651 Z" id="Path" fill="#000000" fill-rule="nonzero"></path>
        <path d="M32.3066355,69.7391843 L30.2156249,69.4411227 L30.3760862,68.2694326 L32.3066355,68.5469382 L32.3066355,65.8438286 L63.2305262,54.5688809 C63.683023,54.4068186 63.9896918,53.9737532 64,53.4826204 C64.0097993,52.9914876 63.7211225,52.5456221 63.275656,52.3642535 L61.3701787,51.5779878 L59.1889086,55.7970999 L58.1860258,55.2420888 L59.0334618,53.6027505 L32.3066355,63.3411397 L32.3066355,42.168494 L59.2089663,53.2327431 L60.2970941,51.1360345 L31.5845599,39.3163537 C31.2285441,39.1692557 30.8244494,39.2133276 30.5066142,39.4339179 C30.1887789,39.6545082 29.998864,40.0227027 30,40.4160979 L30,108.918857 C30.0012316,109.097336 30.0424034,109.273147 30.120351,109.432756 L32.3066355,105.208505 L32.3066355,69.7391843 Z" id="Path" fill="#000000" fill-rule="nonzero"></path>
        <path d="M129.257991,33.35517 L102.627397,22.794842 C102.262576,22.6523649 101.850024,22.6965542 101.52468,22.9129563 C101.199335,23.1293584 101.003041,23.4901418 101,23.877301 L101,79.3571376 C101,80.002677 101.530318,80.5259901 102.184498,80.5259901 C102.838677,80.5259901 103.368995,80.002677 103.368995,79.3571376 L103.368995,44.6218914 L129.211641,35.5404159 C129.674784,35.3766193 129.98797,34.9483943 129.99959,34.4630388 C130.012576,33.9767439 129.716358,33.5342246 129.257991,33.35517 L129.257991,33.35517 Z M103.368995,42.1418914 L103.368995,25.6051699 L125.477899,34.3715634 L103.368995,42.1418914 Z" id="Shape" fill="#000000" fill-rule="nonzero"></path>
        <path d="M1.36614486,66.0675037 C1.49211012,66.0422927 1.61251196,65.9938672 1.72144261,65.9246035 C2.08113726,65.716552 2.30156229,65.3255907 2.29692488,64.9038877 L2.29692488,36.7933765 L22.2436407,29.4391196 C22.6903526,29.2727536 22.9907392,28.8433237 22.9998074,28.3583985 C23.0084728,27.8734733 22.7239938,27.4329202 22.2836742,27.2496843 L1.58132519,18.6705686 C1.22934926,18.5231244 0.828566397,18.5634759 0.511654118,18.7782648 C0.194741838,18.9930538 0.0030359881,19.3542647 0,19.7423201 L0,64.8987842 C0,65.5470688 0.515304375,66.0726073 1.15096454,66.0726073 L1.23103163,66.0726073 L1.23103163,66.0419858 L1.36614486,66.0675037 Z M2.29692488,21.5030548 L18.6406213,28.2857108 L2.29692488,34.2977265 L2.29692488,21.5030548 Z" id="Shape" fill="#000000" fill-rule="nonzero"></path>
        <path d="M66.1359213,43.3601485 C66.7632732,43.3601485 67.2718425,42.8278597 67.2718425,42.1712482 L67.2718425,16.7701341 L85.2490311,10.1071231 C85.6922457,9.94319862 85.9915363,9.50835892 85.999866,9.01643623 C86.007081,8.52181962 85.7222833,8.07367087 85.2836027,7.88956548 L66.5557182,0.0841763235 C66.2064259,-0.0612264055 65.8110259,-0.016352608 65.4996293,0.204031478 C65.1882326,0.424415564 65.0011713,0.791765816 65,1.18520142 L65,42.1712482 C65,42.4865642 65.1196771,42.7889656 65.3327036,43.0119277 C65.5457302,43.2348897 65.8346562,43.3601485 66.1359213,43.3601485 Z M67.2718425,2.93753713 L81.6338383,8.92339186 L67.2718425,14.221752 L67.2718425,2.93753713 Z M65.6173485,41.106407 L66.6051061,41.6646733 L66.0272679,42.8070514 L65.0395103,42.2487852 L65.6173485,41.106407 Z" id="Shape" fill="#000000" fill-rule="nonzero"></path>
        <polygon id="Rectangle" fill="#000000" fill-rule="nonzero" transform="translate(64.060562, 74.244043) rotate(-82.000000) translate(-64.060562, -74.244043) " points="63.4924247 69.9788247 64.6630764 69.9742385 64.6286992 78.5092616 63.4580475 78.5138479"></polygon>
        <polygon id="Rectangle" fill="#000000" fill-rule="nonzero" transform="translate(78.704514, 76.366040) rotate(-82.000000) translate(-78.704514, -76.366040) " points="78.1363768 72.1008218 79.3070285 72.0962355 79.2726513 80.6312587 78.1019996 80.635845"></polygon>
        <polygon id="Rectangle" fill="#000000" fill-rule="nonzero" transform="translate(49.425769, 72.127798) rotate(-82.000000) translate(-49.425769, -72.127798) " points="48.8576316 67.8625794 50.0282833 67.8579932 49.9939061 76.3930163 48.8232544 76.3976026"></polygon>
        <polygon id="Rectangle" fill="#000000" fill-rule="nonzero" transform="translate(20.136487, 67.898982) rotate(-82.000000) translate(-20.136487, -67.898982) " points="19.5683501 63.6337639 20.7390018 63.6291777 20.7046246 72.1642008 19.5339729 72.1687871"></polygon>
        <polygon id="Path" fill="#000000" fill-rule="nonzero" points="8.85278896 68.1373762 9 66.6319076 1.90166763 65.1927592 1.65324899 65.1397031 1.26682001 65.0667509 1.14721104 65.0402228 1.1426107 65.0800149 1 66.5523234"></polygon>
        <polygon id="Rectangle" fill="#000000" fill-rule="nonzero" transform="translate(93.344255, 78.477193) rotate(-82.000000) translate(-93.344255, -78.477193) " points="92.7761178 74.2119745 93.9467695 74.2073882 93.9123923 82.7424114 92.7417406 82.7469977"></polygon>
        <polygon id="Path" fill="#000000" fill-rule="nonzero" points="30 70.6786304 31.9183439 71.0624656 37.852789 72.2669142 38 70.7580446 31.9183439 69.5271246 30.147211 69.1697607"></polygon>
        <polygon id="Rectangle" fill="#000000" fill-rule="nonzero" transform="translate(39.779059, 92.625299) rotate(-62.060000) translate(-39.779059, -92.625299) " points="35.4235117 92.1042623 44.1483808 92.0010119 44.1346061 93.1463361 35.409737 93.2495865"></polygon>
        <polygon id="Rectangle" fill="#000000" fill-rule="nonzero" transform="translate(46.709528, 79.192173) rotate(-62.060000) translate(-46.709528, -79.192173) " points="42.3539813 78.6711362 51.0788503 78.5678858 51.0650756 79.7132101 42.3402066 79.8164605"></polygon>
        <polygon id="Rectangle" fill="#000000" fill-rule="nonzero" transform="translate(53.634473, 65.741063) rotate(-62.060000) translate(-53.634473, -65.741063) " points="49.2789262 65.2200259 58.0037952 65.1167755 57.9900205 66.2620998 49.2651515 66.3653501"></polygon>
        <polygon id="Path" fill="#000000" fill-rule="nonzero" points="33.9950495 101.17368 32.1881188 104.664786 30.029703 108.829793 30 108.890596 30.0891089 108.936198 31.0049505 109.432756 32.1881188 107.147576 35 101.720907"></polygon>
        <polygon id="Path" fill="#000000" fill-rule="nonzero" points="59.0237389 54.2543051 58.8358061 54.6188995 58 56.2342553 59.0039565 56.7811469 61.1552918 52.6237579 63 49.0689626 61.9960435 48.522071 60.0919881 52.1882702"></polygon>
        <polygon id="Rectangle" fill="#000000" fill-rule="nonzero" transform="translate(65.778833, 42.172631) rotate(-62.030000) translate(-65.778833, -42.172631) " points="65.1531293 41.6074531 66.4183209 41.5924699 66.4045364 42.7378086 65.1393449 42.7527918"></polygon>
    </g>
</svg>