<?xml version="1.0" encoding="UTF-8"?>
<svg width="125.84px" height="110px" viewBox="0 0 125.84 110" version="1.1" xmlns="http://www.w3.org/2000/svg" xmlns:xlink="http://www.w3.org/1999/xlink">
    <title>kuvitukset_image1</title>
    <g id="kuvitukset_image1" stroke="none" stroke-width="1" fill="none" fill-rule="evenodd">
        <path d="M80.0773819,31.68 C76.1951742,31.6858637 73.0486485,34.8872649 73.04,38.840114 L73.04,46.64 L87.12,46.64 L87.12,38.840114 C87.1113437,34.8851866 83.961634,31.6829285 80.0773819,31.68 L80.0773819,31.68 Z" id="Path"></path>
        <rect id="Rectangle" x="66" y="47.52" width="1.76" height="20.24"></rect>
        <rect id="Rectangle" x="62.48" y="47.52" width="1.76" height="20.24"></rect>
        <circle id="Oval" cx="79.64" cy="26.84" r="3.96"></circle>
        <rect id="Rectangle" x="93.28" y="47.52" width="1.76" height="11.44"></rect>
        <path d="M95.04,21.7544669 L95.04,11.44 L66,11.44 L66,46.64 L72.0532336,46.64 L72.0532336,39.0456039 C72.059249,35.5546826 74.2656168,32.449625 77.5528808,31.3058605 C75.5792378,30.1063314 74.6435453,27.7346566 75.2641851,25.5047649 C75.8848249,23.2748733 77.9098336,21.7327535 80.2173383,21.7327535 C82.5248431,21.7327535 84.5498517,23.2748733 85.1704915,25.5047649 C85.7911314,27.7346566 84.8554388,30.1063314 82.8817958,31.3058605 C86.170119,32.449178 88.3782738,35.5538297 88.3866168,39.0456039 L88.3866168,46.64 L95.04,46.64 L95.04,21.7544669 Z" id="Path"></path>
        <path d="M64.24,21.7544669 L64.24,11.44 L49.28,11.44 L49.28,21.7544669 C51.6059079,21.7545189 53.6471948,23.2943093 54.2734721,25.5211596 C54.8997495,27.7480099 53.957761,30.1169882 51.9691449,31.3162424 C55.2832531,32.4587495 57.5092432,35.5584991 57.5197487,39.0456039 L57.5197487,46.64 L64.24,46.64 L64.24,21.7544669 Z" id="Path"></path>
        <rect id="Rectangle" x="14.08" y="76.56" width="21.12" height="31.68"></rect>
        <polygon id="Path" points="87.1516168 101.2 91.52 101.2 90.6189222 96.8 86.24 96.8"></polygon>
        <path d="M43.3735963,6.16018238 L6.77074355,6.16018238 C6.43462118,6.16321131 6.16283663,6.43421273 6.16,6.76936657 L6.16,70.6710163 C6.16283663,71.0061701 6.43462118,71.2771715 6.77074355,71.28 L43.3892564,71.28 C43.7265608,71.28 44,71.0073487 44,70.6710163 L44,6.76936657 C44,6.60511182 43.9335629,6.44780019 43.8156166,6.33313392 C43.6976703,6.21846765 43.5382716,6.15617119 43.3735963,6.16018238 Z M36.6345372,33.7103895 L13.9691654,65.5441021 L12.9721396,64.8258137 L33.6382397,35.8184101 L11.6775721,41.986322 L36.2117147,13.6763869 L37.1356601,14.4727503 L15.2585129,39.7169468 L36.6345372,33.7103895 Z" id="Shape"></path>
        <path d="M49.28,31.68 L49.28,46.64 L56.32,46.64 L56.32,38.840114 C56.3084775,34.886403 53.1616182,31.685853 49.28,31.68 L49.28,31.68 Z" id="Path"></path>
        <path d="M47.2172477,1.76 L2.06797226,1.76 C1.89793295,1.76 1.76004301,1.89750722 1.76004301,2.06713098 L1.76004301,74.4927804 C1.75866096,74.5746649 1.79063985,74.6536153 1.84869161,74.7115251 C1.90674337,74.769435 1.98588709,74.8013358 2.06797226,74.7999571 L47.2172477,74.7999571 C47.2984318,74.7999571 47.3762173,74.7673999 47.4331305,74.709647 C47.4900436,74.6518941 47.5213124,74.5737541 47.5199577,74.4927804 L47.5199577,2.06713098 C47.5199577,1.89951952 47.3852456,1.76284087 47.2172477,1.76 L47.2172477,1.76 Z M44.7750538,70.2345916 C44.7750538,71.2437092 43.9549983,72.0617606 42.9434085,72.0617606 L6.35224816,72.0617606 C5.34184804,72.0589012 4.5234692,71.2425224 4.5206028,70.2345916 L4.5206028,6.32531981 C4.534869,5.32638139 5.35076086,4.52417881 6.35224816,4.52417881 L42.9590636,4.52417881 C43.968619,4.52417881 44.7878327,5.33905816 44.7907089,6.34614225 L44.7750538,70.2345916 Z" id="Shape"></path>
        <path d="M53.68,26.84 C53.6774485,24.6541425 52.1029845,22.8828705 50.16,22.88 L50.16,30.8 C52.1029845,30.7971295 53.6774485,29.0258575 53.68,26.84 L53.68,26.84 Z" id="Path"></path>
        <path d="M124.96,21.7544669 L124.96,11.44 L95.92,11.44 L95.92,46.64 L101.965906,46.64 L101.965906,39.0456039 C101.971919,35.5546826 104.177501,32.449625 107.463594,31.3058605 C105.491837,30.1054588 104.557785,27.7340427 105.178706,25.5048766 C105.799627,23.2757106 107.823567,21.7343267 110.129688,21.7343267 C112.43581,21.7343267 114.459749,23.2757106 115.08067,25.5048766 C115.701592,27.7340427 114.76754,30.1054588 112.795783,31.3058605 C116.080894,32.4509417 118.285897,35.5551854 118.293471,39.0456039 L118.293471,46.64 L124.96,46.64 L124.96,21.7544669 Z" id="Path"></path>
        <rect id="Rectangle" x="95.92" y="47.52" width="1.76" height="11.44"></rect>
        <path d="M77.9066078,61.6 L69.52,108.24 L73.153169,108.24 L75.4348196,95.5124622 L98.6624345,95.5124622 L96.3807838,108.24 L100.733392,108.24 L109.12,61.6 L77.9066078,61.6 Z M97.1310563,77.17776 C97.6185546,77.4043372 98.0476425,77.7412829 98.3849364,78.1623822 C98.7590116,78.6377145 99.0461332,79.1764432 99.2328471,79.7533244 C99.4556766,80.4515795 99.5683914,81.1807906 99.5668726,81.9143111 C99.5917498,82.6508339 99.5033411,83.3867983 99.3047911,84.0960267 C99.1404811,84.6859559 98.8743263,85.2420546 98.5185466,85.7387911 C98.19808,86.1771386 97.7788746,86.5323851 97.2954996,86.7752356 C96.8169852,87.0183513 96.2896267,87.1477582 95.7538438,87.1535378 C95.2123787,87.1671892 94.6748466,87.0573583 94.1813548,86.83224 C93.6918714,86.6018535 93.2625085,86.2593682 92.9274747,85.8320711 C92.5565264,85.3494454 92.2745518,84.8035554 92.0949805,84.2204 C91.689794,82.8050443 91.6631997,81.3067701 92.0178977,79.8776978 C92.1760417,79.2943555 92.4409633,78.7459796 92.7990034,78.2608444 C93.1183029,77.8233996 93.5356184,77.4682625 94.0169115,77.2244 C94.9985983,76.7396279 96.142901,76.7187503 97.141334,77.1673956 L97.1310563,77.17776 Z M94.7723229,70.8969067 L86.8276564,87.4022844 L84.8440592,87.4333778 L92.7835868,70.9331822 L94.7723229,70.8969067 Z M80.1265923,73.5294756 C80.2819088,72.9460314 80.5451858,72.3974508 80.902559,71.9126222 C81.2258092,71.4789239 81.6421722,71.1245974 82.1204672,70.8761778 C82.6004401,70.63773 83.1271159,70.5102611 83.662123,70.5030578 C84.1933253,70.4930176 84.720041,70.6027908 85.2037789,70.8243556 C85.6922585,71.0493036 86.1216909,71.3865198 86.457659,71.8089778 C86.8336104,72.2830625 87.1209227,72.8221492 87.3055697,73.39992 C87.5283992,74.098175 87.6411139,74.8273862 87.6395951,75.5609067 C87.6641419,76.297415 87.5757393,77.0333283 87.3775136,77.7426222 C87.2111327,78.3317591 86.9451453,78.8875081 86.5912691,79.3853867 C86.2680106,79.8210829 85.8494881,80.1757506 85.3682222,80.4218311 C84.8882492,80.6602789 84.3615735,80.7877478 83.8265663,80.7949511 C83.2865265,80.8112973 82.7500673,80.7013263 82.2592162,80.4736533 C81.7676015,80.2467659 81.3361819,79.9058205 81.0001972,79.4786667 C80.6282297,78.9947862 80.3461853,78.4470052 80.1677031,77.8618133 C79.9563727,77.1575938 79.8473242,76.4262144 79.8439554,75.6904622 C79.8292422,74.9598636 79.9245391,74.2312426 80.1265923,73.5294756 L80.1265923,73.5294756 Z" id="Shape"></path>
        <rect id="Rectangle" x="123.2" y="47.52" width="1.76" height="20.24"></rect>
        <path d="M109.997382,31.68 C106.115174,31.6858637 102.968649,34.8872649 102.96,38.840114 L102.96,46.64 L117.04,46.64 L117.04,38.840114 C117.031344,34.8851866 113.881634,31.6829285 109.997382,31.68 L109.997382,31.68 Z" id="Path"></path>
        <path d="M83.2264511,79.2 C83.6121329,79.1622981 83.9533566,78.8930453 84.127505,78.4889967 C84.3798,78.0255278 84.4924318,77.2197241 84.478916,76.0663187 C84.4654002,74.9129133 84.3212315,74.1229096 84.0599259,73.6857742 C83.873883,73.2814956 83.5103716,73.0324154 83.1177308,73.0401762 C82.7250899,73.0479371 82.3689895,73.3112411 82.1947444,73.7226411 C81.9469546,74.1755765 81.8298176,74.9708469 81.8478386,76.1242523 C81.8034687,76.9540097 81.9480417,77.7826885 82.2668287,78.5258635 C82.4582509,78.9376131 82.8255909,79.1956701 83.2264511,79.2 Z" id="Path"></path>
        <circle id="Oval" cx="110.44" cy="26.84" r="3.96"></circle>
        <polygon id="Path" points="112.347142 90.2155408 114.696068 101.2 118.8 101.2 110.592136 63.36 105.6 90.2155408"></polygon>
        <path d="M95.5485867,84.48 C95.9336114,84.4422981 96.2742538,84.1730453 96.4481055,83.7689967 C96.6999708,83.3055278 96.8124106,82.4997241 96.7989178,81.3463187 C96.785425,80.1929133 96.641502,79.4029096 96.376144,78.9657742 C96.190418,78.5614956 95.8275259,78.3124154 95.435554,78.3201762 C95.043582,78.3279371 94.6880883,78.5912411 94.51414,79.0026411 C94.2667723,79.4555765 94.1498349,80.2508469 94.1678253,81.4042523 C94.1235309,82.2340097 94.2678577,83.0626885 94.5861015,83.8058635 C94.7786964,84.2184448 95.1470629,84.4764532 95.5485867,84.48 L95.5485867,84.48 Z" id="Path"></path>
        <path d="M49.1233468,10.0245665 L49.1233468,2.12547834 C49.1233468,0.951609066 48.1735793,0 47.0019817,0 L2.12655181,0 C0.954112234,0 0.00285960871,0.950768945 0,2.12547834 L0,74.4281192 C0.00285123761,75.6036733 0.953272726,76.5559376 2.12655181,76.5587943 L12.1317187,76.5587943 L12.1317187,109.974016 L36.9864413,109.974016 L36.9864413,76.5587943 L46.9916083,76.5587943 C48.1640444,76.5559292 49.1129769,75.6028321 49.1129734,74.4281192 L49.1129734,47.7115321 L60.9386761,47.7115321 L60.9386761,68.976709 L68.2000725,68.976709 L68.2000725,47.7115321 L91.2446328,47.7115321 L91.2446328,59.5601644 L75.5963235,59.5601644 L75.6274437,59.7108707 L66.5506982,109.974016 L73.9158289,109.974016 L76.2187289,97.2159494 L83.5734861,97.2159494 L84.8338571,103.316956 L92.8473267,103.316956 L91.581769,97.2419332 L95.9437936,97.2419332 L93.6460803,110 L101.732164,110 L104.921992,92.3829546 L110.305798,92.3829546 L112.587952,103.296169 L120.290218,103.296169 L111.047498,59.5497709 L98.5475229,59.5497709 L98.5475229,47.7115321 L121.592083,47.7115321 L121.592083,68.976709 L125.84,68.976709 L125.84,10.0245665 L49.1233468,10.0245665 Z M35.176279,108.155147 L13.9522546,108.155147 L13.9522546,76.5587943 L35.176279,76.5587943 L35.176279,108.155147 Z M47.3028558,74.4281192 C47.3042022,74.5089554 47.273123,74.5869627 47.2165551,74.6446175 C47.1599872,74.7022724 47.0826734,74.7347742 47.0019817,74.7347742 L2.12655181,74.7347742 C2.04496452,74.7361506 1.96630083,74.704304 1.90860117,74.6464925 C1.85090151,74.5886809 1.81911658,74.5098647 1.82049025,74.4281192 L1.82049025,2.12547834 C1.82049025,1.95614267 1.95754384,1.81886899 2.12655181,1.81886899 L47.0019817,1.81886899 C47.1689607,1.82170504 47.3028558,1.95815155 47.3028558,2.12547834 L47.3028558,74.4281192 Z M49.1233468,22.767043 C51.3003985,22.767043 53.0652476,24.5353142 53.0652476,26.7165871 C53.0652476,28.8978601 51.3003985,30.6661312 49.1233468,30.6661312 L49.1233468,22.767043 Z M56.0994741,46.4643076 L49.1233468,46.4643076 L49.1233468,31.8977654 C52.9697477,31.9034706 56.0880562,35.0231794 56.0994741,38.8770256 L56.0994741,46.4643076 Z M57.3079779,46.4643076 L57.3079779,38.8770256 C57.3019474,35.3822079 55.0900322,32.2736847 51.7945033,31.1286436 C53.7698172,29.9280508 54.7055044,27.5564286 54.0834165,25.3270928 C53.4613285,23.097757 51.4336962,21.556248 49.1233468,21.556196 L49.1233468,11.2406104 L63.9832759,11.2406104 L63.9832759,46.479898 L57.3079779,46.4643076 Z M63.9832759,67.7294846 L62.1627401,67.7294846 L62.1627401,47.7115321 L63.9832759,47.7115321 L63.9832759,67.7294846 Z M67.0123156,67.7294846 L65.1917797,67.7294846 L65.1917797,47.7115321 L67.0123156,47.7115321 L67.0123156,67.7294846 Z M86.4209908,46.4643076 L72.473923,46.4643076 L72.473923,38.8770256 C72.4047339,36.3353574 73.718542,33.9565215 75.904625,32.6652532 C78.090708,31.3739849 80.8042059,31.3739849 82.9902888,32.6652532 C85.1763718,33.9565215 86.4901799,36.3353574 86.4209908,38.8770256 L86.4209908,46.4643076 Z M87.6346814,46.4643076 L87.6346814,38.8770256 C87.6211471,35.3838181 85.4058843,32.2806049 82.1108334,31.1390372 C84.0894386,29.9381692 85.0274836,27.5638474 84.4052834,25.3314669 C83.7830831,23.0990864 81.7529832,21.5552454 79.4396769,21.5552454 C77.1263705,21.5552454 75.0962706,23.0990864 74.4740703,25.3314669 C73.8518701,27.5638474 74.7899152,29.9381692 76.7685203,31.1390372 C73.4786277,32.2845837 71.2698981,35.3873852 71.2602325,38.8770256 L71.2602325,46.479898 L65.1917797,46.479898 L65.1917797,11.2406104 L94.3047927,11.2406104 L94.3047927,46.479898 L87.6346814,46.4643076 Z M79.4448636,30.6661312 C77.2678118,30.6661312 75.5029627,28.8978601 75.5029627,26.7165871 C75.5029627,24.5353142 77.2678118,22.767043 79.4448636,22.767043 C81.6219153,22.767043 83.3867781,24.5353142 83.3867781,26.7165871 C83.389519,27.7663494 82.9755945,28.7741371 82.2361952,29.5178944 C81.4967959,30.2616517 80.492597,30.6803457 79.4448636,30.6817215 L79.4448636,30.6661312 Z M92.4842569,47.7115321 L94.3047927,47.7115321 L94.3047927,59.5601644 L92.4842569,59.5601644 L92.4842569,47.7115321 Z M90.6118539,101.487693 L86.3120699,101.487693 L85.4095821,97.2315397 L89.7249262,97.2315397 L90.6118539,101.487693 Z M118.044372,101.487693 L114.066164,101.487693 L111.789198,90.5744791 L105.248754,90.5744791 L110.087956,63.8215146 L118.044372,101.487693 Z M108.677171,61.3842302 L100.212457,108.155147 L95.8193125,108.155147 L98.1222125,95.3918836 L74.6782755,95.3918836 L72.3753755,108.155147 L68.7083703,108.155147 L77.1730838,61.3842302 L108.677171,61.3842302 Z M97.3338323,59.5601644 L95.5184832,59.5601644 L95.5184832,47.7115321 L97.3338323,47.7115321 L97.3338323,59.5601644 Z M116.742508,46.4954883 L102.79544,46.4954883 L102.79544,38.8770256 C102.726251,36.3353574 104.040059,33.9565215 106.226142,32.6652532 C108.412225,31.3739849 111.125723,31.3739849 113.311806,32.6652532 C115.497889,33.9565215 116.811697,36.3353574 116.742508,38.8770256 L116.742508,46.4954883 Z M117.956198,46.4954883 L117.956198,38.8770256 C117.948603,35.3827113 115.737267,32.2750029 112.442724,31.1286436 C114.423362,29.9265992 115.362399,27.5498793 114.739591,25.3152267 C114.116783,23.0805741 112.084628,21.5351532 109.768974,21.5351532 C107.45332,21.5351532 105.421165,23.0805741 104.798357,25.3152267 C104.175549,27.5498793 105.114585,29.9265992 107.095224,31.1286436 C103.799695,32.2736847 101.58778,35.3822079 101.581749,38.8770256 L101.581749,46.479898 L95.5184832,46.479898 L95.5184832,11.2406104 L124.64187,11.2406104 L124.64187,46.479898 L117.956198,46.4954883 Z M109.76638,30.6973119 C107.589329,30.6973119 105.824479,28.9290407 105.824479,26.7477678 C105.824479,24.5664948 107.589329,22.7982237 109.76638,22.7982237 C111.943432,22.7982237 113.708281,24.5664948 113.708281,26.7477678 C113.696878,28.9217629 111.936197,30.6788948 109.76638,30.6817215 L109.76638,30.6973119 Z M124.64187,67.7450749 L122.821334,67.7450749 L122.821334,47.7115321 L124.64187,47.7115321 L124.64187,67.7450749 Z" id="Shape" fill="#000000" fill-rule="nonzero"></path>
        <path d="M80.3422766,79.6080874 C80.6850544,80.0462742 81.1251968,80.3960259 81.6267512,80.6287736 C82.1275266,80.8623271 82.6748323,80.9751386 83.225791,80.9583701 C83.7716153,80.9509808 84.3089397,80.8202195 84.798617,80.5756128 C85.2896135,80.3231764 85.716598,79.9593479 86.0463923,79.5123981 C86.4074234,79.0016598 86.6787886,78.4315564 86.8485336,77.8272028 C87.0507671,77.0995885 87.1409571,76.3446674 87.115914,75.5891358 C87.1174635,74.8366692 87.0024698,74.0886233 86.7751351,73.3723331 C86.5899399,72.7804034 86.3003973,72.2274421 85.9205663,71.7402985 C85.5778054,71.3069288 85.1396905,70.9610027 84.6413344,70.7302445 C84.147816,70.502957 83.6104509,70.3903484 83.0685084,70.4006479 C82.5226841,70.4080373 81.9853597,70.5387986 81.4956824,70.7834052 C81.007717,71.0382413 80.5829357,71.4017197 80.2531498,71.8466199 C79.888551,72.3439711 79.6199509,72.9067211 79.4614941,73.5052349 C79.264921,74.2301998 79.1782977,74.9812763 79.2045991,75.7326698 C79.2080361,76.4874256 79.3192894,77.2376958 79.5348926,77.9601046 C79.7053508,78.5536978 79.9787513,79.1117463 80.3422766,79.6080874 L80.3422766,79.6080874 Z M82.0199577,73.5690278 C82.2227257,73.1537704 82.6371175,72.8879976 83.0940311,72.8801639 C83.5509448,72.8723303 83.9739607,73.123746 84.1904576,73.5318153 C84.4945373,73.9730494 84.6570627,74.7757765 84.6780337,75.9346806 C84.6990047,77.0935846 84.5626931,77.91226 84.2690989,78.3800744 C84.0796564,78.8096335 83.6621425,79.0891948 83.1981459,79.0971691 C82.7341493,79.1051435 82.3075319,78.8400896 82.1038418,78.417287 C81.7346793,77.6666421 81.5682546,76.8302184 81.6215085,75.9931574 C81.6215085,74.8289373 81.7316063,74.0262101 82.0199577,73.5690278 Z" id="Shape" fill="#212121" fill-rule="nonzero"></path>
        <polygon id="Path" fill="#212121" fill-rule="nonzero" points="86.4139959 87.0885616 94.16 70.4 92.2209938 70.4366782 84.48 87.12"></polygon>
        <path d="M92.5645659,78.0008275 C92.2010557,78.4982547 91.9320865,79.0605249 91.7715264,79.6586476 C91.4114092,81.1239288 91.4384098,82.6601652 91.8497868,84.1113823 C92.0321016,84.7093133 92.3183843,85.2690347 92.695,85.7638889 C93.0351525,86.2020126 93.4710753,86.5531755 93.9680371,86.7893994 C94.4690686,87.0202216 95.0148132,87.1328353 95.5645509,87.118838 C96.1085196,87.112912 96.6439352,86.9802263 97.1297605,86.7309506 C97.6205206,86.481947 98.0461307,86.1176995 98.3714934,85.6682454 C98.7327089,85.1589229 99.0029299,84.5887342 99.1697503,83.9838577 C99.3713339,83.2566593 99.4610933,82.5020476 99.4358359,81.7468633 C99.4373779,80.9947573 99.3229411,80.2470699 99.0967072,79.531123 C98.9071407,78.9396251 98.6156324,78.3872464 98.2358419,77.8998705 C97.8933948,77.4681017 97.4577512,77.1226187 96.9628048,76.8903006 C95.9491175,76.4302879 94.787332,76.4516944 93.7906467,76.9487494 C93.3069067,77.1971457 92.8870032,77.5574574 92.5645659,78.0008275 Z M94.3176006,79.1113544 C94.5193867,78.696296 94.9317717,78.4306506 95.3864728,78.4228207 C95.8411738,78.4149908 96.2621412,78.666286 96.4775898,79.0741597 C96.7854144,79.5151824 96.9471527,80.3175248 96.9680222,81.4758735 C96.9888916,82.6342221 96.8532401,83.4525051 96.5610677,83.9200954 C96.3706775,84.3488473 95.9546151,84.6273677 95.4926387,84.6353229 C95.0306622,84.643278 94.6055922,84.3792418 94.4010785,83.9572901 C94.0319045,83.2075063 93.8644805,82.3714583 93.9158635,81.5343222 C93.9002114,80.3706601 94.0306455,79.5683176 94.3176006,79.1113544 Z" id="Shape" fill="#212121" fill-rule="nonzero"></path>
        <path d="M43.0230711,5.28006798 L6.24119217,5.28006798 C5.22637482,5.28006798 4.40289122,6.08708066 4.4,7.08435719 L4.4,70.350625 C4.40288134,71.34874 5.2255257,72.1571685 6.24119217,72.16 L43.0388078,72.16 C44.0556702,72.16 44.88,71.3499152 44.88,70.350625 L44.88,7.06373753 C44.8656096,6.06847425 44.0359001,5.27152921 43.0230711,5.28006798 Z M43.6368019,70.3712446 C43.6368019,70.7043414 43.3620253,70.9743696 43.0230711,70.9743696 L6.24119217,70.9743696 C5.90342582,70.9715684 5.63031195,70.7031741 5.62746145,70.3712446 L5.62746145,7.06373753 C5.63031195,6.73180802 5.90342582,6.46341376 6.24119217,6.46061252 L43.0388078,6.46061252 C43.3777619,6.46061252 43.6525386,6.73064078 43.6525386,7.06373753 L43.6368019,70.3712446 Z" id="Shape" fill="#000000" fill-rule="nonzero"></path>
        <polygon id="Path" fill="#000000" fill-rule="nonzero" points="36.0334277 13.2 11.44 41.5384727 33.4631056 35.3643432 12.7382482 64.4166182 13.7328738 65.12 36.4679221 33.2541977 15.0311221 39.2668098 36.96 13.9971661"></polygon>
    </g>
</svg>