<?xml version="1.0" encoding="UTF-8"?>
<svg width="134.64px" height="110px" viewBox="0 0 134.64 110" version="1.1" xmlns="http://www.w3.org/2000/svg" xmlns:xlink="http://www.w3.org/1999/xlink">
    <title>kuvitukset_image11</title>
    <g id="kuvitukset_image11" stroke="none" stroke-width="1" fill="none" fill-rule="evenodd">
        <path d="M15.84,66.7172673 C15.438093,65.1059375 14.1559124,63.8536697 12.5212778,63.4759697 C10.8866433,63.0982698 9.17586147,63.6589813 8.09318919,64.9272831 C7.01051692,66.1955849 6.73896121,67.9570924 7.3903101,69.4866672 L7.71686816,70.2937783 L6.9514977,70.7175116 C5.36739191,71.6132064 4.39287346,73.2818778 4.40026282,75.0860002 C4.38666505,76.3979985 4.90119123,77.6615242 5.83049869,78.5982409 C6.75980615,79.5349577 8.02765662,80.0680193 9.35476095,80.08 C10.2265965,80.0771485 11.0815163,79.8418873 11.8294588,79.399 C11.7023258,78.9972909 11.6369649,78.5789772 11.6355649,78.1580668 C11.636315,77.8958786 11.6602172,77.6342556 11.7069995,77.3761779 C11.170002,76.5575951 10.8846453,75.6026207 10.8855019,74.6269558 C10.854561,72.9571465 11.7051748,71.3918502 13.1305886,70.495556 C13.3501785,68.872224 14.3632563,67.4594816 15.84,66.7172673 Z" id="Path"></path>
        <path d="M50.9279785,25.52 L56.5018377,25.52 L59.84,18.9782239 L53.6867055,7.15270566 C53.6618069,7.10812972 53.6244457,7.07146515 53.5790229,7.04703082 C53.5420261,7.03765639 53.5032093,7.03765639 53.4662125,7.04703082 C53.3719497,7.0456516 53.2848319,7.09617043 53.2405917,7.17786634 L48.4,16.4671884 C50.0703221,18.8622607 50.9640185,21.6968312 50.9638727,24.5991192 C50.9690004,24.8809188 50.9536172,25.2029755 50.9279785,25.52 Z" id="Path"></path>
        <path d="M21.2764704,73.9614953 L20.5480535,73.528972 L20.89145,72.7805607 C21.0644009,72.3925305 21.1528391,71.9762003 21.1515989,71.5558879 C21.2281195,70.0183137 19.9568211,68.7134243 18.3107731,68.64 C16.7213592,68.7100317 15.4709569,69.933579 15.4699474,71.4198131 L15.4699474,71.5607477 L14.5125995,71.5607477 L14.8247782,72.3042991 C13.8013786,72.7678312 13.1654877,73.7501339 13.2014491,74.8119626 C13.1912202,75.4896686 13.4340662,76.149535 13.8882422,76.6781308 L14.2108268,77.0474766 L14.0651434,77.5771963 C13.9922388,77.78754 13.9553635,78.0073199 13.9558809,78.2284112 C13.8902364,79.1819722 14.6580172,80.0074432 15.6780665,80.08 C16.096083,80.0754378 16.4956431,79.9184816 16.7915037,79.6426168 L17.4262669,79.0642991 L18.1234659,79.5502804 C18.6036226,79.8884385 19.1871031,80.0740781 19.7884188,80.08 C21.4949954,80.08 22.8789875,78.6220561 22.8789875,76.828785 C22.908217,75.679221 22.3029677,74.5962838 21.2764704,73.9614953 L21.2764704,73.9614953 Z" id="Path"></path>
        <path d="M54.56,32.3120407 C54.56,32.4489846 54.6706119,32.56 54.807058,32.56 L68.3851354,32.56 C68.4241588,32.56 68.462481,32.5495927 68.4960592,32.5296372 C68.5551494,32.5010718 68.6004973,32.4500969 68.6221089,32.3879464 C68.6459637,32.3278311 68.6459637,32.2608275 68.6221089,32.2007122 L61.8204652,18.5983987 C61.7971559,18.5497265 61.7580368,18.5104647 61.7095415,18.4870703 C61.6731634,18.4776432 61.6349958,18.4776432 61.5986177,18.4870703 C61.5044844,18.4854285 61.4179455,18.5387257 61.3767702,18.6237007 L54.5902524,32.2007122 C54.5703695,32.2344129 54.56,32.272875 54.56,32.3120407 L54.56,32.3120407 Z" id="Path"></path>
        <path d="M54.56,43.9755823 L53.8305597,43.9755823 C52.88275,43.9728803 52.1119516,43.1998175 52.0981389,42.2380723 C52.0997752,41.9536525 52.1674579,41.6736297 52.2956956,41.4207229 L52.8022514,40.48 L47.5391368,40.48 C46.6830766,44.3602556 44.3049388,47.7185253 40.9539115,49.7792771 L38.7503938,54.1950201 C38.7304179,54.2292548 38.72,54.2683262 38.72,54.3081124 C38.72,54.4472261 38.8311289,54.56 38.9682128,54.56 L49.6514744,54.56 C49.6462312,54.4761218 49.6462312,54.3919907 49.6514744,54.3081124 C49.6521481,54.0297092 49.7162966,53.7552405 49.8389,53.5061847 L54.56,43.9755823 Z" id="Path"></path>
        <path d="M45.5276425,37.9024255 C45.5287639,36.7524585 45.3730518,35.6077981 45.0648818,34.5006099 L44.9006764,33.9486929 L45.3385575,33.5372639 C47.8606658,31.1870703 49.2901574,27.878367 49.2794876,24.4155813 C49.337445,18.0206207 44.4719812,12.6737524 38.1483504,12.183094 L37.5114324,12.1429546 L37.2974677,11.5358459 C35.6479663,6.72975402 31.1542231,3.50982998 26.1105438,3.52 C21.0668646,3.53021829 16.585959,6.76828165 14.9555786,11.5810027 L14.7465898,12.1630243 L14.1395274,12.2282508 C8.02847158,12.9519758 3.44579727,18.2116593 3.52091012,24.4155813 C3.51046617,27.5014994 4.64866458,30.4790538 6.71047603,32.7595627 L7.09859794,33.1960788 L6.90453699,33.7479958 C6.43728352,35.0857604 6.20000523,36.4941555 6.202932,37.9124604 C6.202932,44.6659173 11.5371202,50.16 18.0904093,50.16 C20.6854765,50.1578506 23.2055245,49.2819855 25.2507609,47.6713561 L25.8428956,47.2047354 L26.4400062,47.6713561 C28.4903845,49.2819091 31.0162135,50.1544246 33.6152856,50.1499651 C40.1785265,50.1499651 45.5276425,44.6558824 45.5276425,37.9024255 Z" id="Path"></path>
        <path d="M66.0095578,51.5435912 C66.5900012,49.5369682 68.3540576,48.128845 70.4,48.0390073 L68.3883426,44 L55.2522201,44 L50.1677561,54.1951533 C50.1574146,54.2320962 50.1574146,54.2712614 50.1677561,54.3082044 C50.1677561,54.4472673 50.2780857,54.56 50.4141841,54.56 L62.6551192,54.56 C62.9254024,52.8653717 64.3301535,51.6021788 66.0095578,51.5435912 Z" id="Path"></path>
        <path d="M26.6425887,49.892345 C26.3222402,49.7000383 26.0068202,49.4976102 25.701257,49.28 C25.0423638,49.7482727 24.3447876,50.1563758 23.6165277,50.4996294 C23.8432358,58.510722 23.3060361,64.507655 22,68.5562173 C22.4318529,69.3350451 22.6594115,70.2156506 22.6604107,71.1118722 C22.6605132,71.548773 22.6075341,71.9839804 22.5027007,72.4074121 C22.7155836,72.6005258 22.9118089,72.8121764 23.0891848,73.04 L29.92,73.04 C27.2487866,69.7454824 26.1645302,62.1088818 26.6425887,49.892345 Z" id="Path"></path>
        <path d="M112.035593,19.5928682 L111.484637,19.6320882 L111.289298,19.1418377 C110.786556,17.7101165 109.419937,16.7412052 107.873372,16.72 C106.011573,16.758957 104.464123,18.1355256 104.247081,19.9458486 L104.146907,20.5831743 L103.490768,20.5831743 L103.355534,20.5831743 C101.597484,20.5831743 100.210077,22.0539259 98.607296,23.7550953 C98.2967572,24.0884657 97.9812097,24.4218361 97.6606536,24.7355964 C96.9343936,25.4758748 95.0962045,26.0347604 92.5818422,26.7456237 L91.52,27.049579 C93.1878937,27.1721417 96.2482031,27.2750943 101.702666,27.28 L115.466546,27.28 C116.674962,27.2819224 117.70422,26.4208981 117.890505,25.2522367 C118.07679,24.0835754 117.364423,22.9565817 116.21284,22.5981041 L115.862232,22.4902489 L115.742023,22.142171 C115.261874,20.6590661 113.87016,19.6398729 112.281019,19.6075757 C112.199595,19.5977595 112.117632,19.5928477 112.035593,19.5928682 Z" id="Path"></path>
        <path d="M95.7118022,8.59694147 C97.0284416,9.11290804 97.7952524,10.4989105 97.5384487,11.8985855 C97.281645,13.2982605 96.073726,14.3164598 94.6610235,14.3240729 L93.28,14.3240729 C94.0835275,17.3779583 96.2425526,19.8863763 99.1293349,21.12 C100.185117,20.1570756 101.330966,19.4109352 102.691975,19.274815 C103.249663,16.9673419 105.288693,15.334177 107.645646,15.3071632 C109.293413,15.3141843 110.833445,16.1333251 111.768702,17.5002109 C112.909518,15.8435407 113.520574,13.875154 113.52,11.8587848 C113.437653,6.21192167 108.837161,1.69618125 103.232376,1.76068246 C99.5109482,1.74733002 96.0701755,3.75226855 94.2257008,7.00887245 C94.8617911,7.38391068 95.3776026,7.93511419 95.7118022,8.59694147 Z" id="Path"></path>
        <path d="M84.4447399,12.3152102 L95.3275421,12.3152102 C96.0752506,12.3076971 96.7009603,11.7763331 96.7894443,11.0737364 C96.8779284,10.3711396 96.4017066,9.71551415 95.6768042,9.54193904 L95.3022333,9.45572336 L95.1605038,9.11565038 C94.7898216,8.21652506 93.8722569,7.62626277 92.8523373,7.6308247 L92.5992489,7.6308247 L91.9462808,7.69788134 L91.7994895,7.09437155 C91.5239509,5.96730477 90.4201071,5.19940665 89.2010693,5.28675898 C87.9820314,5.37411131 87.0129791,6.29054651 86.9199447,7.44402405 L86.8440181,8.15769833 L86.1049999,8.10501096 L85.9430234,8.10501096 C84.6775812,8.10501096 83.6500422,9.09649134 82.4655884,10.241244 C82.2276853,10.4711525 81.9897822,10.7202201 81.7417555,10.9309695 C81.2102698,11.4099455 80.0359395,11.7835468 78.32,12.2289946 C79.6411216,12.2816819 81.5696554,12.3152102 84.3941222,12.32 L84.4447399,12.3152102 Z" id="Path"></path>
        <polygon id="Path" points="96.8 52.8 96.8 88.88 121.44 88.88"></polygon>
        <path d="M53.3527273,39.6 L56.32,33.9145912 L55.4618182,33.9145912 C54.5460297,33.9145912 53.8036364,33.1730734 53.8036364,32.2583648 C53.8027171,32.0011154 53.8625156,31.7472713 53.9781818,31.5174214 L56.0969697,27.28 L51.3551515,27.28 C50.8748062,30.0964261 49.5353984,32.6959737 47.52,34.7233333 C47.8988197,36.3199139 47.9940025,37.9705353 47.8012121,39.6 L53.3527273,39.6 Z" id="Path"></path>
        <path d="M58.2918911,33.44 L53.6855749,42.7450888 C53.6781417,42.7846233 53.6781417,42.8253175 53.6855749,42.8648521 C53.6855749,43.0057664 53.7936536,43.12 53.9269755,43.12 L71.913778,43.12 C71.9518143,43.1193657 71.9890875,43.1086213 72.022162,43.0887574 C72.0805566,43.0591002 72.1237554,43.003929 72.1403989,42.9377515 C72.1665337,42.8765009 72.1665337,42.8063393 72.1403989,42.7450888 L67.5291562,33.44 L58.2918911,33.44 Z" id="Path"></path>
        <path d="M91.0845088,100.32 C90.5502215,100.31819 90.0675323,100.638639 89.861809,101.131735 C89.6560856,101.624831 89.7679067,102.193313 90.1450629,102.571756 C90.522219,102.950199 91.0903169,103.063957 91.5841114,102.859915 C92.0779059,102.655873 92.4,102.174278 92.4,101.639988 C92.4,100.912733 91.8117602,100.322481 91.0845088,100.32 L91.0845088,100.32 Z" id="Path"></path>
        <path d="M102.52,100.32 C101.790984,100.32 101.2,100.910984 101.2,101.64 C101.2,102.369016 101.790984,102.96 102.52,102.96 C103.249016,102.96 103.84,102.369016 103.84,101.64 C103.84,100.910984 103.249016,100.32 102.52,100.32 L102.52,100.32 Z" id="Path"></path>
        <path d="M113.08,100.32 C112.350984,100.32 111.76,100.910984 111.76,101.64 C111.76,102.369016 112.350984,102.96 113.08,102.96 C113.809016,102.96 114.4,102.369016 114.4,101.64 C114.4,100.910984 113.809016,100.32 113.08,100.32 L113.08,100.32 Z" id="Path"></path>
        <path d="M119.610395,95.92 L64.24,95.92 C69.52,104.097174 74.3823729,108.24 78.6928814,108.24 L130.24,108.24 L119.610395,95.92 Z M80.6119774,104.277971 C79.2692702,104.277971 78.180791,103.147048 78.180791,101.751983 C78.180791,100.356919 79.2692702,99.2259958 80.6119774,99.2259958 C81.9546846,99.2259958 83.0431638,100.356919 83.0431638,101.751983 C83.0377148,103.144696 81.952421,104.272309 80.6119774,104.277971 L80.6119774,104.277971 Z M91.3111864,104.277971 C89.9684792,104.277971 88.88,103.147048 88.88,101.751983 C88.88,100.356919 89.9684792,99.2259958 91.3111864,99.2259958 C92.6538936,99.2259958 93.7423729,100.356919 93.7423729,101.751983 C93.7396378,103.145869 92.6527591,104.275129 91.3111864,104.277971 L91.3111864,104.277971 Z M102.497627,104.277971 C101.15492,104.277971 100.066441,103.147048 100.066441,101.751983 C100.066441,100.356919 101.15492,99.2259958 102.497627,99.2259958 C103.840334,99.2259958 104.928814,100.356919 104.928814,101.751983 C104.926195,103.135873 103.854341,104.261028 102.522486,104.277971 L102.497627,104.277971 Z M113.196836,104.277971 C111.854129,104.277971 110.76565,103.147048 110.76565,101.751983 C110.76565,100.356919 111.854129,99.2259958 113.196836,99.2259958 C114.539543,99.2259958 115.628023,100.356919 115.628023,101.751983 C115.625287,103.145869 114.538409,104.275129 113.196836,104.277971 L113.196836,104.277971 Z" id="Shape"></path>
        <path d="M69.1993928,56.2147964 L69.4507596,55.6489424 L68.7376988,55.6489424 L68.7376988,55.5578303 C68.7136167,54.4984658 67.7753945,53.6579303 66.6421209,53.6804418 C65.5088472,53.7029533 64.6096698,54.5799871 64.6337519,55.6393516 C64.6318268,55.9285767 64.6965638,56.2147966 64.8235594,56.4785419 L65.090316,57.0443958 L64.5208933,57.3656858 C63.7916726,57.7896332 63.3521183,58.538685 63.3615283,59.3413794 C63.3153568,60.5448818 64.3210128,61.5557787 65.6084393,61.6 C66.0499676,61.599848 66.4804138,61.4707531 66.8396233,61.2307563 L67.3526167,60.8998756 L67.7989209,61.2930961 C68.0161845,61.4899447 68.3068809,61.6 68.6094505,61.6 C69.3280963,61.568899 69.8850065,61.0011774 69.8560243,60.3292262 C69.8563568,60.179224 69.8303619,60.0301868 69.7790753,59.8880519 L69.6405671,59.5092175 L69.9175835,59.207109 C70.2332102,58.8534609 70.4041174,58.4064697 70.3997973,57.9459259 C70.4112393,57.1949891 69.9373842,56.5116323 69.1993928,56.2147964 L69.1993928,56.2147964 Z" id="Path"></path>
        <path d="M72.5582482,61.5951284 C73.4871435,59.9241275 74.530263,58.3207374 75.68,56.7966506 C75.3512333,56.1419622 74.8270581,55.6084992 74.1817518,55.2718551 L73.5988321,54.9600759 L73.8589781,54.351132 C74.0163299,53.9922523 74.0967792,53.603757 74.0950365,53.211189 C74.029677,51.4689468 72.5857868,50.1067813 70.8624818,50.161598 C69.4642784,50.1334146 68.2090841,51.0242704 67.76,52.3635391 C68.8175258,52.8493469 69.5606188,53.8426973 69.7351825,55.0039198 C70.7278685,55.6157159 71.326937,56.7124322 71.3105109,57.8878781 C71.3119926,58.562008 71.115849,59.2214578 70.7468613,59.7829114 C70.7795972,59.956315 70.7957302,60.1325053 70.7950365,60.309039 C70.7953679,60.5947312 70.7531424,60.8788443 70.669781,61.1518173 C71.2142441,61.4445592 71.8211702,61.5984106 72.4378102,61.6 L72.5582482,61.5951284 Z" id="Path"></path>
        <path d="M67.76,88.88 L84.48,88.88 L84.48,51.04 C73.7510421,59.2538317 68.1494177,71.9726607 67.76,88.88 Z" id="Path"></path>
        <path d="M80.5245088,100.32 C79.9902215,100.31819 79.5075323,100.638639 79.301809,101.131735 C79.0960856,101.624831 79.2079067,102.193313 79.5850629,102.571756 C79.962219,102.950199 80.5303169,103.063957 81.0241114,102.859915 C81.5179059,102.655873 81.84,102.174278 81.84,101.639988 C81.84,100.912733 81.2517602,100.322481 80.5245088,100.32 L80.5245088,100.32 Z" id="Path"></path>
        <path d="M77.4947045,13.9745846 C78.9559917,14.0710276 81.2651247,14.1217871 84.5417994,14.131939 L92.4566895,14.131939 C93.2375749,17.6114095 95.5292756,20.5414098 98.6858626,22.0961023 L97.9427507,22.8676465 C97.6385236,23.2026591 97.3342966,23.5376717 97.0200949,23.8828362 C96.5213621,24.4208868 94.1673431,25.1061398 92.616284,25.5629752 C89.9530507,26.3446713 88.8458638,26.6644561 88.9805217,27.6390382 C89.1052049,28.5273292 89.1700401,29.0196962 102.097195,29.04 L115.807361,29.04 C117.648939,29.0242494 119.229394,27.7011463 119.599816,25.865085 C119.970239,24.0290236 119.029932,22.1791268 117.343458,21.4260771 C116.691753,19.7730733 115.264303,18.5665307 113.548101,18.2180776 C114.853501,16.2953958 115.549637,14.0122348 115.543032,11.6751799 C115.471785,5.16438083 110.235033,-0.0586912389 103.837773,0.000498131116 C99.5114996,-0.016049921 95.5262551,2.38833484 93.4641298,6.25914274 C93.3321056,6.23613749 93.1988899,6.22088442 93.0651436,6.2134592 C92.4381942,4.6136037 90.8690312,3.60782583 89.1805167,3.72355094 C87.4920021,3.83927605 86.0694988,5.05009267 85.658961,6.72105406 C84.003168,6.90378821 82.7812725,8.17785131 81.5942884,9.41130681 L80.9060371,10.1219396 C80.5569241,10.4671041 78.7564986,10.9594711 77.6792356,11.2589521 C75.5695957,11.8426862 74.6868386,12.0812558 74.8115218,12.9644708 C74.9461797,13.7258631 75.7690889,13.8629137 77.4947045,13.9745846 Z M116.096626,22.2179251 L116.216322,22.5783174 L116.565435,22.6899883 C117.712106,23.0611483 118.421435,24.2280133 118.235945,25.4380201 C118.050454,26.6480269 117.025586,27.539513 115.822323,27.5375226 L102.117144,27.5375226 C96.6859439,27.5375226 93.6386863,27.4258483 91.977906,27.2989496 L93.0352196,26.9842408 C95.5288838,26.2482283 97.3692079,25.6695701 98.0923705,24.9031019 C98.4115595,24.5630133 98.7257612,24.2178488 99.0349756,23.8879122 C100.630921,22.126558 102.027373,20.6037734 103.762963,20.6037734 L103.897621,20.6037734 L104.550961,20.6037734 L104.650707,19.9439001 C104.866824,18.0695307 106.407674,16.6442613 108.261533,16.603926 C109.801502,16.6258814 111.162293,17.6290713 111.662891,19.1114446 L111.857397,19.6190394 L112.406003,19.5784318 C112.487386,19.573349 112.568999,19.573349 112.650382,19.5784318 C114.236766,19.614028 115.623764,20.6763357 116.096626,22.2179251 L116.096626,22.2179251 Z M103.872684,1.46744727 C109.461005,1.4081959 114.042738,5.96236853 114.116657,11.6498001 C114.117229,13.6799516 113.508173,15.6617926 112.371092,17.3297866 C111.438896,15.9535578 109.903906,15.128818 108.261533,15.121749 C105.912296,15.1489473 103.87994,16.7932753 103.324078,19.1165205 C101.967525,19.2535711 100.830414,20.0048115 99.7731002,20.9743177 C96.8995927,19.7297467 94.7516571,17.204583 93.952888,14.131939 L95.3393653,14.131939 C96.7608911,14.1386548 97.982445,13.1067567 98.2378184,11.6834935 C98.4931917,10.2602303 97.7088353,8.85551115 96.3767296,8.35043356 C96.0419353,7.67639136 95.5221965,7.11567884 94.8805311,6.73628191 C96.7254477,3.45852805 100.161209,1.44538867 103.872684,1.46744727 L103.872684,1.46744727 Z M81.9833,11.167585 C82.2276791,10.9290154 82.4820328,10.6599902 82.6964879,10.4366484 C83.8635228,9.22349671 84.8759504,8.17277536 86.1227825,8.17277536 L86.282377,8.17277536 L87.010527,8.22861079 L87.0653876,7.48244635 C87.1570538,6.2600485 88.1118549,5.28885627 89.3129651,5.19628463 C90.5140754,5.103713 91.6016857,5.91749305 91.8731721,7.1119021 L92.0178046,7.75147162 L92.66117,7.68040834 L92.9105364,7.68040834 C93.9154566,7.67557384 94.8195273,8.30110432 95.1847581,9.25395241 L95.3244033,9.61434476 L95.6934656,9.70571183 C96.4077074,9.88965806 96.8769257,10.5844572 96.7897429,11.3290341 C96.7025601,12.073611 96.0860524,12.636724 95.3493399,12.6446861 L84.5517741,12.6446861 C81.7937815,12.6446861 79.8936094,12.6040785 78.5669801,12.548243 C80.282621,12.0711039 81.4396812,11.6904077 81.9833,11.167585 Z" id="Shape" fill="#000000" fill-rule="nonzero"></path>
        <path d="M55.1490951,104.093288 C49.2015027,108.182181 38.7658193,108.568026 26.5169669,105.165082 C18.9504737,103.053648 12.5296642,103.466289 7.43884385,106.397644 C7.20284656,106.527485 7.05049873,106.7844 7.04052095,107.069365 C7.03054317,107.354331 7.16449348,107.622848 7.39074239,107.771422 C7.61699129,107.919995 7.90020996,107.925424 8.13123526,107.785617 C12.8833317,105.047184 18.9454925,104.677415 26.1533369,106.713823 C32.414747,108.466206 37.5603608,109.12 41.7545592,109.12 C49.1467092,109.12 53.5800067,107.088951 55.93613,105.465184 C56.1775054,105.324723 56.3256175,105.050856 56.32,104.755688 C56.314056,104.460521 56.155353,104.193608 55.9086925,104.06421 C55.6620321,103.934813 55.3688249,103.964654 55.1490951,104.141519 L55.1490951,104.093288 Z" id="Path" fill="#000000" fill-rule="nonzero"></path>
        <path d="M120.449327,94.1331254 L92.2178303,94.1331254 C92.2882751,93.9952051 92.3242713,93.8421881 92.3227244,93.6872296 L92.252795,75.7962889 C93.3650054,75.2919424 94.4555711,74.7759058 95.5244919,74.248179 L95.5244919,91.0469256 L125.848876,91.0469256 L109.365518,67.0837866 C117.068141,62.9876742 125.134993,59.6213515 133.46119,57.0285869 C133.889157,56.805136 134.096751,56.3068209 133.954516,55.84439 C133.812281,55.381959 133.360867,55.0875697 132.881775,55.1448026 C124.364602,57.7959452 116.1149,61.244696 108.241652,65.4454955 L95.5244919,46.9633671 L95.5244919,72.0688009 C94.4505761,72.5948576 93.3616755,73.1209144 92.2478001,73.6369511 L92.1279211,43.4162414 C92.1279211,42.8628449 91.6806574,42.4142285 91.1289297,42.4142285 L91.1289297,42.4142285 C90.5869793,42.4278224 90.1547437,42.8724819 90.1549131,43.4162414 L90.279787,74.5187225 C89.2458309,74.9746383 88.191895,75.4305542 87.1079893,75.87645 L87.1079893,46.9182765 L85.5695426,48.0054606 C82.5005811,50.1700669 79.7367591,52.7400223 77.3528383,55.6458091 C77.0023155,55.1347686 76.5622996,54.6917244 76.0541495,54.3381822 C76.1542717,53.9657454 76.2046614,53.5816257 76.2039982,53.1958875 C76.1690066,51.1458111 74.7992453,49.3607532 72.8324023,48.8020608 L70.7295254,44.623667 L71.9432999,44.623667 C72.2184303,44.6250079 72.4895956,44.5578722 72.7325031,44.4282744 C73.559879,43.9833358 73.8761685,42.9534029 73.441787,42.1186346 L69.1311391,33.852028 C69.3650365,33.8412463 69.5943716,33.7833131 69.8054583,33.6816858 C70.6501469,33.2564097 70.9938289,32.2267222 70.5746817,31.3770561 L63.8464747,17.8849521 L63.8464747,17.8849521 C63.6794109,17.5544774 63.4117244,17.2859813 63.0822462,17.1184123 C62.4124562,16.7835936 61.6035081,16.9235592 61.0842634,17.4641067 L55.5298713,6.54717594 C55.3684461,6.22737091 55.1094583,5.96759977 54.7906176,5.80568638 C53.9504577,5.37454839 52.9208946,5.70608031 52.4879425,6.54717594 L48.0823904,15.1795173 C45.8196536,12.5361172 42.6430836,10.8499489 39.191367,10.4600364 C37.0881084,5.18810061 31.9882737,1.73919175 26.3270725,1.76009449 C20.6658713,1.78118792 15.5916066,5.26783375 13.527278,10.5552276 C6.67446738,11.658117 1.65631371,17.6222846 1.72419463,24.5834085 C1.71492206,27.9535196 2.89315129,31.2185329 5.05083598,33.8019274 C4.62549061,35.1811353 4.40994874,36.6167972 4.41148149,38.0604823 C4.41148149,45.8862032 10.6451878,52.2539953 18.3024569,52.2539953 C19.571401,52.2528365 20.8339778,52.0740909 22.0536696,51.7229285 C22.2185031,58.4414251 21.8089167,63.6218319 20.8299051,67.2541288 C20.0913888,66.7563371 19.2222057,66.4895626 18.3324266,66.4875889 L18.2575023,66.4875889 C17.5370933,63.332309 14.5587433,61.2311189 11.3546395,61.6177021 C8.15053561,62.0042853 5.75393239,64.753977 5.80007953,67.9906083 C5.79955768,68.546776 5.87006073,69.1007203 6.00986773,69.6389195 C4.23348871,70.9509017 3.18562439,73.0325064 3.18771703,75.2451818 C3.17975266,77.0664416 3.89377543,78.8162073 5.17256656,80.1092027 C6.45135768,81.4021981 8.19006004,82.1324012 10.0058333,82.1390307 C11.1162787,82.1404972 12.2096672,81.8650321 13.1876209,81.3374204 C13.8522326,81.7814006 14.6192385,82.0470422 15.4153717,82.1089703 C15.5279004,82.1249709 15.641377,82.13334 15.7550288,82.1340207 L15.9148674,82.1340207 C16.573823,82.1199495 17.222366,81.966287 17.817946,81.6831148 C18.4338758,81.9790754 19.1079944,82.1331366 19.790954,82.1340207 C22.5082106,82.1340207 24.7159816,79.75424 24.7159816,76.8233522 C24.7148334,76.2992201 24.6391466,75.7779324 24.4912086,75.2752422 L35.9796096,75.2752422 L35.9796096,73.3112969 L34.3562486,73.3112969 C33.435757,73.3114192 32.5642155,72.8954947 31.983644,72.1790223 C29.5810697,69.4585572 28.5770834,62.4695171 28.9866699,51.3171133 C32.1338254,52.5423128 35.6222105,52.5530238 38.7767855,51.3471737 L37.4780967,53.9173368 C37.3572659,54.1583047 37.2939931,54.4241681 37.2932833,54.6938968 C37.2931835,55.6305077 38.0428971,56.3936458 38.9765838,56.4073389 L63.3969285,56.4073389 L63.3969285,56.4674597 C62.5373237,57.2134151 62.0448407,58.2983251 62.0482901,59.438428 C62.0036348,61.5072581 63.637113,63.2218824 65.6996037,63.2711274 C66.1777513,63.2688673 66.6503556,63.1682631 67.0882017,62.9755336 C67.5496195,63.1714192 68.0456845,63.2719546 68.5467292,63.2711274 L68.6116636,63.2711274 C68.7386903,63.2687785 68.8654598,63.2587401 68.9912803,63.241067 C69.5483627,63.1763006 70.0841063,62.9880521 70.5596968,62.6899599 C71.1188848,62.9756832 71.7244599,63.1589233 72.3478914,63.2310469 C69.5407256,68.7087175 67.7325512,75.0163889 66.9233682,82.1540609 C52.078356,85.4607036 31.8387903,87.584971 1.20971406,87.584971 C0.810913095,87.4986531 0.399854583,87.664246 0.17136625,88.0032641 C-0.0571220833,88.3422822 -0.0571220833,88.7865949 0.17136625,89.1256131 C0.399854583,89.4646312 0.810913095,89.630224 1.20971406,89.5439062 C31.5690626,89.5439062 51.8086283,87.4647294 66.7235699,84.2131975 C66.5637313,86.1070019 66.472157,88.054247 66.4488472,90.0549328 L66.4488472,91.0569457 L87.1129843,91.0569457 L87.1129843,78.0307777 C88.2018849,77.5898921 89.2624808,77.1439963 90.2947719,76.6930905 L90.3597063,93.7273102 C90.3629462,93.8790753 90.4005216,94.0281186 90.4695954,94.1631858 L60.3400149,94.1631858 L61.3040415,95.6662052 C67.4478386,105.305569 73.0721602,110 78.436744,110 L134.64,110 L120.449327,94.1331254 Z M97.4725251,53.2560083 L122.122638,89.0879903 L97.47752,89.0879903 L97.4725251,53.2560083 Z M72.1580831,42.8150336 C72.1845808,42.8739665 72.1845808,42.9414732 72.1580831,43.000406 C72.1412084,43.0640794 72.0974097,43.117163 72.0382041,43.1456979 C72.0046704,43.1648102 71.9668796,43.175148 71.9283151,43.1757583 L53.6717473,43.1757583 C53.536574,43.1757583 53.4269944,43.0658472 53.4269944,42.9302651 C53.4194579,42.8922265 53.4194579,42.8530722 53.4269944,42.8150336 L58.1072691,33.8620482 L67.4578286,33.8620482 L72.1580831,42.8150336 Z M47.4080712,34.698729 C49.4843545,32.6013326 50.8642257,29.9119814 51.3590822,26.9982597 L56.2441501,26.9982597 L54.0613539,31.3820662 C53.9421935,31.6198564 53.8805884,31.8824698 53.8815355,32.1486061 C53.8815355,33.094914 54.6463564,33.8620482 55.5898108,33.8620482 L56.4589333,33.8620482 L53.3870347,39.743864 L47.6977787,39.743864 C47.8963933,38.0581082 47.798335,36.3504647 47.4080712,34.698729 L47.4080712,34.698729 Z M62.0982397,18.571331 C62.1390309,18.487201 62.2247626,18.4344338 62.3180178,18.4360593 C62.3540565,18.4267259 62.3918681,18.4267259 62.4279069,18.4360593 C62.4759498,18.459221 62.514704,18.4980924 62.5377959,18.5462807 L69.261008,32.0383847 C69.2846402,32.0979022 69.2846402,32.1642395 69.261008,32.223757 C69.239598,32.2852895 69.1946731,32.3357575 69.1361341,32.3640389 C69.1028691,32.3837959 69.0649044,32.3940997 69.026245,32.3940997 L55.5898108,32.3940997 C55.4546375,32.3940997 55.3450574,32.2841882 55.3450574,32.1486061 C55.3450574,32.1098298 55.3553301,32.0717503 55.3750276,32.0383847 L62.0982397,18.571331 Z M53.7916262,7.22854473 C53.8347208,7.14720714 53.9195826,7.09690988 54.0114044,7.09828305 C54.0474431,7.08894974 54.0852547,7.08894974 54.1212934,7.09828305 C54.16554,7.12261022 54.2019337,7.15911397 54.2261875,7.2034944 L60.2201359,18.9771462 L56.9684189,25.4902302 L51.5289107,25.4902302 C51.5538855,25.1745961 51.5688704,24.853952 51.5688704,24.5333079 C51.5690125,21.6437492 50.6984592,18.8216111 49.0713919,16.4370435 L53.7916262,7.22854473 Z M11.5043204,74.7792458 C11.5019049,75.7416395 11.7758931,76.6843659 12.2935236,77.4947008 C12.2477271,77.7510197 12.2243284,78.0108595 12.2235942,78.2712608 C12.2249647,78.6893026 12.2889484,79.1047654 12.4134026,79.5037367 C11.6870826,79.9462818 10.855602,80.1850606 10.0058333,80.1951257 C7.31016685,80.164845 5.14629498,77.954111 5.16572,75.2501919 C5.15848633,73.4583652 6.11247097,71.8010663 7.66319849,70.9114759 L8.41244204,70.4906305 L8.09276479,69.6890202 C7.42852267,68.1639142 7.68147224,66.3931692 8.74594509,65.116505 C9.81041795,63.8398407 11.5032506,63.2769325 13.1172706,63.6629324 C14.7312906,64.0489322 15.988774,65.3174214 16.3644136,66.9384947 C14.918921,67.6702307 13.9237952,69.067246 13.7021015,70.6760029 C12.3067222,71.5661886 11.4740314,73.1208168 11.5043204,74.7792458 Z M19.7659793,80.1951257 C19.1841366,80.1936851 18.618297,80.0039157 18.1526082,79.6540387 L17.4832839,79.1530322 L16.888884,79.7341997 C16.6048523,80.0185934 16.2212671,80.1804022 15.8199632,80.1851055 C14.8406966,80.1103055 14.1036125,79.2593133 14.1666325,78.2762709 C14.1661358,78.0483441 14.2015368,77.8217692 14.2715266,77.6049223 L14.4113854,77.0588252 L14.101698,76.6880804 C13.6758033,76.149813 13.4466301,75.4814325 13.4523536,74.794276 C13.4039412,73.6912039 14.0119765,72.6642541 15.0007903,72.1790223 L14.6711231,71.4024623 L15.5901952,71.4024623 L15.5901952,71.2571704 C15.5911643,69.7249862 16.7915743,68.4636103 18.3174417,68.3914134 C19.897679,68.4671078 21.1181495,69.8123407 21.0446883,71.3974522 C21.0458788,71.8307595 20.9609765,72.2599614 20.7949404,72.6599885 L20.495243,73.4415586 L21.2095218,73.8874543 C22.1904138,74.5389949 22.770844,75.6485501 22.7479686,76.8283622 C22.7329837,78.6921063 21.4043252,80.1951257 19.7659793,80.1951257 Z M30.3802629,73.3313371 L23.4522575,73.3313371 C23.2736211,73.0971109 23.0747155,72.8791619 22.8578576,72.6800287 C22.9641059,72.2608339 23.0178001,71.8299813 23.0176963,71.3974522 C23.0166836,70.5101984 22.7860537,69.6384044 22.348372,68.8673696 C23.6720356,64.8593179 24.2164859,58.9223913 23.9867179,50.9914591 C24.7265271,50.6519004 25.4351995,50.2478753 26.1045797,49.7840335 C26.414267,49.9994663 26.7339443,50.1998689 27.0586165,50.3902513 C26.5741056,62.4945674 27.6729962,70.0547549 30.3802629,73.316307 L30.3802629,73.3313371 Z M33.9067025,50.285063 C31.2976878,50.2894929 28.7621964,49.4182577 26.7039745,47.810068 L26.1045797,47.344132 L25.5101798,47.810068 C23.4504234,49.4189723 20.9131186,50.2902264 18.3024569,50.285063 C11.7240985,50.285063 6.36950463,44.7739689 6.36950463,38.0554723 C6.36656666,36.6392486 6.60475264,35.2329202 7.07379356,33.8971186 L7.26859689,33.3460115 L6.87899024,32.9101359 C4.81045853,30.6342487 3.66799058,27.6630713 3.67722281,24.5834085 C3.60182262,18.3885901 8.20202771,13.1366245 14.336461,12.4139616 L14.9458458,12.3488308 L15.155634,11.7676633 C16.7922513,6.96200434 21.2902984,3.72869248 26.3532719,3.71848919 C31.4162455,3.70833409 35.9271794,6.92353324 37.5829908,11.7225727 L37.797774,12.3287905 L38.4371285,12.368871 C44.78495,12.8588094 49.6690264,18.1978318 49.6108472,24.5834085 C49.6173621,28.035887 48.182754,31.3334743 45.6548413,33.6766758 L45.2152851,34.0875011 L45.3801187,34.6636585 C45.6894675,35.769222 45.8457753,36.9122028 45.8446497,38.0604823 C45.8446497,44.7940091 40.4750709,50.2800299 33.9067025,50.2800299 L33.9067025,50.285063 Z M49.520938,54.9444 L38.9765838,54.9444 C38.8414105,54.9444 38.7318305,54.834489 38.7318305,54.6989069 C38.7318305,54.6601306 38.7421032,54.6220511 38.7618007,54.5886855 L40.934607,50.28504 C44.2551841,48.2835244 46.6155819,45.0073455 47.4680107,41.216823 L52.657771,41.216823 L52.1582753,42.1336648 C52.0318249,42.3801514 51.9650855,42.6530656 51.963472,42.9302651 C51.9770923,43.8675956 52.7371477,44.6210335 53.6717473,44.623667 L54.3910211,44.623667 L49.6807766,53.8922865 C49.559882,54.1350197 49.4966275,54.4025208 49.4959632,54.6738566 C49.4982017,54.7628378 49.5065464,54.8515588 49.520938,54.93939 L49.520938,54.9444 Z M63.3669588,54.9444 L51.2092335,54.9444 C51.0740602,54.9444 50.9644806,54.834489 50.9644806,54.6989069 C50.9542094,54.6628886 50.9542094,54.6247037 50.9644806,54.5886855 L56.0393569,44.623667 L69.0861845,44.623667 L71.0841673,48.5615777 C69.0521325,48.6491668 67.3000676,50.0220446 66.7235699,51.9784418 C65.0396626,52.0255211 63.628615,53.2702405 63.3669588,54.93939 L63.3669588,54.9444 Z M69.9103524,59.3031562 L69.6406248,59.6187903 L69.7754886,60.0145854 C69.8254257,60.1630838 69.8507366,60.3187935 69.8504129,60.4755114 C69.8786325,61.1775463 69.3363755,61.7706851 68.6366384,61.8031785 C68.34203,61.8031785 68.0589822,61.6881959 67.8474352,61.4825344 L67.4128739,61.0717091 L66.9133782,61.4174035 C66.5636201,61.6681452 66.1444996,61.8030197 65.7145886,61.8031785 C64.4610363,61.7569774 63.4818407,60.700822 63.5267974,59.4434381 C63.517635,58.6048065 63.9456239,57.8222192 64.6556577,57.3792914 L65.2100979,57.0436171 L64.9503601,56.4474194 C64.826706,56.1718662 64.7636723,55.872832 64.7655467,55.5706581 C64.7503782,54.8546886 65.1171753,54.1849887 65.7277691,53.813828 C66.338363,53.4426672 67.0999897,53.4264337 67.725752,53.7712424 C68.3515143,54.1160512 68.7463439,54.7695175 68.7615123,55.485487 L68.7615123,55.5806782 L69.4558113,55.5806782 L69.2110585,56.1718659 C69.9195991,56.4918705 70.3682267,57.2063195 70.3499086,57.9855093 C70.361374,58.461216 70.2057899,58.9258331 69.9103524,59.2981462 L69.9103524,59.3031562 Z M71.1840665,61.3422525 C71.2704982,61.061518 71.314279,60.7693267 71.3139353,60.4755114 C71.3146546,60.2939583 71.2979274,60.1127584 71.2639858,59.9344244 C71.6465641,59.3570068 71.849932,58.6788068 71.8483957,57.9855093 C71.8654268,56.7766418 71.2442934,55.6487423 70.2150448,55.019551 C70.0340516,53.8253113 69.263589,52.8037168 68.1671124,52.304096 C68.6327372,50.9267476 69.9341628,50.010562 71.3838647,50.0395468 C73.1706425,49.9831714 74.6677141,51.3840676 74.7354809,53.1758472 C74.7372877,53.5795772 74.6538754,53.9791186 74.490728,54.3482024 L74.2210003,54.9744604 L74.8253901,55.2951046 C75.4944642,55.6413204 76.0379458,56.1899515 76.3788217,56.8632548 C75.1867376,58.4306762 74.105198,60.0796556 73.1420896,61.7981684 L73.0172157,61.7981684 C72.3778636,61.7965338 71.7485832,61.6383079 71.1840665,61.3372425 L71.1840665,61.3422525 Z M85.169946,89.0930004 L68.44683,89.0930004 C68.8414316,71.9635895 74.4407784,59.0777033 85.174941,50.755986 L85.169946,89.0930004 Z M63.9363839,96.1070908 L119.580205,96.1070908 L130.259423,108.056095 L78.436744,108.056095 C74.1260961,108.041065 69.2410282,104.022993 63.9513688,96.0920607 L63.9363839,96.1070908 Z" id="Shape" fill="#000000" fill-rule="nonzero"></path>
        <path d="M80.08,98.56 C78.6219683,98.56 77.44,99.7419683 77.44,101.2 C77.44,102.658032 78.6219683,103.84 80.08,103.84 C81.5380317,103.84 82.72,102.658032 82.72,101.2 C82.71703,99.7432003 81.5367997,98.56297 80.08,98.56 L80.08,98.56 Z M80.08,102.78184 C79.4370443,102.784024 78.856284,102.398108 78.6092259,101.804509 C78.3621678,101.210911 78.4976218,100.526904 78.9522627,100.072263 C79.4069037,99.6176218 80.0909109,99.4821678 80.6845094,99.7292259 C81.2781078,99.976284 81.6640237,100.557044 81.6618405,101.2 C81.6676087,101.623757 81.5036739,102.032223 81.2065507,102.334416 C80.9094276,102.63661 80.5037937,102.807432 80.08,102.808834 L80.08,102.78184 Z" id="Shape" fill="#000000" fill-rule="nonzero"></path>
        <path d="M90.64,98.56 C89.1819683,98.56 88,99.7419683 88,101.2 C88,102.658032 89.1819683,103.84 90.64,103.84 C92.0980317,103.84 93.28,102.658032 93.28,101.2 C93.28,99.7419683 92.0980317,98.56 90.64,98.56 Z M90.64,102.78184 C89.9970443,102.784024 89.416284,102.398108 89.1692259,101.804509 C88.9221678,101.210911 89.0576218,100.526904 89.5122627,100.072263 C89.9669037,99.6176218 90.6509109,99.4821678 91.2445094,99.7292259 C91.8381078,99.976284 92.2240237,100.557044 92.2218405,101.2 C92.2276087,101.623757 92.0636739,102.032223 91.7665507,102.334416 C91.4694276,102.63661 91.0637937,102.807432 90.64,102.808834 L90.64,102.78184 Z" id="Shape" fill="#000000" fill-rule="nonzero"></path>
        <path d="M102.08,98.56 C100.621968,98.56 99.44,99.7419683 99.44,101.2 C99.44,102.658032 100.621968,103.84 102.08,103.84 C103.538032,103.84 104.72,102.658032 104.72,101.2 C104.72,99.7419683 103.538032,98.56 102.08,98.56 Z M102.08,102.78184 C101.437531,102.781837 100.858427,102.394532 100.613073,101.800758 C100.367718,101.206984 100.504508,100.523863 100.959575,100.070343 C101.414643,99.6168237 102.098226,99.4823621 102.69116,99.7297385 C103.284095,99.977115 103.669425,100.557535 103.667239,101.2 C103.674498,101.625125 103.510306,102.035274 103.211691,102.337951 C102.913077,102.640628 102.505185,102.810347 102.08,102.808844 L102.08,102.78184 Z" id="Shape" fill="#000000" fill-rule="nonzero"></path>
        <path d="M112.64,98.56 C111.181968,98.56 110,99.7419683 110,101.2 C110,102.658032 111.181968,103.84 112.64,103.84 C114.098032,103.84 115.28,102.658032 115.28,101.2 C115.27703,99.7432003 114.0968,98.56297 112.64,98.56 L112.64,98.56 Z M112.64,102.78184 C111.997531,102.781837 111.418427,102.394532 111.173073,101.800758 C110.927718,101.206984 111.064508,100.523863 111.519575,100.070343 C111.974643,99.6168237 112.658226,99.4823621 113.25116,99.7297385 C113.844095,99.977115 114.229425,100.557535 114.227239,101.2 C114.234498,101.625125 114.070306,102.035274 113.771691,102.337951 C113.473077,102.640628 113.065185,102.810347 112.64,102.808844 L112.64,102.78184 Z" id="Shape" fill="#000000" fill-rule="nonzero"></path>
        <path d="M130.200841,69.7468854 C128.79507,71.0100886 126.256444,71.2593305 123.233779,70.4323006 C121.174042,69.8658418 119.474759,70.1150837 118.120481,71.1460387 C117.950528,71.2902336 117.879701,71.5352693 117.94274,71.7609614 C118.005779,71.9866534 118.189461,72.1456633 118.403695,72.16 C118.506935,72.1585831 118.607403,72.1230584 118.692058,72.0580374 C119.814615,71.2026846 121.220386,71.0214178 122.986611,71.4915786 C126.374879,72.4262356 129.165823,72.1033541 130.839359,70.5909091 C131.026914,70.4854832 131.137198,70.2650354 131.117802,70.0343234 C131.098406,69.8036114 130.953242,69.6091512 130.751293,69.5433514 C130.549343,69.4775515 130.331325,69.5536784 130.200841,69.7355563 L130.200841,69.7468854 Z" id="Path" fill="#000000" fill-rule="nonzero"></path>
        <path d="M32.4049862,100.231176 C33.4609008,99.3342229 34.7832159,99.1453907 36.4445862,99.6410751 C39.6268609,100.60884 42.2569602,100.272483 43.8311448,98.6969144 C44.026717,98.4923469 44.0565224,98.1370092 43.8989558,97.8884768 C43.7305806,97.6465608 43.4353564,97.6100724 43.2305328,97.8058627 C41.9082177,99.1276877 39.5203007,99.3873319 36.6722375,98.5198842 C34.7347795,97.9297838 33.1412203,98.189428 31.862498,99.2693118 C31.7059025,99.4213676 31.6422556,99.675147 31.7023514,99.9078649 C31.7624472,100.140583 31.9338943,100.304254 32.1337421,100.319691 C32.2293475,100.323463 32.3237292,100.292664 32.4049862,100.231176 Z" id="Path" fill="#000000" fill-rule="nonzero"></path>
    </g>
</svg>