<?xml version="1.0" encoding="UTF-8"?>
<svg width="154.545455px" height="110px" viewBox="0 0 154.545455 110" version="1.1" xmlns="http://www.w3.org/2000/svg" xmlns:xlink="http://www.w3.org/1999/xlink">
    <title>kuvitukset_image5</title>
    <g id="kuvitukset_image5" stroke="none" stroke-width="1" fill="none" fill-rule="evenodd">
        <path d="M52.7538305,38.1818182 C56.7753876,38.1846713 60.6823108,36.8416352 63.8526158,34.3665175 L63.0080838,34.3174637 C60.3709645,34.1430502 59.2485542,33.908682 59.1068907,32.9276058 C58.9434329,31.7721162 60.1966095,31.4014874 63.2805135,30.507618 L64.4519611,30.1642414 L64.8715029,30.0388816 C66.7785106,29.4556864 67.9172667,28.9814996 68.2441824,28.6381229 C68.571098,28.2947463 68.9089108,27.9186671 69.2358264,27.5480383 L69.2358264,27.5480383 C72.0786839,21.3984707 71.2550042,14.1761902 67.10054,8.82518233 C62.9460759,3.47417449 56.1547498,0.888221166 49.4948794,2.12142282 C42.835009,3.35462447 37.418996,8.20099873 35.4545455,14.68504 C36.2435408,14.0542625 37.2233154,13.7102654 38.2333282,13.7094142 C40.0129793,13.7218925 41.6248492,14.762843 42.3688109,16.3801215 C44.0244467,16.5584029 45.4573753,17.6110957 46.1228919,19.1380356 C47.6666237,19.8158666 48.5214889,21.4857256 48.1690554,23.1349286 C47.8166219,24.7841316 46.3539676,25.9584058 44.6681174,25.9456139 L35.6234519,25.9456139 C38.1445964,33.2584739 45.0209097,38.1702125 52.7538305,38.1818182 Z" id="Path"></path>
        <polygon id="Path" fill="#000000" fill-rule="nonzero" points="38.1818182 70 39.7029115 73.6363636 41.8181818 73.6363636 40.2970885 70"></polygon>
        <path d="M30.1476838,58.1896057 L33.6230563,49.0767144 L40.9169808,68.1980462 L30.5072051,68.1980462 L31.3406408,70 L40.9169808,70 C41.1363143,70 41.3539352,69.9615276 41.5597613,69.8860207 C42.4923598,69.529107 42.9616715,68.4896987 42.6110887,67.5575929 L35.3008224,48.4362611 C35.1240309,47.9713206 34.7622941,47.599823 34.3012245,47.4096909 C33.8401549,47.2195587 33.32073,47.2276901 32.8658827,47.4321605 C32.4267022,47.6254353 32.0847787,47.9876584 31.9180538,48.4362611 L29.0909091,55.8828882 L30.1476838,58.1896057 Z" id="Path" fill="#000000" fill-rule="nonzero"></path>
        <path d="M8.69979538,80.713815 L14.5454545,67.2727273 L12.6197018,67.2727273 L6.36363636,81.6072977 L6.57936276,81.8181818 C7.15413839,81.2175845 7.89824765,80.8300365 8.69979538,80.713815 Z" id="Path" fill="#000000" fill-rule="nonzero"></path>
        <path d="M32.430622,76.3636364 L32.430622,76.1890278 C32.4316822,75.4215111 32.9093083,74.7320717 33.6363636,74.448575 L31.8162679,70.5677594 L30.937799,68.6977583 L30.2832536,67.2727273 L28.1818182,67.2727273 L32.430622,76.3636364 Z" id="Path" fill="#000000" fill-rule="nonzero"></path>
        <path d="M14.6881327,66.347555 L30.9325329,66.347555 C31.6838157,66.3503751 32.3564733,65.8853773 32.6152198,65.1843396 C32.7814951,64.7416361 32.7620656,64.2511284 32.5612875,63.822788 L29.7837755,57.8030142 L28.7374894,55.5248274 L21.6292161,40.1296447 L21.6292161,40.1296447 C21.3360526,39.4965347 20.698972,39.0909091 19.9977649,39.0909091 C19.2965577,39.0909091 18.6594771,39.4965347 18.3663136,40.1296447 L7.43424221,63.8388693 C7.18228359,64.38876 7.22731253,65.0280108 7.5539041,65.5376423 C7.88049568,66.0472739 8.44431045,66.3580966 9.05221035,66.3636364 L14.6881327,66.3636364 L14.6881327,66.347555 Z M20.0004615,40.8747458 L30.9325329,64.5839704 L9.06299681,64.5839704 L20.0004615,40.8747458 Z" id="Shape" fill="#000000" fill-rule="nonzero"></path>
        <path d="M35.1946432,14.4721596 C37.1759179,8.01958868 42.6383153,3.19673633 49.3552229,1.96952004 C56.0721306,0.74230374 62.9216197,3.31570612 67.111664,8.64074281 C71.3017082,13.9657795 72.1324422,21.1530066 69.2652376,27.2727273 L69.5015336,27.0123767 C70.3215871,26.0819384 71.2165707,25.218518 72.1777239,24.4305673 C72.5451862,22.9188309 72.7296504,21.3694042 72.7272727,19.8147694 C72.7130128,9.40961102 64.5572904,0.782893555 54.0415513,0.0499670808 C43.5258122,-0.682959394 34.2227969,6.72691816 32.7272727,17.0268492 C32.9911315,16.9479424 33.2614042,16.8916855 33.5350755,16.8587061 C33.8236546,15.9123433 34.4037077,15.0781961 35.1946432,14.4721596 Z" id="Path" fill="#000000" fill-rule="nonzero"></path>
        <path d="M52.6398224,38.2432123 C44.9228915,38.2319493 38.0607969,33.4633632 35.5448655,26.3636364 L33.6363636,26.3636364 C35.6681448,32.7691023 40.9633675,37.693841 47.6306078,39.3787632 C54.297848,41.0636855 61.3861593,39.2684713 66.3636364,34.6343612 C65.3631681,34.6079033 64.4823211,34.5761539 63.715658,34.5338213 C60.5526162,36.9386972 56.6537055,38.2444754 52.6398224,38.2432123 Z" id="Path" fill="#000000" fill-rule="nonzero"></path>
        <path d="M24.9085159,25.2859936 C26.5733087,25.3913248 29.2047553,25.4492569 32.9210024,25.4545345 L44.6712171,25.4545345 C46.3270153,25.4586111 47.7593776,24.3246863 48.104544,22.7365419 C48.4497104,21.1483974 47.6133091,19.5402472 46.0997167,18.881857 C45.4437634,17.4064266 44.0314254,16.3892451 42.3995805,16.2169779 C41.6663093,14.6542562 40.0776015,13.648421 38.3235234,13.6363636 C37.3280241,13.6371861 36.3623285,13.9695789 35.5846708,14.5790778 C34.8157011,15.1690684 34.2527078,15.9788413 33.973581,16.8963641 C33.7061327,16.9283864 33.4420058,16.9830107 33.184147,17.0596274 C31.6750929,17.5230847 30.4989974,18.7817924 29.3551237,20.0141674 C29.1027196,20.2880285 28.8503155,20.5408233 28.5871709,20.8252176 C28.2219905,21.2096764 26.1597956,21.7942645 25.053514,22.1102581 C22.738915,22.7685781 21.6863363,23.068772 21.8313344,24.0904845 C21.9763325,25.0226656 23.0933547,25.1648627 24.9085159,25.2859936 Z M30.7084391,21.1991433 C31.9919406,19.8193047 33.0982222,18.6290622 34.4300565,18.6290622 L34.6448684,18.6290622 L35.5094866,18.7133271 L35.6168926,17.865411 C35.7595311,16.4790343 36.9300402,15.4123236 38.3503749,15.3743283 C39.5628333,15.4105707 40.6109445,16.2145228 40.9388591,17.3598213 L41.1429305,18.0023416 L41.9860675,17.9444094 C43.1764816,17.9684602 44.2192969,18.7328168 44.579922,19.8456375 L44.7302904,20.2774954 L45.1706549,20.4038928 C45.9931974,20.6409988 46.5117132,21.4363769 46.3859241,22.2680566 C46.260135,23.0997362 45.5285253,23.7132709 44.6712171,23.7060892 L32.9424836,23.7060892 C29.8223397,23.7060892 27.6903309,23.6586266 26.2349798,23.6006945 C28.0608815,23.0740385 29.3121613,22.6369141 29.8921536,22.0207266 C30.1714092,21.7573986 30.4238132,21.4730044 30.7084391,21.1991433 Z" id="Shape" fill="#000000" fill-rule="nonzero"></path>
        <path d="M96.7254829,11.6443075 C98.3895681,11.7549548 101.033794,11.8129129 104.760483,11.8181818 L116.527558,11.8181818 C118.16682,11.8002911 119.575272,10.674987 119.920791,9.10710682 C120.266311,7.53922665 119.456932,5.94608356 117.970842,5.26891744 C117.318555,3.79077577 115.902239,2.77165297 114.265695,2.60284522 C113.536675,1.0311983 111.942183,0.0158580169 110.178184,0 C108.148137,0.0287053734 106.377494,1.35633987 105.821405,3.26672881 C103.914977,3.46167876 102.530932,4.94751348 101.18997,6.38592794 C100.936857,6.65464273 100.683744,6.91281968 100.425245,7.19734122 C100.053653,7.57670328 97.9910493,8.16682203 96.8816592,8.48295708 C94.5605565,9.14157176 93.4996349,9.44190005 93.6504258,10.46407 C93.7850605,11.3861306 94.899836,11.5283914 96.7254829,11.6443075 Z M107.437022,4.21513395 C107.580061,2.82813659 108.753859,1.76094825 110.178184,1.722936 C111.396722,1.74561976 112.457948,2.54248476 112.795484,3.68824221 L113.005514,4.33105014 L113.834864,4.29416771 C115.030058,4.31760108 116.077704,5.08210696 116.441392,6.19624691 L116.586797,6.62302922 L117.033785,6.75475216 C117.85657,6.99147693 118.376228,7.78410686 118.253047,8.61448315 C118.129866,9.44485943 117.401337,10.060251 116.543714,10.0583677 L104.782025,10.0583677 C101.647728,10.0583677 99.509729,10.0109431 98.055674,9.95298504 C99.8813208,9.4260933 101.136116,8.98877315 101.723124,8.37230981 C101.992393,8.09832611 102.261663,7.81380456 102.514776,7.53455194 C103.796499,6.15936449 104.911274,4.96858915 106.241465,4.96858915 C106.314963,4.96321376 106.388768,4.96321376 106.462266,4.96858915" id="Shape" fill="#000000" fill-rule="nonzero"></path>
        <path d="M69.516001,27.455921 L69.2807069,27.7110166 L69.2807069,27.7110166 C68.9523896,28.0564587 68.6240723,28.4125297 68.284811,28.7739152 C67.9455498,29.1353007 66.812855,29.5710892 64.8976706,30.1397399 L64.47633,30.2619732 L63.2998596,30.5967863 C60.2191487,31.4683631 58.9222952,31.8297487 59.1083417,32.9564212 C59.2506126,33.9130299 60.3778354,34.1415531 63.0262618,34.3116169 L63.8744149,34.3594473 C64.6459607,34.4019632 65.5160016,34.4338502 66.5392572,34.4604227 C68.5419929,34.5135676 71.0207888,34.5401401 74.0358362,34.5454545 L90.0139462,34.5454545 C92.1836573,34.53798 94.0456741,33.0427359 94.4609487,30.974405 C94.8762233,28.9060741 93.7290539,26.8409244 91.7211963,26.0422658 C90.8362194,24.1249666 88.9516641,22.8234023 86.7964364,22.6409904 C85.8966229,20.5044534 83.76139,19.1037547 81.3846724,19.0909091 C78.6605684,19.124852 76.3077372,20.9503258 75.6719509,23.5231962 C74.3880753,23.6391407 73.1716016,24.1343557 72.1863153,24.9421658 C71.2279951,25.7089109 70.3349884,26.5495611 69.516001,27.455921 L69.516001,27.455921 Z M70.8621021,28.6463674 C72.7280389,26.6640615 74.183579,25.2610354 76.0057402,25.2610354 C76.1114574,25.2556042 76.2173964,25.2556042 76.3231136,25.2610354 L77.2150424,25.3460673 L77.3190095,24.4851194 C77.5259777,22.4446528 79.2686514,20.8753025 81.3792005,20.8287483 C83.20055,20.852452 84.7885018,22.0378048 85.2807047,23.7410904 L85.4831671,24.3894585 L86.3860397,24.3628861 C88.1135689,24.3709157 89.6483082,25.4356122 90.2164085,27.0201325 L90.3750953,27.4399775 L90.8128517,27.5622108 C92.1013505,27.945833 92.9103128,29.1836185 92.7193399,30.4793105 C92.528367,31.7750025 91.3943439,32.7426548 90.0467779,32.7597849 L74.0358362,32.7597849 C68.2629232,32.7597849 64.8812547,32.6534951 62.9387105,32.5259472 L63.7978076,32.2814806 L64.9906938,31.941353 L65.4120344,31.8138052 C67.797807,31.1069776 69.0071092,30.5755283 69.5926084,29.9749906 C69.9428135,29.6189196 70.2820748,29.2575341 70.6158641,28.912092 L70.8621021,28.6463674 Z" id="Shape" fill="#000000" fill-rule="nonzero"></path>
        <path d="M104.721818,82.268155 C105.099335,81.9171954 105.608893,81.7201863 106.14,81.7198466 C107.267547,81.7198429 108.182448,82.5770721 108.185455,83.6363636 C108.183639,82.7844672 108.504609,81.9597713 109.090909,81.3098965 C108.436447,80.5615673 107.487693,80.0936688 106.460387,80.0125985 C105.433081,79.9315283 104.414536,80.2441765 103.636364,80.8794488 C104.109464,81.2556528 104.481365,81.7314546 104.721818,82.268155 Z" id="Path" fill="#000000" fill-rule="nonzero"></path>
        <rect id="Rectangle" fill="#000000" fill-rule="nonzero" x="104.545455" y="103.636364" width="2.72727273" height="1.81818182"></rect>
        <path d="M120.842654,83.6363636 C120.842654,82.5772514 121.687556,81.7186713 122.729796,81.7186713 C123.772035,81.7186713 124.616937,82.5772514 124.616937,83.6363636 C124.615258,82.7839448 124.912177,81.9587432 125.454545,81.3084697 C124.783606,80.4800034 123.783124,80 122.727273,80 C121.671422,80 120.67094,80.4800034 120,81.3084697 C120.54419,81.9580197 120.842925,82.7832961 120.842654,83.6363636 L120.842654,83.6363636 Z" id="Path" fill="#000000" fill-rule="nonzero"></path>
        <path d="M108.181818,83.7865455 L108.181818,104.545455 L113.462844,104.545455 L113.462844,102.762744 L109.935119,102.762744 L109.935119,83.7865455 C109.931894,82.8846439 110.521938,82.0918001 111.376447,81.8498281 C112.230955,81.6078562 113.139123,81.9764505 113.59487,82.7502109 C113.766771,82.1266321 114.094215,81.5587911 114.545455,81.1017409 C113.476643,80.0233102 111.875325,79.7032143 110.48454,80.2899834 C109.093755,80.8767525 108.185735,82.2555329 108.181818,83.7865455 L108.181818,83.7865455 Z" id="Path" fill="#000000" fill-rule="nonzero"></path>
        <path d="M92.7272727,92.7272727 L92.7272727,85.4545455 C92.2501618,86.0255544 91.623496,86.4693687 90.9090909,86.7422096 L90.9090909,92.7272727 L92.7272727,92.7272727 Z" id="Path" fill="#000000" fill-rule="nonzero"></path>
        <path d="M95.4545455,81.626936 C96.4952335,81.6589311 97.3236676,82.548441 97.326001,83.6363636 C97.3242852,82.7407736 97.6276588,81.8737792 98.1818182,81.1905724 C97.7338271,80.628678 97.1391409,80.2150283 96.4701839,80 L95.4545455,81.626936 Z" id="Path" fill="#000000" fill-rule="nonzero"></path>
        <path d="M125.454545,83.9053646 L125.454545,98.1818182 C126.029228,97.9633145 126.614484,97.7771616 127.207846,97.6241442 L127.207846,83.9053646 C127.204621,82.9686726 127.794665,82.1452451 128.649174,81.8939392 C129.503683,81.6426333 130.41185,82.025446 130.867597,82.8290538 C131.041899,82.1825008 131.369007,81.5933599 131.818182,81.1169948 C130.747124,80.0165227 129.157863,79.6964465 127.778434,80.3033925 C126.399006,80.9103384 125.495162,82.3273766 125.480951,83.9053646 L125.454545,83.9053646 Z" id="Path" fill="#000000" fill-rule="nonzero"></path>
        <rect id="Rectangle" fill="#000000" fill-rule="nonzero" x="85.4545455" y="90.9090909" width="1.81818182" height="1.81818182"></rect>
        <path d="M113.780479,82.7696059 C113.685101,83.1057652 113.636567,83.4544669 113.636364,83.8050183 L113.636364,104.545455 L114.71723,104.545455 L116.966463,102.764331 L115.35031,102.764331 L115.35031,83.8050183 C115.35031,82.6968883 116.212149,81.7985715 117.275282,81.7985715 C118.338415,81.7985715 119.200254,82.6968883 119.200254,83.8050183 L119.200254,100.972477 L120.394355,100.028267 C120.564205,99.8941462 120.739203,99.7653902 120.909091,99.6366343 L120.909091,83.8050183 C120.917286,81.908547 119.578578,80.2980681 117.776485,80.0365062 C115.974391,79.7749442 114.264493,80.9429382 113.775332,82.7696059 L113.780479,82.7696059 Z" id="Path" fill="#000000" fill-rule="nonzero"></path>
        <path d="M97.3137871,83.7882973 L97.3137871,93.1252596 C97.9254165,93.4045198 98.4998995,93.7654653 99.0229037,94.1990909 L99.0229037,83.7882973 C99.0229038,82.679274 99.8823148,81.7802331 100.942452,81.7802331 C102.002589,81.7802331 102.862,82.679274 102.862,83.7882973 L102.862,102.762895 L101.891961,102.762895 C101.78782,103.375963 101.61557,103.974205 101.378713,104.545455 L104.545455,104.545455 L104.545455,83.7882973 C104.5435,83.2966152 104.451148,82.809917 104.273433,82.3547326 C104.045706,81.7918442 103.693971,81.2932654 103.246937,80.8996913 C102.1696,79.9449138 100.660657,79.7305909 99.3789687,80.3503037 C98.0972799,80.9700165 97.275609,82.3112205 97.2727273,83.7882973 L97.3137871,83.7882973 Z" id="Path" fill="#000000" fill-rule="nonzero"></path>
        <path d="M131.048059,82.8415645 C130.956932,83.1872976 130.910181,83.5446751 130.909091,83.9038784 L130.909091,96.8663102 C131.475259,96.8663102 132.046575,96.8663102 132.61789,96.8663102 L132.61789,83.9038784 C132.61789,82.7669576 133.479729,81.8453011 134.542862,81.8453011 C135.605995,81.8453011 136.467834,82.7669576 136.467834,83.9038784 L136.467834,97.5488332 C137.049362,97.7267697 137.621506,97.9380707 138.181818,98.1818182 L138.181818,83.9038784 C138.190013,81.9581339 136.851305,80.3058123 135.049212,80.0374546 C133.247119,79.7690969 131.537221,80.9674372 131.048059,82.8415645 L131.048059,82.8415645 Z" id="Path" fill="#000000" fill-rule="nonzero"></path>
        <path d="M5.27046431,102.763348 L1.75330205,102.763348 L1.75330205,83.7935696 C1.75007735,82.8919732 2.3401209,82.0993976 3.19462941,81.8575076 C4.04913792,81.6156175 4.95730489,81.9840871 5.41305197,82.7575856 C5.58735361,82.1352574 5.91446153,81.5681903 6.36363636,81.1096734 L6.14711436,80.9056973 C5.03989922,79.9463557 3.48480419,79.7292826 2.1641418,80.349721 C0.843479422,80.9701593 -0.00147823392,82.3147611 0,83.7935696 L0,104.545455 L5.28102636,104.545455 L5.27046431,102.763348 Z" id="Path" fill="#000000" fill-rule="nonzero"></path>
        <path d="M37.7111717,103.636364 L36.3636364,103.636364 L36.3636364,105.454545 L38.1818182,105.454545 C37.9639257,104.869846 37.8060564,104.259972 37.7111717,103.636364 L37.7111717,103.636364 Z" id="Path" fill="#000000" fill-rule="nonzero"></path>
        <path d="M21.0167119,80 C19.9209905,79.9980139 18.8815138,80.4751525 18.1818182,81.301283 C18.7461113,81.9535639 19.0550327,82.7813132 19.0532855,83.6363636 C19.0500799,82.7724656 19.6366351,82.0130299 20.4860918,81.7812539 C21.3355484,81.549478 22.2383464,81.9025408 22.6913991,82.6436972 C22.8622842,82.0463942 23.1877918,81.5024803 23.6363636,81.0646889 C22.9437351,80.3806715 22.0001619,79.9971865 21.0167119,80 L21.0167119,80 Z" id="Path" fill="#000000" fill-rule="nonzero"></path>
        <rect id="Rectangle" fill="#000000" fill-rule="nonzero" x="19.0909091" y="103.636364" width="3.63636364" height="1.81818182"></rect>
        <path d="M10.9659547,102.763453 L7.14879347,102.763453 L7.14879347,83.7948035 C7.14879347,82.6861278 8.00329411,81.7873685 9.05737406,81.7873685 C10.111454,81.7873685 10.9659547,82.6861278 10.9659547,83.7948035 C10.9656808,82.9018148 11.2678093,82.0379178 11.8181818,81.3579707 C11.1337821,80.4986359 10.1231689,80.0015411 9.05737406,80 C8.8865988,80.0034252 8.71617936,80.0177649 8.54705839,80.0429398 C7.135246,80.247289 5.97398634,81.3147014 5.59233068,82.7588812 C5.50197897,83.0960251 5.45562608,83.444524 5.45454545,83.7948035 L5.45454545,104.545455 L10.9659547,104.545455 L10.9659547,102.763453 Z" id="Path" fill="#000000" fill-rule="nonzero"></path>
        <path d="M40,90.9090909 L40,96.3636364 C40.5226532,95.7147295 41.1352426,95.1481001 41.8181818,94.6818649 L41.8181818,90.9371204 L40,90.9090909 Z" id="Path" fill="#000000" fill-rule="nonzero"></path>
        <path d="M28.2437851,102.765409 L24.4266239,102.765409 L24.4266239,83.8175729 C24.4266239,82.7101137 25.2811245,81.8123407 26.3352045,81.8123407 C27.3892844,81.8123407 28.2437851,82.7101137 28.2437851,83.8175729 C28.2420867,82.9262423 28.5423787,82.0633715 29.0909091,81.383414 C28.2437164,80.290315 26.8849719,79.7881624 25.5729949,80.083295 C24.261018,80.3784276 23.2170867,81.4210683 22.8701611,82.7827873 C22.7755955,83.1187431 22.7274741,83.4672337 22.7272727,83.8175729 L22.7272727,104.545455 L28.2437851,104.545455 L28.2437851,102.765409 Z" id="Path" fill="#000000" fill-rule="nonzero"></path>
        <path d="M19.0909091,102.763453 L19.0909091,83.7948035 C19.0909091,81.6989914 17.4628536,80 15.4545455,80 C13.4462373,80 11.8181818,81.6989914 11.8181818,83.7948035 L11.8181818,104.545455 L19.0909091,104.545455 L19.0909091,102.763453 Z M13.5309245,83.7948035 C13.5309245,83.077616 13.8975646,82.4149075 14.492735,82.0563138 C15.0879054,81.69772 15.8211855,81.69772 16.4163559,82.0563138 C17.0115263,82.4149075 17.3781664,83.077616 17.3781664,83.7948035 L17.3781664,102.763453 L13.5309245,102.763453 L13.5309245,83.7948035 Z" id="Shape" fill="#000000" fill-rule="nonzero"></path>
        <path d="M44.5454545,90 L44.5454545,92.7272727 C44.8500153,92.6865232 45.156264,92.6651009 45.462835,92.6631016 L46.3636364,92.6631016 L46.3636364,90 L44.5454545,90 Z" id="Path" fill="#000000" fill-rule="nonzero"></path>
        <path d="M36.3636364,102.74997 L36.3636364,90.2353363 L34.6524076,90.2353363 L34.6524076,102.74997 L30.7918341,102.74997 L30.7918341,83.7522399 C30.7952652,82.8610661 31.3622406,82.0791973 32.1834961,81.8331143 L32.1834961,80 C30.4023985,80.2844101 29.0879992,81.8837445 29.0909091,83.7629913 L29.0909091,104.545455 L36.3636364,104.545455 L36.3636364,102.74997 Z" id="Path" fill="#000000" fill-rule="nonzero"></path>
        <rect id="Rectangle" fill="#000000" fill-rule="nonzero" x="80.9090909" y="90.9090909" width="1.81818182" height="1.81818182"></rect>
        <rect id="Rectangle" fill="#000000" fill-rule="nonzero" x="50.9090909" y="90.9090909" width="1.81818182" height="1.81818182"></rect>
        <path d="M88.6032842,79.0909091 L109.090909,47.5303223 C108.884585,47.0514073 108.758815,46.5415429 108.718705,46.0214277 C108.683798,45.5252491 108.730021,45.0266869 108.855545,44.5454545 L88.1818182,76.4023334 L88.6032842,79.0909091 Z" id="Path" fill="#000000" fill-rule="nonzero"></path>
        <path d="M112.237008,51.8181818 L91.5384308,84.21317 C91.0001793,85.0425274 90.0645088,85.5116485 89.0909091,85.4402946 L89.3772637,87.2727273 C89.93386,87.2594043 90.4832989,87.141889 90.998139,86.9260508 C91.7050746,86.6345561 92.3251882,86.1603987 92.7973105,85.5503506 C92.8910184,85.4386905 92.9776408,85.3210588 93.0566506,85.1981714 L94.8774338,82.3477206 L95.9580173,80.6968803 L113.636364,53.0232952 L112.237008,51.8181818 Z" id="Path" fill="#000000" fill-rule="nonzero"></path>
        <path d="M128.658933,63.6816876 L110.894748,48.318716 C109.787844,47.3446227 109.669929,45.6650333 110.629934,44.5466781 C111.606874,43.4429996 113.291373,43.3254284 114.412997,44.2826354 L131.885346,59.4031189 C132.101409,59.2517377 132.325081,59.1114509 132.555488,58.9828061 C132.90141,58.7983994 133.263134,58.6451148 133.636364,58.5247729 L115.623577,42.9139245 C114.250769,41.7273366 112.296678,41.4810893 110.670955,42.2898132 C109.045233,43.0985372 108.067365,44.8033019 108.19256,46.6105217 C108.232162,47.1213222 108.356342,47.6220555 108.560057,48.0923937 C108.826421,48.6987799 109.225243,49.2381978 109.727403,49.671261 L112.429591,52.0153132 L113.802302,53.2008108 L127.961768,65.4545455 C128.188752,64.8402421 128.404927,64.2474933 128.658933,63.6816876 Z" id="Path" fill="#000000" fill-rule="nonzero"></path>
        <path d="M114.540599,46.2341514 C114.504989,45.7540339 114.280929,45.307541 113.917381,44.9922402 C113.160443,44.333876 112.01401,44.412157 111.353443,45.1673114 C110.887389,45.7058683 110.77779,46.466883 111.07291,47.1152285 C111.36803,47.7635739 112.013711,48.1802705 112.725615,48.1818182 L112.851352,48.1818182 C113.333032,48.1520021 113.782368,47.9291355 114.097786,47.5635981 C114.416605,47.1972579 114.576016,46.7186599 114.540599,46.2341514 L114.540599,46.2341514 Z M113.408967,46.9617909 C113.164092,47.2353671 112.779326,47.3356028 112.432241,47.2162388 C112.085156,47.0968749 111.843234,46.7811189 111.818123,46.4146935 C111.798585,46.1738997 111.876902,45.9353953 112.035357,45.7531373 C112.193811,45.5708792 112.419012,45.4602694 112.660013,45.4463311 L112.725615,45.4463311 C112.944437,45.4485605 113.155454,45.5279943 113.321498,45.670641 C113.504178,45.8290771 113.616143,46.0539057 113.632564,46.2952654 C113.648984,46.5366251 113.568503,46.7745664 113.408967,46.95632 L113.408967,46.9617909 Z" id="Shape" fill="#000000" fill-rule="nonzero"></path>
        <path d="M89.2340383,83.6254409 C89.8764,83.5795887 90.445673,83.1921512 90.7274177,82.6090724 C91.0091624,82.0259936 90.9605751,81.335857 90.5999581,80.7986304 C90.2393411,80.2614038 89.6214807,79.9587047 88.979119,80.0045569 C88.6965648,80.0275292 88.4233883,80.1173472 88.1818182,80.2667024 L88.3499565,81.3262069 C88.3721638,81.2894208 88.3975749,81.2546955 88.4258899,81.222441 C88.5818825,81.038977 88.8048472,80.9267229 89.0442048,80.9111432 L89.1092906,80.9111432 C89.326391,80.9133688 89.5357483,80.992663 89.7004865,81.1350591 C90.0722836,81.4673923 90.1108982,82.0384703 89.7872675,82.4184795 C89.6283586,82.5981467 89.4070434,82.7095704 89.1689526,82.7297773 C88.94145,82.7445456 88.7167831,82.6723885 88.53979,82.5277068 L88.7079283,83.5872113 C88.8374059,83.6198861 88.9703846,83.6363636 89.1038668,83.6363636 L89.2340383,83.6254409 Z" id="Path" fill="#000000" fill-rule="nonzero"></path>
        <path d="M128.179433,60.9090909 L128.305011,60.9090909 C128.785441,60.8769002 129.233336,60.6547028 129.54988,60.2915203 C130.090676,59.6731341 130.150325,58.7686877 129.695435,58.0845078 C129.240546,57.4003279 128.384005,57.1062051 127.605322,57.366795 C126.826639,57.627385 126.319057,58.3780179 126.366729,59.198475 C126.42444,60.1585618 127.218539,60.9079388 128.179433,60.9090909 L128.179433,60.9090909 Z M127.491479,58.5098565 C127.648511,58.3262628 127.872961,58.2139293 128.113913,58.1983386 L128.179433,58.1983386 C128.397979,58.2005657 128.608731,58.279916 128.774567,58.4224129 C128.954188,58.582535 129.065583,58.8055399 129.085784,59.0454487 C129.11709,59.5468672 128.739974,59.9803613 128.239492,60.018259 C127.998986,60.0347425 127.761828,59.9546411 127.580469,59.79567 C127.39911,59.6366989 127.288492,59.4119573 127.273081,59.1711489 C127.253842,58.9302612 127.332595,58.6918036 127.491479,58.5098565 L127.491479,58.5098565 Z" id="Shape" fill="#000000" fill-rule="nonzero"></path>
        <path d="M154.390026,74.9841896 C150.579004,65.2753275 146.639159,59.8134023 142.334315,58.2946668 C139.113733,57.1569958 136.515797,56.9637022 134.422419,57.7423993 C134.051727,57.8657348 133.692462,58.0228327 133.348892,58.2118267 C133.120051,58.3436717 132.897899,58.4874483 132.683305,58.6425953 C131.23594,59.7832019 130.121704,61.3117621 129.462723,63.060735 C129.210444,63.6130025 128.979636,64.2481101 128.770298,64.877695 C128.319416,66.2362729 127.938314,67.694259 127.578683,69.1909039 L127.272727,70.4721644 L128.544857,70.3230522 C132.801393,69.8315341 140.46101,72.3940552 151.319738,77.9443432 C151.62934,78.0988435 151.968659,78.1799903 152.312751,78.1818182 C153.054163,78.1818182 153.747185,77.8030258 154.16241,77.1710532 C154.577634,76.5390806 154.660906,75.7362692 154.384658,75.028371 L154.390026,74.9841896 Z M152.731426,76.0224524 C152.684284,76.1343562 152.595264,76.2219649 152.484515,76.2654501 C152.368149,76.3177035 152.235882,76.3177035 152.119516,76.2654501 C141.781448,70.9802504 134.406316,68.3956387 129.65059,68.3956387 L129.618384,68.3956387 C130.557721,64.6954467 131.765439,61.1830256 134.223816,59.8078796 C136.016607,58.8082755 138.480352,58.8800703 141.738507,60.039832 C145.469014,61.3597512 149.161948,66.6228602 152.715324,75.6800466 C152.764669,75.7874536 152.770463,75.9106453 152.731426,76.0224524 Z" id="Shape" fill="#000000" fill-rule="nonzero"></path>
        <path d="M101.692437,103.196822 C101.772962,102.745844 101.815028,102.288846 101.818182,101.830754 L101.818182,100.923684 C101.818182,96.3969311 98.1465762,92.7272727 93.617421,92.7272727 L45.4516194,92.7272727 C45.1483332,92.7289752 44.8453659,92.7472166 44.5440685,92.7819155 C43.2391176,92.9388362 41.9916385,93.4094395 40.9083979,94.1534483 C40.224562,94.6079042 39.6111684,95.160218 39.087829,95.7927306 C37.9134268,97.2452083 37.2727273,99.0562126 37.2727273,100.923684 L37.2727273,101.830754 C37.2740496,102.288692 37.3142869,102.745691 37.3930051,103.196822 C37.506515,103.820134 37.6899102,104.428683 37.9397225,105.010961 C39.2218067,108.024359 42.1753784,109.985917 45.4516194,109.999922 L93.6338226,109.999922 C97.6307112,110.017288 101.047376,107.128332 101.692437,103.185894 L101.692437,103.196822 Z M93.6338226,108.191169 L45.4516194,108.191169 C41.9382444,108.188156 39.0908435,105.342265 39.087829,101.830754 L39.087829,100.923684 C39.0908435,97.4121725 41.9382444,94.5662817 45.4516194,94.5632689 L93.6338226,94.5632689 C97.1471975,94.5662817 99.9945984,97.4121725 99.9976129,100.923684 L99.9976129,101.830754 C99.9945984,105.342265 97.1471975,108.188156 93.6338226,108.191169 L93.6338226,108.191169 Z" id="Shape" fill="#000000" fill-rule="nonzero"></path>
        <path d="M50,101.363636 C50,99.1042897 48.1684376,97.2727273 45.9090909,97.2727273 C43.6497442,97.2727273 41.8181818,99.1042897 41.8181818,101.363636 C41.8181818,103.622983 43.6497442,105.454545 45.9090909,105.454545 C48.1684376,105.454545 50,103.622983 50,101.363636 L50,101.363636 Z M43.1127685,101.363636 C43.110679,100.229597 43.7924728,99.206155 44.839789,98.771209 C45.8871051,98.3362631 47.0933332,98.5756179 47.8952213,99.377506 C48.6971094,100.179394 48.9364642,101.385622 48.5015183,102.432938 C48.0665723,103.480254 47.04313,104.162048 45.9090909,104.159959 C45.1674614,104.159959 44.456207,103.865343 43.9317958,103.340932 C43.4073845,102.81652 43.1127685,102.105266 43.1127685,101.363636 L43.1127685,101.363636 Z" id="Shape" fill="#000000" fill-rule="nonzero"></path>
        <path d="M97.2727273,101.363636 C97.2727273,99.1042897 95.4411649,97.2727273 93.1818182,97.2727273 C90.9224715,97.2727273 89.0909091,99.1042897 89.0909091,101.363636 C89.0909091,103.622983 90.9224715,105.454545 93.1818182,105.454545 C94.2667947,105.454545 95.3073335,105.02354 96.0745277,104.256346 C96.841722,103.489152 97.2727273,102.448613 97.2727273,101.363636 L97.2727273,101.363636 Z M90.3855006,101.363636 C90.3855006,99.8192728 91.6374546,98.5673188 93.1818182,98.5673188 C94.7261818,98.5673188 95.9781358,99.8192728 95.9781358,101.363636 C95.9781358,102.908 94.7261818,104.159954 93.1818182,104.159954 C91.6374546,104.159954 90.3855006,102.908 90.3855006,101.363636 L90.3855006,101.363636 Z" id="Shape" fill="#000000" fill-rule="nonzero"></path>
        <path d="M39.903622,74.087032 L33.6368581,74.087032 C32.6327941,74.0930281 31.8211701,74.9054757 31.8181818,75.9075538 L31.8181818,89.0885691 C31.8181818,90.0918844 32.6315455,90.906078 33.6368581,90.9090909 L88.1807119,90.9090909 C88.2762787,90.9082628 88.3715909,90.8991164 88.4655648,90.8817557 C88.9421607,90.8064899 89.369251,90.5452878 89.6528147,90.1556515 C89.9363784,89.7660152 90.0531692,89.2798865 89.9774764,88.8042834 L89.7200132,87.1641737 L89.4461162,85.3491189 L89.2543882,84.1299707 L89.0845721,83.0693664 L88.8928442,81.8720862 L88.723028,80.8114819 L88.4984324,79.3955205 L88.076631,76.7166746 L84.5159697,54.2581053 C84.3776841,53.3729857 83.6113134,52.7220541 82.7137272,52.7273043 L55.3240246,52.7273043 C54.3187075,52.7273043 53.5028894,53.5390802 53.4998704,54.542391 L53.4998704,74.087032 L39.903622,74.087032 Z M82.6863375,54.542391 L88.1642781,89.0885691 L33.6368581,89.0885691 L33.6368581,75.9075538 L55.3240246,75.9075538 L55.3240246,54.542391 L82.6863375,54.542391 Z" id="Shape" fill="#000000" fill-rule="nonzero"></path>
        <path d="M60.8863613,80 L80.9328813,80 L81.1647265,80 C81.6376608,79.9360039 82.0662196,79.684314 82.3563029,79.3001946 C82.6456824,78.9193615 82.7737193,78.4374191 82.7121583,77.9607234 L80.296655,59.2518643 C80.1483671,58.1217465 79.1995858,57.2764381 78.0752547,57.2727273 L60.8863613,57.2727273 C59.8947604,57.2727273 59.0909091,58.087832 59.0909091,59.0933147 L59.0909091,78.1848798 C59.0938806,79.1882267 59.8968622,80 60.8863613,80 L60.8863613,80 Z M60.8863613,59.0933147 L78.0752547,59.0933147 C78.3001111,59.0936905 78.4906478,59.2612892 78.5227698,59.4869552 L80.9328813,78.1848798 L60.8863613,78.1848798 L60.8863613,59.0933147 L60.8863613,59.0933147 Z" id="Shape" fill="#000000" fill-rule="nonzero"></path>
        <path d="M136.819565,97.0558653 C135.488081,96.6689278 134.118813,96.4367421 132.737284,96.3636364 C132.131491,96.3636364 131.525698,96.3636364 130.925363,96.3636364 C129.698794,96.4276797 128.481327,96.6161862 127.290605,96.9264241 C125.176731,97.488294 123.179525,98.4417763 121.396403,99.7403627 C121.210845,99.8754317 121.025287,100.010501 120.850644,100.151198 L119.584482,101.141704 L117.215886,103.004531 L114.830918,104.872987 L112.549643,106.623257 C111.920808,107.106549 111.663554,107.951304 111.911563,108.718545 C112.159572,109.485787 112.856892,110.002423 113.641162,109.999991 L149.999655,109.999991 C150.567652,109.99824 151.102399,109.723565 151.445917,109.257103 C151.74,108.863636 151.867882,108.364554 151.800661,107.872645 C151.735405,107.381031 151.484293,106.935966 151.102089,106.634512 L142.806546,100.128686 C141.005675,98.7285704 138.970825,97.681308 136.803192,97.0389816 L136.819565,97.0558653 Z M113.652077,108.142783 L121.942163,101.636957 C127.789015,97.0696107 135.868175,97.0696107 141.715027,101.636957 L150.01057,108.142783 L113.652077,108.142783 Z" id="Shape" fill="#000000" fill-rule="nonzero"></path>
    </g>
</svg>