<?xml version="1.0" encoding="UTF-8"?>
<svg width="165.44px" height="110px" viewBox="0 0 165.44 110" version="1.1" xmlns="http://www.w3.org/2000/svg" xmlns:xlink="http://www.w3.org/1999/xlink">
    <title>kuvitukset_image4</title>
    <g id="kuvitukset_image4" stroke="none" stroke-width="1" fill="none" fill-rule="evenodd">
        <path d="M165.439836,19.7355014 C165.455909,13.4999215 160.754419,8.25030089 154.525927,7.54936436 C152.65547,2.97355622 148.179064,-0.0137620371 143.213577,4.76763457e-05 C138.248089,0.0139534052 133.788603,3.02621003 131.943983,7.61238622 C129.793312,7.92821721 127.767976,8.81488609 126.081087,10.1790949 L126.081087,0.794566268 L38.2643373,0.794566268 L38.2643373,54.5980513 L32.5051066,54.5980513 L28.669459,45.8322828 L30.7255043,45.8322828 C30.9814618,45.8234522 31.2326637,45.7609785 31.4626858,45.6489465 C31.9166567,45.4485756 32.2726869,45.0779248 32.4532735,44.6176796 C32.6334165,44.1561389 32.6188826,43.6418376 32.4129589,43.1910937 L25.7668067,28.2319946 L28.5830705,28.2319946 C29.2217045,28.2366098 29.8189013,27.9179595 30.1683084,27.3861486 C30.5177155,26.8543377 30.5714104,26.182306 30.3108397,25.6022641 L19.9442245,2.62792962 L19.9442245,2.62792962 C19.6401997,1.95965267 18.9710997,1.53028089 18.233733,1.53028089 C17.4963663,1.53028089 16.8272662,1.95965267 16.5232415,2.62792962 L6.15662626,25.6022641 C6.0225899,25.8321867 5.94007784,26.0882065 5.91473858,26.3527972 C5.91473371,27.3820876 6.75181868,28.2173788 7.78648854,28.2205361 L9.51425775,28.2205361 L2.85082786,43.1910937 C2.73782022,43.4279086 2.67508364,43.6853502 2.66653248,43.9473561 C2.66184719,44.4496806 2.86076554,44.9327059 3.21837747,45.2873789 C3.57598939,45.6420518 4.06214293,45.8384682 4.5670786,45.8322828 L7.15297317,45.8322828 L0.155507901,61.8742121 C0.0521981199,62.1070124 -2.84217094e-14,62.3588118 -2.84217094e-14,62.6132867 C0.00318252184,63.6425723 0.842843136,64.4753012 1.87751787,64.4752963 L28.0877767,64.4752963 L28.0877767,73.2697112 L37.2219165,73.2697112 C37.3054484,75.5130892 38.4391111,77.588428 40.2858272,78.8786572 C36.161992,80.5567553 33.4659054,84.5470218 33.4611389,88.9793434 L33.4611389,100.437864 L52.1959163,100.437864 L52.1959163,110 L74.1385851,110 L74.1385851,100.409218 L90.2068387,100.409218 L90.2068387,110 L112.166785,110 L112.166785,100.409218 L131.44293,100.409218 L131.44293,88.9506971 C131.436599,84.5188512 128.741043,80.5293711 124.618242,78.8500108 C126.462907,77.5579639 127.595972,75.4837201 127.682153,73.2410649 L136.280684,73.2410649 L136.280684,64.4523793 L151.830607,64.4523793 L151.830607,62.8539156 L150.477188,62.8539156 C149.697989,62.8531559 148.961064,62.5013571 148.472975,61.8971291 C146.330542,59.5080275 145.455139,53.1542777 145.846766,42.9905696 C147.162083,43.4613365 148.549482,43.7017047 149.947339,43.7009979 C153.710667,43.6623606 157.250417,41.9168738 159.560068,38.9608622 C161.869719,36.0048506 162.696602,32.161695 161.805594,28.5241869 C164.14826,26.1950275 165.456852,23.0303163 165.439836,19.7355014 Z M40.4010119,2.92585116 L123.938653,2.92585116 L123.938653,54.5980513 L89.6309157,54.5980513 L82.7198388,51.0802854 L82.7198388,27.2465618 L83.796815,26.1751901 C84.0132043,26.2165673 84.2330174,26.2376669 84.4533673,26.238212 C86.030556,26.2404795 87.4405378,25.2605899 87.9810234,23.7866106 C88.521509,22.3126312 88.0769205,20.6597585 86.8687005,19.6512619 C85.6604805,18.6427653 83.9469953,18.4943023 82.5817043,19.2798198 C81.2164134,20.0653373 80.4912713,21.6168599 80.7674596,23.1615991 L77.2600882,26.6507187 C76.702375,27.185658 76.4784186,27.9784504 76.6743815,28.7240859 C76.8703445,29.4697214 77.4556944,30.0520253 78.2052304,30.2469685 C78.9547664,30.4419116 79.7517059,30.2191207 80.2894435,29.6643098 L81.6486219,28.3122043 L81.6486219,51.0802854 L74.7375451,54.5980513 L40.4010119,54.5980513 L40.4010119,2.92585116 Z M81.7926027,25.1439232 C82.0507021,25.3958582 82.3435168,25.609986 82.6622465,25.7798712 L79.5234658,28.9023181 C79.1038588,29.3151767 78.4283951,29.3151767 78.0087882,28.9023181 C77.8065507,28.7032354 77.6927556,28.4319563 77.6927556,28.1489204 C77.6927556,27.8658844 77.8065507,27.5946054 78.0087882,27.3955226 L81.1475689,24.2673464 C81.3145167,24.5917026 81.5322461,24.8875888 81.7926027,25.1439232 L81.7926027,25.1439232 Z M82.5470619,20.6235367 C83.5932307,19.5840483 85.2882946,19.5847164 86.333635,20.6250291 C87.3789754,21.6653419 87.3789754,23.351585 86.333635,24.3918977 C85.2882946,25.4322104 83.5932307,25.4328785 82.5470619,24.3933901 C82.0398587,23.8959575 81.7543045,23.2169998 81.7543045,22.5084634 C81.7543045,21.799927 82.0398587,21.1209694 82.5470619,20.6235367 Z M77.0873112,54.5980513 L82.1727119,52.0026963 L87.2581126,54.5980513 L77.0873112,54.5980513 Z M7.78648854,26.633531 C7.63924786,26.6304138 7.52153059,26.5107634 7.52156393,26.3642557 C7.51340467,26.3284243 7.51340467,26.2912312 7.52156393,26.2553998 L17.8881791,3.28679457 C17.9315144,3.18925682 18.0286284,3.12634889 18.1358261,3.12637528 C18.1718449,3.11825847 18.2092326,3.11825847 18.2452514,3.12637528 C18.3054284,3.15371144 18.352819,3.20290522 18.3777138,3.26387753 L28.744329,26.2324827 C28.7733673,26.297819 28.7751173,26.3719564 28.749194,26.4385766 C28.7232706,26.5051968 28.6717986,26.5588393 28.6061074,26.5876969 C28.5701355,26.5962204 28.532654,26.5962204 28.496682,26.5876969 L7.78648854,26.633531 Z M4.5670786,44.2109021 C4.41980458,44.2109021 4.29952824,44.0938306 4.29639476,43.9473561 C4.29037976,43.9113175 4.29037976,43.8745388 4.29639476,43.8385001 L11.3053785,28.2319946 L24.0332783,28.2319946 L30.967392,43.8385001 C30.9967219,43.9021574 30.9967219,43.975367 30.967392,44.0390243 C30.9443018,44.1057314 30.8941681,44.1597603 30.8291705,44.187985 C30.7931516,44.1961018 30.7557639,44.1961018 30.7197451,44.187985 L4.5670786,44.2109021 Z M28.0877767,62.853978 L1.87751787,62.853978 C1.80626301,62.855457 1.73738932,62.8283725 1.68645366,62.77878 C1.635518,62.7291875 1.60681719,62.6612705 1.60683403,62.5903696 C1.59867476,62.5545383 1.59867476,62.5173451 1.60683403,62.4815137 L8.90953853,45.8322828 L26.9186528,45.8322828 L30.7543005,54.6209683 L28.0877767,54.6209683 L28.0877767,62.853978 Z M39.3297917,72.9775189 C39.327465,70.9285328 40.5664079,69.0800141 42.4686584,68.2942945 C44.3709088,67.5085749 46.5616514,67.9404709 48.0189074,69.3885036 C49.4761633,70.8365363 49.912798,73.0153883 49.1251218,74.9086279 C48.3374456,76.8018674 46.4806606,78.0364559 44.4209549,78.0364559 C41.6127446,78.0333064 39.3361394,75.7711103 39.3297917,72.9775189 L39.3297917,72.9775189 Z M75.2213205,73.2467941 C75.3075013,75.4894494 76.4405658,77.5636932 78.2852312,78.8557401 C74.1624298,80.5351003 71.4668745,84.5245804 71.4605429,88.9564263 L71.4605429,91.4200083 C70.3316756,90.1178722 68.9113855,89.0974451 67.3138968,88.4407929 C69.8946712,86.6387908 71.0034075,83.3804835 70.0535703,80.3895567 C69.1037331,77.3986298 66.3145328,75.3653515 63.1614915,75.3653515 C60.0084501,75.3653515 57.2192499,77.3986298 56.2694127,80.3895567 C55.3195755,83.3804835 56.4283118,86.6387908 59.0090862,88.4407929 C57.658205,88.9939455 56.4308916,89.8078966 55.3980485,90.8356237 L55.3980485,88.9564263 C55.3917169,84.5245804 52.6961616,80.5351003 48.5733602,78.8557401 C50.4114822,77.560044 51.5378395,75.4863853 51.6199932,73.2467941 L75.2213205,73.2467941 Z M113.232243,73.2467941 C113.315775,75.4901721 114.449438,77.565511 116.296154,78.8557401 C112.172318,80.5338383 109.476232,84.5241047 109.471465,88.9564263 L109.471465,91.4200083 C108.340377,90.1177798 106.918206,89.0974184 105.31906,88.4407929 C107.904926,86.6392446 109.017684,83.3775368 108.068242,80.3824101 C107.118801,77.3872834 104.326483,75.3506167 101.169534,75.3506167 C98.0125861,75.3506167 95.2202678,77.3872834 94.2708264,80.3824101 C93.321385,83.3775368 94.4341429,86.6392446 97.0200086,88.4407929 C95.6665686,88.9923349 94.4370671,89.8064388 93.4032117,90.8356237 L93.4032117,88.9564263 C93.3984452,84.5241047 90.7023586,80.5338383 86.5785234,78.8557401 C88.4252396,77.565511 89.5589023,75.4901721 89.6424341,73.2467941 L113.232243,73.2467941 Z M96.0812507,82.5683009 C96.0789247,80.5187937 97.3184915,78.6699129 99.2214495,77.8845298 C101.124408,77.0991466 103.315602,77.5320937 104.772404,78.981315 C106.229207,80.4305364 106.664419,82.6103282 105.874927,84.5033835 C105.085435,86.3964388 103.226883,87.629555 101.166655,87.6272411 C98.3651925,87.6146487 96.0990749,85.355206 96.0927725,82.5683009 L96.0812507,82.5683009 Z M82.4261181,78.0364559 C79.6182807,78.0332925 77.3443588,75.7669304 77.3464766,72.9737037 C77.3485974,70.1804769 79.6259559,67.9175322 82.4337949,67.9185851 C85.2416338,67.9196387 87.517278,70.1842913 87.517278,72.9775189 C87.5141121,75.7679514 85.2426607,78.0301444 82.4376365,78.0364559 L82.4261181,78.0364559 Z M58.0645723,82.5683009 C58.0804703,79.7766213 60.3666104,77.5254385 63.1729097,77.5380219 C65.9792091,77.5507112 68.2447698,79.8223896 68.2352927,82.6140979 C68.225756,85.4058063 65.9447755,87.6621627 63.1384546,87.6558973 C60.3302561,87.6369605 58.0665068,85.3619337 58.0760908,82.5683009 L58.0645723,82.5683009 Z M52.1959163,98.2779331 L35.586295,98.2779331 L35.586295,88.9564263 C35.586295,84.1025693 39.541707,80.1677408 44.4209549,80.1677408 C49.3002028,80.1677408 53.2556147,84.1025693 53.2556147,88.9564263 L53.2556147,93.8721318 C52.5957055,95.2505542 52.2346554,96.7516556 52.1959163,98.2779331 L52.1959163,98.2779331 Z M71.9961513,107.868715 L54.3268316,107.868715 L54.3268316,98.5414791 C54.3268316,93.6876221 58.2822436,89.7527935 63.1614915,89.7527935 C68.0407394,89.7527935 71.9961513,93.6876221 71.9961513,98.5414791 L71.9961513,107.868715 Z M90.2068387,98.2779331 L74.1270667,98.2779331 C74.1008429,97.2290238 73.9243693,96.1891966 73.6029767,95.1898617 L73.6029767,88.9564263 C73.6029767,84.1025693 77.5583886,80.1677408 82.4376365,80.1677408 C87.3168844,80.1677408 91.2722964,84.1025693 91.2722964,88.9564263 L91.2722964,93.8721318 C90.6094165,95.2497739 90.2463485,96.7511059 90.2068387,98.2779331 Z M110.007074,107.868715 L92.3435133,107.868715 L92.3435133,98.5414791 C92.4658783,93.7734438 96.3865138,89.9715131 101.181053,89.9715131 C105.975592,89.9715131 109.896227,93.7734438 110.018592,98.5414791 L110.007074,107.868715 Z M129.283219,88.9621556 L129.283219,98.2836623 L112.143748,98.2836623 C112.122263,97.2347614 111.947661,96.1945339 111.625418,95.195591 L111.625418,88.9564263 C111.625418,84.1025693 115.58083,80.1677408 120.460077,80.1677408 C125.339325,80.1677408 129.294737,84.1025693 129.294737,88.9564263 L129.283219,88.9621556 Z M120.448559,78.0421851 C117.63997,78.0421851 115.363158,75.7772219 115.363158,72.9832481 C115.363158,70.1892744 117.63997,67.9243111 120.448559,67.9243111 C123.257148,67.9243111 125.53396,70.1892744 125.53396,72.9832481 C125.524499,75.7679166 123.2593,78.0238856 120.460077,78.0364559 L120.448559,78.0421851 Z M134.103695,71.1212385 L127.422987,71.1212385 C126.582954,67.9754492 123.720477,65.7855525 120.448559,65.7855525 C117.176641,65.7855525 114.314164,67.9754492 113.474131,71.1212385 L89.4005464,71.1212385 C88.5605133,67.9754492 85.6980365,65.7855525 82.4261181,65.7855525 C79.1541997,65.7855525 76.2917228,67.9754492 75.4516897,71.1212385 L51.3953832,71.1212385 C50.5553501,67.9754492 47.6928733,65.7855525 44.4209549,65.7855525 C41.1490365,65.7855525 38.2865596,67.9754492 37.4465265,71.1212385 L30.2302105,71.1212385 L30.2302105,56.7178777 L134.115213,56.7178777 L134.103695,71.1212385 Z M136.280684,62.2007799 L136.280684,54.5980513 L126.081087,54.5980513 L126.081087,38.3842442 C129.123898,42.8359361 134.762099,44.7452858 139.90324,43.06505 C140.20272,52.8047928 139.200614,59.0267696 136.914199,61.5934783 C136.725115,61.8175408 136.512765,62.0211044 136.280684,62.2007799 L136.280684,62.2007799 Z M147.159871,62.8539156 L137.945102,62.8539156 C138.002694,62.796623 138.066046,62.7336012 138.123638,62.66485 C140.744088,59.7257394 141.861379,53.0568802 141.492788,42.4348313 C142.023599,42.1759 142.533807,41.8771137 143.018984,41.5410667 C143.410343,41.8086598 143.818122,42.0516717 144.239941,42.2686828 C143.767684,53.2402166 144.735235,60.0293902 147.136834,62.8539156 L147.159871,62.8539156 Z M149.924302,42.0796172 C147.6078,42.0862907 145.354837,41.3264465 143.520037,39.919686 L143.030502,39.5472841 L142.540968,39.919686 C140.706797,41.3276148 138.45342,42.0875989 136.136703,42.0796172 C131.576969,42.0571465 127.539969,39.1431318 126.104124,34.837832 L126.104124,12.3619431 C127.821242,10.5621553 130.126107,9.42892082 132.606295,9.16501581 L133.107348,9.11345246 L133.274366,8.64365311 C134.764257,4.44615423 138.748843,1.63606996 143.223606,1.62704237 C147.698369,1.6180582 151.694352,4.41208083 153.201304,8.60354828 L153.37984,9.09626468 L153.90393,9.13064025 C158.178198,9.45376844 161.850093,12.2741491 163.245746,16.3060843 C164.641399,20.3380194 163.493556,24.8094322 160.325472,27.6819856 L159.956881,28.020012 L160.089344,28.4955406 C161.010931,31.6953571 160.379186,35.1396945 158.381011,37.8095403 C156.382837,40.4793861 153.247008,42.0690633 149.901265,42.1082635 L149.924302,42.0796172 Z" id="Shape" fill="#000000" fill-rule="nonzero"></path>
        <path d="M56.9001456,14.0533691 L56.934304,14.0533691 L54.1560913,9.27703568 C53.3526874,7.89309698 51.8675668,7.04034387 50.2601602,7.0400001 C48.6527535,7.03965655 47.1672641,7.89177455 46.3632614,9.27536959 C45.5592587,10.6589646 45.5588899,12.3638357 46.3622939,13.7477743 L49.1405065,18.5354261 L49.1746649,18.5354261 C49.1965072,18.6220659 49.2290131,18.705698 49.2714469,18.7844293 C49.549342,19.1913828 50.032749,19.409805 50.5239198,19.3503456 C50.7880302,19.3488036 51.0512862,19.3203592 51.3095619,19.2654581 C52.290491,19.0325161 53.2294698,18.6507622 54.0934677,18.1336256 C55.9721771,17.0583846 57.7028669,15.4002499 57.0652443,14.3023723 C57.0225848,14.2118881 56.9669755,14.1280177 56.9001456,14.0533691 L56.9001456,14.0533691 Z M49.6756541,16.9848155 L49.5276345,17.0697029 L47.250411,13.1931764 C46.7883075,12.409616 46.6612747,11.474683 46.8977048,10.5973371 C47.1341348,9.71999113 47.7143162,8.97337788 48.508577,8.52436702 C49.0269571,8.22315363 49.6160534,8.06309267 50.2164946,8.06031566 C50.5202544,8.06084715 50.8226443,8.10079893 51.1159979,8.17915808 C51.9970142,8.41329928 52.7472622,8.98791755 53.1996574,9.77504201 L55.4768809,13.6459094 L55.3288614,13.7307969 L55.0157432,13.7817293 C54.0335312,14.0106949 53.0939472,14.3926948 52.2318374,14.9135619 C51.3512705,15.3985903 50.5522237,16.0172196 49.863525,16.7471307 C49.7962119,16.8225828 49.7334773,16.9019514 49.6756541,16.9848155 Z M53.5640132,17.177227 C51.6625316,18.2751046 50.3702072,18.3486738 50.1937224,18.2241722 C50.1595641,17.9808282 50.8655033,16.9055872 52.772678,15.8133688 C53.7070237,15.2103667 54.7727092,14.8378513 55.8810881,14.7268095 C55.9702403,14.720943 56.0596077,14.7344614 56.1429688,14.7664237 C56.1771272,15.0097677 55.4711879,16.0680311 53.5640132,17.1998637 L53.5640132,17.177227 Z" id="Shape" fill="#000000" fill-rule="nonzero"></path>
        <path d="M110.461282,18.1333741 C111.325005,18.6495207 112.263061,19.0311377 113.242869,19.2649706 C113.502847,19.3198921 113.767773,19.3483288 114.033545,19.3498404 C114.523004,19.4110851 115.00525,19.1920554 115.279287,18.7840421 C115.3236,18.7055724 115.357991,18.6219545 115.381676,18.5350909 L115.415806,18.5350909 L118.191705,13.7484376 C119.106959,12.182875 118.980616,10.2224397 117.871889,8.78592806 C116.763162,7.34941646 114.891775,6.72151174 113.134791,7.19649379 C111.980159,7.49701599 110.99594,8.24755997 110.404399,9.27863138 L107.617123,14.0766006 L107.651253,14.0766006 C107.587831,14.1372876 107.532402,14.2057293 107.486292,14.280288 C106.871954,15.4005685 108.601202,17.0583574 110.461282,18.1333741 Z M111.030114,17.2450709 C109.130216,16.1530802 108.419176,15.0780635 108.436241,14.8687182 C108.536855,14.8197308 108.64876,14.7982502 108.760475,14.8064804 C109.854163,14.9159497 110.905536,15.2845875 111.826478,15.8814971 C113.726376,16.9734877 114.437416,18.0485044 114.420351,18.2578497 C114.198506,18.3766674 112.907258,18.3200876 111.030114,17.2450709 Z M111.360036,9.84442964 C111.969708,8.78622544 113.10064,8.13192605 114.326821,8.12798195 C115.553002,8.12407339 116.688146,8.77111662 117.304655,9.8253945 C117.921164,10.8796724 117.925376,12.181015 117.315704,13.2392192 L115.068819,17.1149373 L114.920923,17.0300675 C114.858351,16.9451978 114.79578,16.865986 114.721832,16.7811163 C114.031137,16.0541645 113.233218,15.4360228 112.355492,14.9479299 C111.493248,14.4288535 110.554721,14.0470451 109.573904,13.8163334 L109.261047,13.7654116 L109.113151,13.6805418 L111.360036,9.84442964 Z" id="Shape" fill="#000000" fill-rule="nonzero"></path>
    </g>
</svg>