<?xml version="1.0" encoding="UTF-8"?>
<svg width="144.96124px" height="110px" viewBox="0 0 144.96124 110" version="1.1" xmlns="http://www.w3.org/2000/svg" xmlns:xlink="http://www.w3.org/1999/xlink">
    <title>kuvitukset_image7</title>
    <g id="kuvitukset_image7" stroke="none" stroke-width="1" fill="none" fill-rule="evenodd">
        <rect id="Rectangle" fill="#000000" fill-rule="nonzero" x="72.4806202" y="48.6046512" width="1.70542636" height="2.55813953"></rect>
        <rect id="Rectangle" fill="#000000" fill-rule="nonzero" x="43.4883721" y="48.6046512" width="1.70542636" height="2.55813953"></rect>
        <path d="M80.5620741,37.5193798 L100.620155,6.35581006 C100.414259,5.88376903 100.290513,5.37951932 100.254339,4.86515264 C100.220922,4.37627578 100.26616,3.8851685 100.388299,3.41085271 L80.1550388,34.8600886 L80.5620741,37.5193798 Z" id="Path" fill="#000000" fill-rule="nonzero"></path>
        <path d="M104.354183,10.2325581 L83.4947568,42.1629578 C82.9534026,42.9914192 81.9994583,43.4600262 81.0077519,43.3846517 L81.2957209,45.1937984 C82.8006729,45.1668196 84.1937911,44.3992154 85.0131387,43.1455117 L105.736434,11.4334572 L104.354183,10.2325581 Z" id="Path" fill="#000000" fill-rule="nonzero"></path>
        <path d="M120.361076,22.0862569 L102.509593,6.56324395 C101.965301,6.09461896 101.632225,5.42722008 101.58516,4.71091803 C101.533111,3.99218589 101.769942,3.28236845 102.243231,2.73858227 L102.243231,2.73858227 C103.229983,1.61672086 104.938696,1.50244858 106.066311,2.48290911 L123.630541,17.7554667 C123.847277,17.6024753 124.07219,17.4613854 124.30428,17.3328234 C124.639048,17.1495086 124.988426,16.9941833 125.348837,16.8684374 L107.257106,1.10540477 C105.372037,-0.526892912 102.520586,-0.328577723 100.880084,1.54891942 L100.85397,1.58022634 C100.083089,2.48328776 99.6968781,3.65205657 99.7780759,4.8361457 C99.8147451,5.35287838 99.9401829,5.85944756 100.148894,6.33365989 C100.424267,6.94930419 100.832724,7.49636475 101.344912,7.93553047 L104.065983,10.2992027 L105.444799,11.4993012 L119.682114,23.875969 C119.875357,23.2550485 120.10516,22.6706527 120.361076,22.0862569 Z" id="Path" fill="#000000" fill-rule="nonzero"></path>
        <path d="M106.58466,4.99750349 C106.556576,4.54663512 106.346736,4.12629386 106.002927,3.832205 C105.662742,3.53379444 105.216983,3.38354178 104.765035,3.41494653 C104.313087,3.44635128 103.892526,3.65680232 103.597119,3.99937862 C102.978785,4.70984838 103.05377,5.78543973 103.764736,6.40372868 C104.073859,6.67503036 104.472069,6.82374445 104.883832,6.82168431 L105.00215,6.82168431 C105.944085,6.75351758 106.652454,5.93698027 106.58466,4.99750349 L106.58466,4.99750349 Z M104.942991,5.98087775 C104.599616,6.00045104 104.277718,5.81358347 104.125195,5.5061337 C103.972673,5.19868392 104.01902,4.83010127 104.24294,4.56973569 C104.390306,4.39879802 104.599364,4.29277917 104.824673,4.27472341 L104.908482,4.27472341 C105.113795,4.27518949 105.31188,4.35036736 105.465564,4.48614888 C105.637329,4.63225684 105.742292,4.84162766 105.756431,5.06633969 C105.781627,5.53996139 105.4178,5.94460803 104.942991,5.97104401 L104.942991,5.98087775 Z" id="Shape" fill="#000000" fill-rule="nonzero"></path>
        <path d="M81.1261137,41.7829457 C81.5784737,41.7526589 82.0000199,41.5429131 82.2971231,41.2002945 C82.5942263,40.857676 82.7422884,40.4105512 82.7084236,39.9582306 C82.6803431,39.5060059 82.4705296,39.0844001 82.1267645,38.7894265 C81.5785955,38.3052332 80.7789277,38.2352289 80.1550388,38.6168184 L80.3127768,39.6031509 C80.3346181,39.5682589 80.3593517,39.535265 80.3867165,39.5045176 C80.5340637,39.3330657 80.7430951,39.2267279 80.9683756,39.2086179 L81.0176688,39.2086179 C81.221922,39.2099059 81.4191713,39.2832547 81.5746813,39.4157477 C81.8193222,39.6448563 81.9081966,39.9955247 81.8022296,40.313577 C81.6962626,40.6316294 81.4148623,40.858814 81.0817499,40.8952465 C80.8666221,40.9086328 80.6541557,40.8418761 80.4853028,40.7078433 L80.6479702,41.6941758 C80.7710123,41.7216801 80.8965383,41.7365521 81.0225981,41.7385608 L81.1261137,41.7829457 Z" id="Path" fill="#000000" fill-rule="nonzero"></path>
        <path d="M119.38802,19.6074884 L119.511154,19.6074884 C120.197653,19.5531871 120.78443,19.0930733 120.999617,18.4403273 C121.214804,17.7875814 121.01636,17.0697335 120.496229,16.6193776 C120.155142,16.3205165 119.707611,16.1716642 119.255035,16.2065464 C118.316689,16.274654 117.611177,17.0886275 117.678916,18.0249692 C117.738396,18.9159273 118.47837,19.6092163 119.373244,19.6124031 L119.38802,19.6074884 Z M118.747721,17.341832 C118.894082,17.1706001 119.103815,17.0659619 119.328915,17.0518673 L119.392945,17.0518673 C119.840312,17.0559369 120.209274,17.4026912 120.240109,17.8480416 C120.271269,18.1565247 120.131673,18.457476 119.875819,18.6334064 C119.619964,18.8093368 119.288419,18.8323506 119.010616,18.6934634 C118.732814,18.5545763 118.552802,18.2758102 118.540856,17.9659933 C118.5248,17.7388818 118.59913,17.5146118 118.747721,17.341832 L118.747721,17.341832 Z" id="Shape" fill="#000000" fill-rule="nonzero"></path>
        <path d="M144.788211,33.5742016 C140.976787,24.0524613 137.041413,18.6997272 132.723865,17.204492 C129.506361,16.0934493 126.903437,15.9065449 124.806637,16.6385871 C124.450246,16.7637056 124.104765,16.918256 123.773731,17.1006563 C123.544229,17.2285769 123.321825,17.3689629 123.107506,17.5211911 C121.65331,18.6340925 120.532799,20.1288056 119.869345,21.8407593 C119.616283,22.4066643 119.389043,23.00372 119.177297,23.6215428 C118.722819,24.9558325 118.345808,26.3835744 117.984291,27.8528506 L117.674419,29.1092634 L118.955223,28.9638933 C123.205632,28.4758652 130.874962,30.9886909 141.746302,36.4348772 C142.297815,36.7082567 142.936974,36.741273 143.513456,36.5261612 C144.089939,36.3110493 144.55287,35.8667932 144.793376,35.2978755 C145.018971,34.7453376 145.017114,34.1253633 144.788211,33.5742016 Z M143.130396,34.6125594 C143.082986,34.7217557 142.996286,34.8089131 142.887663,34.8565734 C142.77086,34.9083409 142.637785,34.9083409 142.520982,34.8565734 C132.17126,29.6388259 124.801473,27.0948494 120.029445,27.0948494 L119.998458,27.0948494 C120.938403,23.4605974 122.152068,20.0236333 124.60522,18.67896 C126.402478,17.6925202 128.865959,17.770397 132.145437,18.9022069 C135.879394,20.2001541 139.577198,25.360792 143.130396,34.2439424 C143.177173,34.3551247 143.177173,34.4806099 143.130396,34.5917922 L143.130396,34.6125594 Z" id="Shape" fill="#000000" fill-rule="nonzero"></path>
        <path d="M72.922435,51.1627907 L38.6996825,51.1627907 C34.2750108,51.174191 30.6949075,54.7858031 30.6977152,59.2351421 L30.6977152,60.129199 C30.6909317,62.269168 31.5304838,64.324066 33.0314327,65.8411329 C34.5323816,67.3581999 36.571564,68.2129499 38.6996825,68.2170543 L85.8118573,68.2170543 C90.2377138,68.1999597 93.8125835,64.5797256 93.7984076,60.129199 L93.7984076,59.2351421 C93.8012404,54.7918329 90.2305027,51.1827149 85.8118573,51.1627907 L72.922435,51.1627907 L72.922435,51.1627907 Z M92.0304404,60.129199 C92.0332838,63.5872965 89.2507842,66.3945494 85.8118573,66.4031008 L38.6996825,66.4031008 C35.2587474,66.3973969 32.4731209,63.58931 32.4759601,60.129199 L32.4759601,59.2351421 C32.4731167,55.7741904 35.2579173,52.9646238 38.6996825,52.9560724 L85.8118573,52.9560724 C89.251614,52.967468 92.0332903,55.776202 92.0304404,59.2351421 L92.0304404,60.129199 Z" id="Shape" fill="#000000" fill-rule="nonzero"></path>
        <path d="M39.2352131,55.4263692 C37.5098524,55.422194 35.9520521,56.4583023 35.2888813,58.0511258 C34.6257106,59.6439492 34.9879189,61.4794499 36.2064534,62.700948 C37.424988,63.9224461 39.2596049,64.2891135 40.8540368,63.6298161 C42.4484688,62.9705188 43.488369,61.4152425 43.488369,59.6898785 C43.4897389,58.5605009 43.0424114,57.4768343 42.2447903,56.6772734 C41.4471693,55.8777124 40.3645919,55.4277532 39.2352131,55.4263692 L39.2352131,55.4263692 Z M39.2352131,62.6081156 C38.05397,62.6122859 36.9867086,61.9039467 36.531761,60.8138215 C36.0768134,59.7236962 36.3239233,58.4668248 37.1577086,57.6300731 C37.991494,56.7933214 39.2474809,56.5417484 40.3392165,56.9928202 C41.4309522,57.4438919 42.1430864,58.5086291 42.1430864,59.6898785 C42.1430864,61.2975335 40.8428596,62.6023962 39.2352131,62.6081156 Z" id="Shape" fill="#000000" fill-rule="nonzero"></path>
        <path d="M85.2817247,55.4263692 C83.556364,55.422194 81.9985637,56.4583023 81.3353929,58.0511258 C80.6722222,59.6439492 81.0344305,61.4794499 82.2529651,62.700948 C83.4714996,63.9224461 85.3061165,64.2891135 86.9005485,63.6298161 C88.4949804,62.9705188 89.5348806,61.4152425 89.5348806,59.6898785 C89.5362505,58.5605009 89.088923,57.4768343 88.291302,56.6772734 C87.4936809,55.8777124 86.4111035,55.4277532 85.2817247,55.4263692 L85.2817247,55.4263692 Z M85.2817247,62.6081156 C84.1004816,62.6122859 83.0332203,61.9039467 82.5782727,60.8138215 C82.123325,59.7236962 82.3704349,58.4668248 83.2042203,57.6300731 C84.0380056,56.7933214 85.2939925,56.5417484 86.3857282,56.9928202 C87.4774638,57.4438919 88.189598,58.5086291 88.189598,59.6898785 C88.189598,61.2975335 86.8893713,62.6023962 85.2817247,62.6081156 Z" id="Shape" fill="#000000" fill-rule="nonzero"></path>
        <path d="M81.2957,43.1361339 L81.1095392,41.9416283 L80.9388919,40.9118822 L80.7527312,39.7379715 L80.587255,38.7082254 L80.3700675,37.3232168 L79.9615481,34.6561743 L76.445179,12.5938628 C76.3120457,11.7244257 75.5599593,11.0828855 74.6766522,11.085278 L47.7867706,11.085278 C46.7977805,11.0881225 45.9975551,11.8871843 45.9975592,12.8718943 L45.9975592,32.0766601 L26.5179084,32.0766601 C26.0424827,32.0766581 25.5866044,32.2650538 25.2509131,32.600257 C24.9152219,32.9354601 24.727323,33.3899055 24.7286896,33.8632697 L24.7286896,46.8123276 C24.7286896,47.7970377 25.5289184,48.5960995 26.5179084,48.5989372 L80.0701419,48.5989372 C80.163065,48.6065558 80.2564599,48.6065558 80.349383,48.5989372 C80.8191662,48.5285142 81.2405356,48.2723324 81.5180586,47.8884124 C81.7972393,47.5033363 81.9124599,47.0240964 81.8386687,46.5548911 L81.5801122,44.9536358 L81.2957,43.1361339 Z M80.0701419,46.8123276 L26.5179084,46.8123276 L26.5179084,33.8632697 L47.8074551,33.8632697 L47.8074551,12.8718943 L74.6973367,12.8718943 L80.0701419,46.8123276 Z" id="Shape" fill="#000000" fill-rule="nonzero"></path>
        <path d="M52.973708,38.3684113 L73.2182977,38.3684113 C73.2967253,38.3733203 73.375394,38.3733203 73.4538216,38.3684113 C74.4486367,38.2410253 75.1506924,37.3514295 75.0239811,36.3788153 L72.585,18.1348853 C72.438372,17.0335569 71.4813876,16.2076223 70.3449058,16.2015504 L52.973708,16.2015504 C51.9788163,16.2043159 51.1713881,16.9887908 51.1627907,17.9609874 L51.1627907,36.5936303 C51.1627907,37.5718209 51.97272,38.3655923 52.973708,38.3684113 L52.973708,38.3684113 Z M52.973708,17.9609874 L70.3344381,17.9609874 C70.5619485,17.9620648 70.7528643,18.1288776 70.7793166,18.3497003 L73.2182977,36.5936303 L52.973708,36.5936303 L52.973708,17.9609874 Z" id="Shape" fill="#000000" fill-rule="nonzero"></path>
        <path d="M139.978105,58.8363113 C140.468581,58.8335685 140.93056,58.6041837 141.230914,58.2142589 C141.480094,57.8766205 141.589973,57.4552572 141.537618,57.0381094 C141.482298,56.6217773 141.263199,56.2451629 140.929408,55.9926433 L132.710775,49.6884822 C126.35934,44.8325214 117.566921,44.8325214 111.215487,49.6884822 L102.986457,55.9874159 C102.423064,56.386928 102.187375,57.1110109 102.406817,57.7681827 C102.62626,58.4253545 103.248761,58.8596695 103.93776,58.8363113 L139.978105,58.8363113 Z M103.724627,57.268112 C103.725721,57.196984 103.758079,57.1299938 103.812999,57.0851554 L112.031632,50.7809944 C117.900398,46.2927117 126.025863,46.2927117 131.894629,50.7809944 L140.113263,57.0851554 C140.161429,57.1214609 140.192998,57.1757666 140.200825,57.2357836 C140.208653,57.2958006 140.192077,57.3564556 140.15485,57.4040226 C140.1134,57.460293 140.047742,57.4933047 139.978105,57.4928911 L103.948157,57.4928911 C103.886069,57.4930394 103.826716,57.4672174 103.784317,57.421608 C103.741918,57.3759987 103.720295,57.3147114 103.724627,57.25243 L103.724627,57.268112 Z" id="Shape" fill="#000000" fill-rule="nonzero"></path>
        <path d="M66.664035,88.8973154 L52.4028848,78.1425295 C45.3662568,72.8672188 35.6450657,72.8672188 28.6084377,78.1425295 L14.3472875,88.8973154 C13.7379507,89.3605689 13.4927225,90.1556422 13.736718,90.8768903 C13.9807134,91.5981384 14.6601511,92.0865841 15.428383,92.0930233 L65.5725941,92.0930233 C66.1337317,92.0906311 66.6616455,91.8292961 67.0002609,91.3862802 C67.5984753,90.604145 67.443341,89.4900198 66.6536896,88.8973154 L66.664035,88.8973154 Z M40.510834,75.9864066 C44.4136499,75.9777855 48.2115403,77.2371715 51.3217893,79.5713796 L65.5829395,90.3261656 L15.4387284,90.3261656 L29.6998786,79.5713796 C32.810489,77.237849 36.6081417,75.9785418 40.510834,75.9864066 L40.510834,75.9864066 Z" id="Shape" fill="#000000" fill-rule="nonzero"></path>
        <path d="M78.4496124,97.2093023 C78.1141158,96.9540911 77.8208029,96.6676681 77.5763872,96.3565891 L75.0387597,97.0596239 C76.1684997,96.8364949 77.3597028,96.8887684 78.4496124,97.2093023 L78.4496124,97.2093023 Z" id="Path" fill="#000000" fill-rule="nonzero"></path>
        <path d="M81.6480046,103.52146 C81.6480046,103.405586 81.6480046,103.294168 81.6480046,103.178295 L80.815389,103.414499 C80.3935857,104.376301 79.5582349,105.196171 78.4496124,105.736434 L81.8604651,104.764876 C81.713324,104.360434 81.6417736,103.941688 81.6480046,103.52146 L81.6480046,103.52146 Z" id="Path" fill="#000000" fill-rule="nonzero"></path>
        <path d="M80.7220728,103.993315 C80.9105819,103.459706 81.0071522,102.898554 81.0077519,102.333285 C81.0061585,100.954447 80.4446818,99.634071 79.4495019,98.6688844 C78.7704955,98.4190648 78.1514061,98.0322749 77.6315435,97.5330744 C76.6655674,97.1698774 75.6098158,97.1106462 74.6085384,97.3634738 C72.1817822,98.0154241 70.5755324,100.293782 70.7952467,102.772374 C71.014961,105.250965 72.9975309,107.217865 75.5019351,107.44186 C75.6162068,107.44186 75.7304784,107.44186 75.8447501,107.44186 C76.0864182,107.438972 76.3276201,107.420085 76.5667393,107.385327 C78.4875793,107.105629 80.0904077,105.789305 80.7220728,103.972757 L80.7220728,103.993315 Z M75.8395559,98.9926316 C77.2090784,98.9864242 78.4471645,99.7981783 78.9751506,101.048527 C79.5031368,102.298876 79.2167441,103.740873 78.2498285,104.700548 C77.2829129,105.660224 75.8264429,105.94804 74.5611517,105.429475 C73.2958605,104.910911 72.4716466,103.688383 72.4737318,102.333285 C72.4737318,100.49232 73.9789857,98.9983319 75.8395559,98.9926316 L75.8395559,98.9926316 Z" id="Shape" fill="#000000" fill-rule="nonzero"></path>
        <path d="M92.5569825,104.883721 L91.4786532,105.346784 C91.1277932,106.572872 90.4413195,107.613932 89.5348837,108.294574 L92.9457364,106.781149 C92.7251402,106.181732 92.593513,105.539287 92.5569825,104.883721 L92.5569825,104.883721 Z" id="Path" fill="#000000" fill-rule="nonzero"></path>
        <path d="M128.75969,86.808307 C129.100007,87.089357 129.378243,87.4369767 129.577021,87.8294574 L131.317829,87.213609 C131.141026,86.8233404 130.914502,86.4571628 130.643797,86.124031 L128.75969,86.808307 Z" id="Path" fill="#000000" fill-rule="nonzero"></path>
        <path d="M89.7095169,97.2093023 L85.2713178,98.4492169 C86.6504298,98.1723208 88.1122857,98.3397793 89.3350782,98.9147287 L91.2403101,98.3796077 C90.6384991,98.0719455 90.118507,97.6744069 89.7095169,97.2093023 L89.7095169,97.2093023 Z" id="Path" fill="#000000" fill-rule="nonzero"></path>
        <path d="M91.8037623,105.721035 C92.6167595,103.410519 91.6695008,100.850129 89.5460308,99.6185059 C88.4013636,98.9396522 87.032907,98.7419308 85.7419077,99.0688673 C83.5983319,99.6058883 82.0368965,101.445026 81.8604651,103.640627 C81.8604651,103.774184 81.8604651,103.902605 81.8604651,104.036162 C81.8615708,104.521514 81.9327468,105.004182 82.0718053,105.469331 C82.6794722,107.532354 84.5121327,108.99997 86.664588,109.147287 L86.9893302,109.147287 C87.2379413,109.145045 87.4860438,109.124442 87.7315981,109.085645 C89.6069942,108.796609 91.1713542,107.504062 91.8037623,105.721035 Z M83.6233514,104.036162 C83.6290409,102.196309 85.1293197,100.708876 86.9755633,100.712646 C88.8218069,100.71643 90.3159449,102.209989 90.314056,104.049849 C90.3121636,105.88971 88.8149591,107.380224 86.9687116,107.380224 C85.1222972,107.377396 83.6261899,105.886463 83.6233514,104.046435 L83.6233514,104.036162 Z" id="Shape" fill="#000000" fill-rule="nonzero"></path>
        <path d="M138.403502,85.29718 C137.689247,85.2990367 136.984508,85.4616522 136.341215,85.7730442 L132.123836,87.2885682 L130.43276,87.8937434 L97.2093023,99.7903484 C98.4973491,99.4548234 99.8656685,99.6503992 101.009068,100.333454 L136.98568,87.4023619 L137.083638,87.3609824 C137.499325,87.1509832 137.958718,87.0428531 138.424125,87.0454637 C139.23859,87.0495405 140.017768,87.3794826 140.588829,87.9621055 C141.15989,88.5447285 141.475624,89.3318671 141.466,90.1489259 C141.448922,91.5578312 140.518605,92.7910902 139.171705,93.1903188 L138.248831,93.5782516 L103.287896,106.45762 C102.905551,107.570554 102.15624,108.519352 101.163739,109.147287 L139.970841,94.778257 L140.440012,94.5817044 C142.504312,93.6189626 143.627654,91.3492741 143.144428,89.1174894 C142.661201,86.8857048 140.700514,85.2881081 138.424125,85.2713178 L138.403502,85.29718 Z" id="Path" fill="#000000" fill-rule="nonzero"></path>
        <path d="M102.895332,106.553595 C103.562489,104.633253 103.026907,102.500535 101.531342,101.122116 C100.035777,99.7436966 97.8645994,99.3816717 96.0019158,100.200132 C94.1392322,101.018593 92.9392178,102.861914 92.9457631,104.894595 C92.9457631,105.012728 92.9457631,105.135997 92.9457631,105.25413 C92.9851692,105.853879 93.1314372,106.441786 93.377708,106.990174 C94.155656,108.711219 95.8162901,109.867058 97.7020308,110 C97.8151522,110 97.9231317,110 98.041395,110 C98.2807233,109.999254 98.5196499,109.980367 98.7561166,109.943502 C99.4677982,109.844534 100.149906,109.594061 100.756309,109.209022 C101.75111,108.592879 102.505685,107.656134 102.895332,106.553595 L102.895332,106.553595 Z M94.7248811,104.894595 C94.7277199,103.054276 96.2230368,101.564435 98.0653852,101.566323 C99.9077336,101.568214 101.399984,103.061119 101.39904,104.901441 C101.398095,106.741762 99.9043119,108.233139 98.0619625,108.233139 C96.219286,108.227487 94.727703,106.73525 94.7248811,104.894595 L94.7248811,104.894595 Z" id="Shape" fill="#000000" fill-rule="nonzero"></path>
        <path d="M84.1536577,88.6821705 L85.2713178,88.322622 C84.7216195,87.95698 84.2555982,87.5000514 83.8986576,86.9767442 L80.1550388,88.1720003 C81.5074226,87.8571256 82.9438599,88.0316687 84.1536577,88.6578767 L84.1536577,88.6821705 Z" id="Path" fill="#000000" fill-rule="nonzero"></path>
        <path d="M89.2449791,94.797761 C89.2449791,94.748895 89.2449791,94.7000289 89.2449791,94.6511628 L86.6304693,95.5160925 C86.2361075,96.5706755 85.4551027,97.4696356 84.4186047,98.0620155 L89.5348837,96.3517025 C89.34345,95.8521251 89.245455,95.326854 89.2449791,94.797761 Z" id="Path" fill="#000000" fill-rule="nonzero"></path>
        <path d="M123.643411,76.4771275 C123.986382,76.7981368 124.235504,77.1814825 124.371109,77.5968992 L126.20155,77.0534117 C126.054533,76.6406594 125.833723,76.2489096 125.546622,75.8914729 L123.643411,76.4771275 Z" id="Path" fill="#000000" fill-rule="nonzero"></path>
        <path d="M78.2841405,97.4836217 C78.7961913,97.9800718 79.4059779,98.3647307 80.0747811,98.613174 C80.5312094,98.7838485 81.0105873,98.8854872 81.4970614,98.9147287 C81.609616,98.9147287 81.7221705,98.9147287 81.8347251,98.9147287 C82.0727426,98.9114398 82.3102926,98.8926593 82.5458652,98.8585066 C84.7938233,98.5548569 86.5732288,96.8086692 86.9172786,94.5686984 C87.2613283,92.3287276 86.0878629,90.1298814 84.0344605,89.1668572 C81.981058,88.203833 79.5380734,88.7066022 78.0328516,90.4019955 C76.5276299,92.0973889 76.3196197,94.5805445 77.5218391,96.5022912 C77.7337985,96.8600042 77.9899044,97.1896961 78.2841405,97.4836217 L78.2841405,97.4836217 Z M78.5143617,93.8342988 C78.5200127,92.0036555 80.0090795,90.5236684 81.8415256,90.5274193 C83.6739717,90.5311845 85.1569435,92.0172669 85.1550688,93.8479179 C85.1531905,95.678569 83.6671751,97.1616226 81.8347251,97.1616226 C80.9527538,97.1602681 80.1074445,96.8089506 79.4847561,96.1849561 C78.8620677,95.5609616 78.5130078,94.7154047 78.5143617,93.8342988 L78.5143617,93.8342988 Z" id="Shape" fill="#000000" fill-rule="nonzero"></path>
        <path d="M128.019748,73.1198781 L93.0419078,85.9936682 C92.6616536,87.1073365 91.9115609,88.056395 90.9170376,88.6821705 L123.759692,76.5994205 L125.513226,75.9531459 L129.860958,74.2676618 L130.206507,74.1125559 C132.271501,73.1502311 133.395221,70.8815255 132.911832,68.6507074 C132.428443,66.4198893 130.467097,64.8229846 128.189944,64.8062016 C127.475327,64.8069957 126.770118,64.9695944 126.126963,65.2818597 L86.9767442,79.3137739 C87.3796733,79.2107289 87.7935553,79.1569128 88.2093752,79.1534978 C89.1162792,79.1519553 90.0069253,79.3948097 90.7881013,79.8566445 L126.781959,66.9311525 L126.879951,66.8897909 C127.295574,66.6793214 127.755258,66.5712059 128.220888,66.5744089 C129.035194,66.5798643 129.813827,66.9101012 130.384783,67.4921685 C130.955738,68.0742357 131.272029,68.8602323 131.263785,69.676527 C131.235122,71.0927057 130.303656,72.3307816 128.953247,72.7476239" id="Path" fill="#000000" fill-rule="nonzero"></path>
        <path d="M84.7818977,88.5064874 C85.5694658,89.1064681 86.5163484,89.4639672 87.5057384,89.5348837 L87.8468646,89.5348837 C88.0874519,89.5345413 88.3276501,89.5156306 88.5652969,89.4783219 C89.2808707,89.3800282 89.966683,89.1292145 90.5758738,88.7430185 C92.0803236,87.7790129 92.9765034,86.1093968 92.9449289,84.3293812 C92.9133544,82.5493656 91.9585186,80.9122464 90.4208165,80.0016496 C89.6379553,79.542335 88.7453878,79.300806 87.8365274,79.3023328 C85.9776886,79.3185236 84.2707648,80.3265246 83.3662741,81.9421884 C82.4617834,83.5578521 82.4990648,85.5322813 83.4639103,87.1130103 C83.8101568,87.6566684 84.2574829,88.1296157 84.7818977,88.5064874 Z M84.4976259,84.392902 C84.5004826,82.5498503 86.0046143,81.0580652 87.857199,81.0609017 C89.7097838,81.0637463 91.2092862,82.5601369 91.2064365,84.4031886 C91.2035786,86.2462403 89.6994493,87.7380278 87.8468646,87.7351941 C85.9994871,87.7295438 84.5033015,86.2410572 84.4976259,84.4031859 L84.4976259,84.392902 Z" id="Shape" fill="#000000" fill-rule="nonzero"></path>
        <path d="M124.6054,78.1518923 L92.9457364,89.528789 C94.2288031,89.1852725 95.5956066,89.3715204 96.740771,90.0459206 L132.726568,77.1693422 L132.824537,77.1279716 C133.240271,76.918018 133.699715,76.8099113 134.165175,76.8125213 C134.979298,76.8179779 135.757757,77.1482863 136.328584,77.7304797 C136.899412,78.312673 137.215632,79.0988398 137.20739,79.9153113 C137.20739,81.3529373 136.397851,82.3872007 134.974713,82.9405315 L133.989861,83.3438942 L99.0198543,96.2204727 C98.6398134,97.3343004 97.892216,98.2847452 96.9006162,98.9147287 L129.385287,86.9483019 L131.215773,86.2760308 L136.176131,84.3471297 C138.240662,83.3845964 139.36413,81.1153995 138.880849,78.8840982 C138.397569,76.652797 136.436662,75.0555463 134.160018,75.0387597 C133.445622,75.0400868 132.740688,75.2026938 132.0975,75.5145208 L126.306978,77.5830475 L124.6054,78.1518923 Z" id="Path" fill="#000000" fill-rule="nonzero"></path>
        <path d="M88.6821744,94.5062351 C88.6821744,94.557614 88.6821744,94.608993 88.6821744,94.660372 C88.6814798,95.2201224 88.7753911,95.7759745 88.9599536,96.3044991 C89.1125801,96.7591936 89.3290738,97.1899384 89.6029522,97.5838355 C90.4874618,98.8595811 91.9056754,99.6633554 93.4557998,99.7674419 C93.5689676,99.7674419 93.6821354,99.7674419 93.8004471,99.7674419 C94.0381724,99.7668349 94.2754978,99.7479401 94.5103176,99.710925 C95.223174,99.6121985 95.9069475,99.3635296 96.5164732,98.9813436 C97.505706,98.3554313 98.2515188,97.4111287 98.6306526,96.3044991 C99.4363897,93.9929934 98.4814863,91.4359335 96.3570095,90.2160909 C95.2145786,89.546049 93.8510377,89.3610046 92.5710338,89.7023011 C90.3480228,90.2594736 88.7622321,92.2184133 88.6821744,94.5062351 L88.6821744,94.5062351 Z M97.1286119,94.660372 C97.1229259,96.5012828 95.6247004,97.9893027 93.7816043,97.9845878 C91.9385082,97.9798505 90.4479518,96.4841667 90.4517261,94.643251 C90.4555147,92.8023353 91.9522031,91.3127731 93.7953031,91.3155969 C95.6399088,91.3212677 97.1314544,92.8179441 97.1286119,94.660372 L97.1286119,94.660372 Z" id="Shape" fill="#000000" fill-rule="nonzero"></path>
        <path d="M52.0436132,101.472868 L0.824603867,101.472868 C0.359417791,101.506744 0,101.878413 0,102.325581 C0,102.772749 0.359417791,103.144419 0.824603867,103.178295 L52.0436132,103.178295 C52.5087993,103.144419 52.8682171,102.772749 52.8682171,102.325581 C52.8682171,101.878413 52.5087993,101.506744 52.0436132,101.472868 L52.0436132,101.472868 Z" id="Path" fill="#000000" fill-rule="nonzero"></path>
        <path d="M5.08974507,67.3643411 L22.1970766,67.3643411 C22.6631514,67.3304657 23.0232558,66.958796 23.0232558,66.5116279 C23.0232558,66.0644598 22.6631514,65.6927901 22.1970766,65.6589147 L5.08974507,65.6589147 C4.62367031,65.6927901 4.26356589,66.0644598 4.26356589,66.5116279 C4.26356589,66.958796 4.62367031,67.3304657 5.08974507,67.3643411 Z" id="Path" fill="#000000" fill-rule="nonzero"></path>
        <path d="M79.3445751,78.4496124 C79.8017842,78.415737 80.1550388,78.0440673 80.1550388,77.5968992 C80.1550388,77.1497311 79.8017842,76.7780614 79.3445751,76.744186 L65.6166652,76.744186 C65.1594561,76.7780614 64.8062016,77.1497311 64.8062016,77.5968992 C64.8062016,78.0440673 65.1594561,78.415737 65.6166652,78.4496124 L79.3445751,78.4496124 Z" id="Path" fill="#000000" fill-rule="nonzero"></path>
    </g>
</svg>