<?xml version="1.0" encoding="UTF-8"?>
<svg width="120.232558px" height="110px" viewBox="0 0 120.232558 110" version="1.1" xmlns="http://www.w3.org/2000/svg" xmlns:xlink="http://www.w3.org/1999/xlink">
    <title>kuvitukset_image8</title>
    <g id="kuvitukset_image8" stroke="none" stroke-width="1" fill="none" fill-rule="evenodd">
        <path d="M58.8372093,46.7770118 L56.0322317,36.6666667 C55.5406928,36.7698335 55.0491539,36.8575252 54.5736434,36.9194253 L57.5709623,47.751938 C57.9120778,47.3394919 58.344817,47.0063114 58.8372093,46.7770118 L58.8372093,46.7770118 Z" id="Path" fill="#000000" fill-rule="nonzero"></path>
        <path d="M46.9651152,3.88540489 L46.4638807,1.94611769 C46.4441281,1.8592049 46.4556925,1.76773759 46.4963681,1.68916214 C46.5398345,1.61319354 46.6096415,1.55763321 46.6912927,1.53401916 L47.3131947,1.34978688 L47.3967338,1.34978688 C47.4520575,1.34984846 47.5064222,1.36488148 47.5545298,1.39342084 C47.6275815,1.43844149 47.6808821,1.51152125 47.7030437,1.59704599 L48.2042782,3.53633319 C48.6219736,3.4296724 49.039669,3.32785982 49.4573643,3.23089546 L48.9422067,1.24312608 C48.8330486,0.813250932 48.5640529,0.446725779 48.1949961,0.225000303 C47.8268156,0.00357734165 47.3899465,-0.0573880019 46.9790384,0.0553126729 L46.3849827,0.229848521 C45.5294601,0.468948416 45.020748,1.38645948 45.247923,2.28064473 L45.7584396,4.26356589 C46.1436476,4.13266401 46.5520609,4.00661034 46.9651152,3.88540489 Z" id="Path" fill="#000000" fill-rule="nonzero"></path>
        <path d="M57.1317829,36.2232558 L59.8468382,45.7785161 L60.006851,45.7785161 C60.4839997,45.7794039 60.9561239,45.8705291 61.3953488,46.0465116 L58.4841489,35.8139535 C58.0505659,35.945515 57.6014978,36.0916944 57.1317829,36.2232558 Z" id="Path" fill="#000000" fill-rule="nonzero"></path>
        <path d="M59.6899225,61.3953488 L59.6899225,53.4907076 C59.0706039,53.3881202 58.487833,53.1754054 57.9844961,52.8682171 L57.9844961,61.3953488 L59.6899225,61.3953488 Z" id="Path" fill="#000000" fill-rule="nonzero"></path>
        <path d="M60.5426357,53.4850524 L60.5426357,60.2899799 L60.5426357,60.2899799 L60.5426357,61.3953488 L62.248062,61.3953488 L62.248062,52.8682171 C61.7434244,53.1722888 61.1609866,53.3829507 60.5426357,53.4850524 Z" id="Path" fill="#000000" fill-rule="nonzero"></path>
        <polygon id="Path" fill="#000000" fill-rule="nonzero" points="60.5426357 66.5116279 60.5426357 105.736434 62.2419052 105.736434 62.248062 66.5116279"></polygon>
        <rect id="Rectangle" fill="#000000" fill-rule="nonzero" x="57.9844961" y="66.5116279" width="1.70542636" height="39.2248062"></rect>
        <path d="M55.8744374,37.1450857 C56.1509011,37.0846353 56.4374179,37.0191473 56.7189082,36.9435843 L57.2215694,36.7974958 C57.6789911,36.6614824 58.1163064,36.5103563 58.5385418,36.3441177 C59.7097313,35.9160593 60.8121685,35.3186689 61.8108662,34.5709055 C62.3561028,34.1720389 62.8187571,33.670739 63.173078,33.0949078 C63.2896056,32.890151 63.3759529,32.669572 63.4294352,32.4400283 L63.7662182,32.3493527 C63.9318683,32.5218171 64.121482,32.6694264 64.3291988,32.7876182 C64.9345822,33.1047769 65.5948489,33.3031163 66.2744976,33.3719722 C68.1909139,33.5662737 70.1267103,33.3953483 71.9797022,32.8682188 C73.6715443,32.4352126 75.2824099,31.7309476 76.749957,30.7826794 C78.0669294,29.8859982 78.7606018,29.0346549 78.8762139,28.1732364 L79.107438,28.1228611 C79.6452855,28.8029283 80.6908208,29.1857809 82.3144165,29.2915691 C84.0901834,29.3693246 85.8669272,29.1618425 87.5772793,28.6769899 C89.4875244,28.2037354 91.2939688,27.3805295 92.905488,26.2488982 C93.4751687,25.8417211 93.9615072,25.3286734 94.3380724,24.7376378 C94.6171287,24.3339058 94.7155059,23.8318224 94.6095094,23.3523157 C94.5522341,23.1531959 94.4547082,22.9680085 94.3229926,22.808262 L94.3229926,22.808262 L94.4235248,22.4808222 L94.2827797,22.2289455 C90.1659844,14.6726435 83.2242333,8.73339008 74.7694719,5.42876733 C66.7949188,2.39247466 58.1108559,1.74833159 49.7771571,3.57495457 C49.324762,3.67570526 48.8723669,3.78149349 48.4199718,3.89231925 L47.5805276,4.09885817 L47.0778664,4.24494668 C46.6304979,4.37088505 46.1881561,4.50186095 45.7458142,4.63787439 C37.4822705,7.19837851 30.1571607,12.1473067 24.6893366,18.8638723 C18.9891586,25.9819088 15.978218,34.6464685 16.2144688,43.2556153 L16.2144688,43.5377172 L16.4155332,43.7341811 C16.3726737,43.9316951 16.3726737,44.1361337 16.4155332,44.3336477 C16.5624282,44.8005056 16.8979269,45.1842438 17.3404299,45.39153 C17.9672017,45.7125037 18.6499057,45.9092076 19.3510747,45.9708465 C19.7965637,46.0225492 20.2447158,46.047781 20.6931801,46.0464625 C22.2090211,46.0276405 23.7160845,45.8126035 25.176918,45.4066426 C26.8704991,44.974945 28.4866556,44.2815298 29.9672792,43.3513284 C31.2591185,42.4999851 32.0432699,41.6284916 32.2895739,40.7569981 L32.5258247,40.6814351 L32.5258247,40.6814351 C33.1038851,41.331277 34.17958,41.688942 35.8132289,41.7796176 C37.6020754,41.8371713 39.3890828,41.6179826 41.111278,41.1297756 C43.0579128,40.6449627 44.9006671,39.8103371 46.5500722,38.6664212 C47.1315671,38.2600876 47.6312564,37.7473486 48.0228695,37.1551608 C48.1535531,36.9504557 48.2503102,36.7258999 48.3093864,36.4902062 L48.651196,36.3995306 C48.8140443,36.570927 49.000184,36.7184666 49.2041233,36.8377961 C49.7971982,37.1604351 50.4480434,37.3624472 51.1192625,37.4322252 C52.2381044,37.5742556 53.3709681,37.5640885 54.4870925,37.402 C54.9495408,37.3314745 55.4119891,37.2458364 55.8744374,37.1450857 Z M47.7614856,4.61772425 L47.9726033,4.89982619 L48.0128162,4.5522363 C48.7969677,4.64794945 49.5660394,4.75373768 50.3250578,4.86960098 C58.3149465,3.16573766 66.6255471,3.80586561 74.2617841,6.71333868 C82.3043633,9.85676032 88.9445177,15.5038367 92.9205678,22.6269107 L92.7798227,23.100439 L93.2472976,23.674718 L93.2472976,23.7049432 C93.2472976,23.7049432 93.2472976,23.7905813 93.1216323,24.0172703 C92.8336479,24.4452166 92.4689054,24.8158759 92.0459373,25.1104153 C90.5863412,26.1390061 88.950712,26.8902984 87.2203898,27.3269306 C85.6549566,27.768645 84.0299175,27.9607415 82.4048955,27.896172 C80.7863265,27.7853463 80.3238781,27.3924186 80.1982128,27.2513676 L79.6553388,26.5612253 L79.3085025,26.6367884 L79.3085025,26.6367884 L78.6399631,26.8131021 C78.6371092,26.7998209 78.6371092,26.786083 78.6399631,26.7728018 L77.6346407,26.9994909 L77.5089754,27.96166 C77.4838424,28.1581238 77.2827779,28.7122526 75.9758588,29.6038963 C74.6394014,30.4643374 73.1727661,31.1022811 71.632866,31.4929718 C69.9577138,31.9869371 68.2042504,32.1578781 66.4655089,31.9967253 C65.9632049,31.9500141 65.4739798,31.8099318 65.0228712,31.5836474 C64.7866205,31.447634 64.7614874,31.3670334 64.7614874,31.3670334 L64.585556,30.6920038 L61.9013452,31.4123712 L62.0772766,32.0874009 C62.0772766,32.0874009 62.0772766,32.183114 61.9666911,32.4148406 C61.7023617,32.8302139 61.3611092,33.1910177 60.9613687,33.4777605 C58.1427372,35.4230797 54.742098,36.3373421 51.3303802,36.0670533 C50.8411215,36.0158249 50.3655965,35.8740531 49.9279554,35.6489379 C49.6967313,35.5129245 49.6715982,35.4272864 49.6665716,35.4172113 L49.4604805,34.7421817 L46.7812963,35.4625491 L46.9572277,36.1325412 C46.9572277,36.1325412 46.9572277,36.2131418 46.8315624,36.4347933 C46.5319659,36.8705567 46.1554997,37.247841 45.7206812,37.5480885 C44.210127,38.5884098 42.5241771,39.3461759 40.7443353,39.7847539 C39.1619794,40.2303403 37.5216002,40.434135 35.8785749,40.389258 C34.2097397,40.2985824 33.7020519,39.9157298 33.5613068,39.7595662 L32.9631399,39.0845366 L31.1535596,39.653778 L30.9625484,40.3741454 C30.81175,40.8778989 30.1934767,41.5428535 29.2132874,42.1876579 C27.8563019,43.0341846 26.3781592,43.6678374 24.8300817,44.0666584 C23.1116241,44.5591357 21.3172985,44.7299073 19.5370593,44.5704118 C19.0219409,44.523588 18.5195465,44.3836359 18.0542088,44.157334 C17.817958,44.0465082 17.7928249,43.9507951 17.7928249,43.9507951 L17.9034104,43.2455402 L17.5967871,42.9432881 C17.4409621,34.7522567 20.3362906,26.5209251 25.7700582,19.7353658 C31.0136999,13.2865064 38.0257838,8.51640373 45.9418521,6.01312135 C46.5500722,5.54966816 47.1432124,5.08117744 47.7614856,4.61772425 Z" id="Shape" fill="#000000" fill-rule="nonzero"></path>
        <polygon id="Path" fill="#000000" fill-rule="nonzero" points="48.4852713 5.5127907 48.1186047 5.41899225 47.8713178 5.66627907 47.8713178 5.66627907"></polygon>
        <path d="M45.7462015,5.61703967 C33.2252429,15.5606262 28.4740305,26.5761245 31.6563995,38.372093 L32.3415273,38.2090834 C29.2683816,26.7835913 33.8309355,16.0842329 45.9199658,6.38763058 C46.3320203,5.60439894 46.8722867,4.89490645 47.5185974,4.28826432 L47.751938,4.54018827 L47.5434208,4.26356589 C46.9327634,4.70319788 46.3469295,5.16258862 45.7462015,5.61703967 Z" id="Path" fill="#000000" fill-rule="nonzero"></path>
        <path d="M47.8279142,4.26858185 C48.7247588,4.4746169 49.5806622,4.82721969 50.3604545,5.3119015 C65.9659681,7.73461012 75.4883198,14.8121295 78.6286699,26.3939808 C78.6257941,26.4072052 78.6257941,26.4208842 78.6286699,26.4341085 L79.3023256,26.2585499 L79.3023256,26.2585499 C76.0961295,14.2754218 66.2546777,6.99726402 50.1223957,4.57957136 C49.3575686,4.46420429 48.6028715,4.35886913 47.7924586,4.26356589 L47.751938,4.60966712 L47.8279142,4.26858185 Z" id="Path" fill="#000000" fill-rule="nonzero"></path>
        <path d="M47.8413439,5.11627907 C47.1305431,5.724814 46.5363312,6.43879321 46.0835869,7.22832328 C43.2668755,12.0593777 43.8635453,21.1836061 47.8843471,34.9612403 L48.6046512,34.7835917 C44.1430663,19.4860752 43.9549271,9.77955426 48.0671108,5.89102426 L48.2229975,5.74791846 L48.0348584,5.69857163 L48.1154894,5.36794789 L47.8413439,5.11627907 Z" id="Path" fill="#000000" fill-rule="nonzero"></path>
        <path d="M47.9432321,4.98977766 L48.1596965,5.04486959 C53.4555236,6.54737671 58.2278088,15.191801 62.4312457,30.6976744 L63.1007752,30.5173736 C59.3353012,16.539049 55.1671027,8.23519303 50.4199877,5.30530416 C49.6449717,4.82135699 48.7943109,4.46928865 47.9029597,4.26356589 L47.8274488,4.60413417 L47.751938,4.93969409 L47.9432321,4.98977766 Z" id="Path" fill="#000000" fill-rule="nonzero"></path>
        <path d="M4.47189187,106.855092 C5.22755879,107.055607 5.71925986,107.451359 5.71925986,107.81545 C5.71925986,108.343119 4.72550611,108.907725 3.39532531,108.907725 C2.06514451,108.907725 1.07139076,108.332566 1.07139076,107.81545 C1.07139076,107.451359 1.58897084,107.055607 2.32393455,106.855092 L2.32393455,105.736434 C0.962698945,106.021375 0,106.828709 0,107.81545 C0,109.039642 1.49063062,110 3.39532531,110 C5.30002,110 6.82170543,109.018536 6.82170543,107.81545 C6.82170543,106.828709 5.85900648,106.021375 4.49777088,105.736434 L4.47189187,106.855092 Z" id="Path" fill="#000000" fill-rule="nonzero"></path>
        <path d="M32.628456,105.736434 L32.628456,106.855092 C33.3870006,107.055607 33.8857696,107.451359 33.8857696,107.81545 C33.8857696,108.343119 32.8882316,108.907725 31.5529854,108.907725 C30.2177391,108.907725 29.2150056,108.332566 29.2150056,107.81545 C29.2150056,107.451359 29.7345566,107.055607 30.4723191,106.855092 L30.4723191,105.736434 C29.1058999,106.021375 28.1395349,106.828709 28.1395349,107.81545 C28.1395349,109.039642 29.6410374,110 31.5529854,110 C33.4649333,110 34.9612403,109.039642 34.9612403,107.81545 C34.9612403,106.828709 33.9948753,106.021375 32.628456,105.736434 Z" id="Path" fill="#000000" fill-rule="nonzero"></path>
        <path d="M30.3165068,106.788091 L30.3165068,107.179237 C30.2894475,107.568232 30.4819293,107.939814 30.8154993,108.142534 C31.1490694,108.345254 31.5680181,108.345254 31.9015882,108.142534 C32.2351583,107.939814 32.42764,107.568232 32.4005807,107.179237 L32.4005807,85.9620571 C32.4012805,83.7145414 31.3955053,81.5844587 29.6586425,80.1550388 L5.3025978,80.1550388 C3.565735,81.5844587 2.55995982,83.7145414 2.56065958,85.9620571 L2.56065958,107.179237 C2.5336003,107.568232 2.72608204,107.939814 3.05965212,108.142534 C3.3932222,108.345254 3.81217089,108.345254 4.14574096,108.142534 C4.47931104,107.939814 4.67179278,107.568232 4.6447335,107.179237 L4.6447335,85.9620571 C4.65026847,82.9463626 7.09855698,80.5038119 10.1185662,80.5010528 L24.8426741,80.5010528 C27.8626833,80.5038119 30.3109718,82.9463626 30.3165068,85.9620571 L30.3165068,106.788091 L30.3165068,106.788091 Z" id="Path" fill="#000000" fill-rule="nonzero"></path>
        <path d="M31.8553093,80.1550388 C32.2289575,80.1537391 32.5866936,80.0081029 32.8494724,79.7503099 C33.1122513,79.4925168 33.2584417,79.1437877 33.2557782,78.7811775 L33.2557782,76.3978483 C33.2529584,75.648366 32.6275909,75.0414606 31.8553093,75.0387597 L3.10585848,75.0387597 C2.33357688,75.0414606 1.70820938,75.648366 1.70542636,76.3978483 L1.70542636,78.7811775 C1.70820938,79.5306598 2.33357688,80.1375652 3.10585848,80.1402661 L31.8553093,80.1402661 L31.8553093,80.1550388 Z M3.10585848,76.412621 L31.8553093,76.412621 L31.8553093,78.7811775 L3.10585848,78.7811775 L3.10585848,76.3978483 L3.10585848,76.412621 Z" id="Shape" fill="#000000" fill-rule="nonzero"></path>
        <path d="M89.760239,106.855092 C90.5187835,107.055607 91.0175526,107.451359 91.0175526,107.81545 C91.0175526,108.343119 90.014819,108.907725 88.6795728,108.907725 C87.3443266,108.907725 86.3467885,108.332566 86.3467885,107.81545 C86.3467885,107.451359 86.8663396,107.055607 87.6041021,106.855092 L87.6041021,105.736434 C86.2376828,106.021375 85.2713178,106.828709 85.2713178,107.81545 C85.2713178,109.039642 86.7676249,110 88.6795728,110 C90.5915207,110 92.0930233,109.039642 92.0930233,107.81545 C92.0930233,106.828709 91.1266583,106.021375 89.760239,105.736434 L89.760239,106.855092 Z" id="Path" fill="#000000" fill-rule="nonzero"></path>
        <path d="M117.899774,105.736434 L117.899774,106.855092 C118.658318,107.055607 119.157087,107.451359 119.157087,107.81545 C119.157087,108.343119 118.159549,108.907725 116.824303,108.907725 C115.489057,108.907725 114.491519,108.332566 114.491519,107.81545 C114.491519,107.451359 114.985092,107.055607 115.743637,106.855092 L115.743637,105.736434 C114.377218,106.021375 113.410853,106.828709 113.410853,107.81545 C113.410853,109.039642 114.912355,110 116.824303,110 C118.736251,110 120.232558,109.039642 120.232558,107.81545 C120.232558,106.828709 119.266193,106.021375 117.899774,105.736434 Z" id="Path" fill="#000000" fill-rule="nonzero"></path>
        <path d="M115.587825,106.788091 L115.587825,107.179237 C115.560765,107.568232 115.753247,107.939814 116.086817,108.142534 C116.420387,108.345254 116.839336,108.345254 117.172906,108.142534 C117.506476,107.939814 117.698958,107.568232 117.671899,107.179237 L117.671899,85.9620571 C117.672598,83.7145414 116.666823,81.5844587 114.92996,80.1550388 L90.5739156,80.1550388 C88.8370528,81.5844587 87.8312776,83.7145414 87.8319774,85.9620571 L87.8319774,107.179237 C87.8049181,107.568232 87.9973999,107.939814 88.3309699,108.142534 C88.66454,108.345254 89.0834887,108.345254 89.4170588,108.142534 C89.7506289,107.939814 89.9431106,107.568232 89.9160513,107.179237 L89.9160513,85.9620571 C89.9215863,82.9463626 92.3698748,80.5038119 95.3898841,80.5010528 L110.113992,80.5010528 C113.134001,80.5038119 115.58229,82.9463626 115.587825,85.9620571 L115.587825,106.788091 L115.587825,106.788091 Z" id="Path" fill="#000000" fill-rule="nonzero"></path>
        <path d="M117.126696,80.1550388 C117.89898,80.1523301 118.524349,79.5436672 118.527132,78.7920146 L118.527132,76.4017838 C118.524349,75.6501312 117.89898,75.0414684 117.126696,75.0387597 L88.3771795,75.0387597 C87.6048962,75.0414684 86.9795272,75.6501312 86.9767442,76.4017838 L86.9767442,78.7771991 C86.9795272,79.5288517 87.6048962,80.1375146 88.3771795,80.1402233 L117.126696,80.1402233 L117.126696,80.1550388 Z M88.3771795,76.4017838 L117.126696,76.4017838 L117.126696,78.7771991 L88.3771795,78.7771991 L88.3771795,76.3869684 L88.3771795,76.4017838 Z" id="Shape" fill="#000000" fill-rule="nonzero"></path>
        <path d="M59.4126764,66.5116279 L87.4566267,66.5116279 C88.6044164,66.5116279 89.5348837,65.5949317 89.5348837,64.4641295 L89.5348837,63.4428472 C89.5348837,62.8998169 89.3159251,62.3790277 88.9261763,61.9950472 C88.5364275,61.6110668 88.0078147,61.3953488 87.4566267,61.3953488 L32.7759314,61.3953488 C31.6281418,61.3953488 30.6976744,62.3120451 30.6976744,63.4428472 L30.6976744,64.4641295 C30.6976744,65.5949317 31.6281418,66.5116279 32.7759314,66.5116279 L59.4126764,66.5116279 L59.4126764,66.5116279 Z M32.0648169,64.4641295 L32.0648169,63.4428472 C32.0648169,63.0668214 32.3742254,62.7619923 32.7559001,62.7619923 L87.4416031,62.7619923 C87.8232778,62.7619923 88.1326862,63.0668214 88.1326862,63.4428472 L88.1326862,64.4641295 C88.1326862,64.8401553 87.8232778,65.1449844 87.4416031,65.1449844 L32.7759314,65.1449844 C32.5891993,65.1503191 32.4082291,65.0809484 32.2742606,64.9526806 C32.1402921,64.8244127 32.0648169,64.6481754 32.0648169,64.4641295 Z" id="Shape" fill="#000000" fill-rule="nonzero"></path>
        <path d="M71.2488151,104.883721 L48.9837431,104.883721 C47.8336439,104.886548 46.9019928,105.838174 46.8992248,107.012932 L46.8992248,109.147287 L73.3333333,109.147287 L73.3333333,107.012932 C73.3305653,105.838174 72.3989142,104.886548 71.2488151,104.883721 L71.2488151,104.883721 Z M59.7638243,106.303195 L71.2488151,106.303195 C71.6325643,106.303195 71.9436545,106.620955 71.9436545,107.012932 L71.9436545,107.72267 L48.2788335,107.72267 L48.2788335,107.012932 C48.2788335,106.620955 48.5899237,106.303195 48.9736729,106.303195" id="Shape" fill="#000000" fill-rule="nonzero"></path>
        <path d="M59.0052795,52.7991034 C59.4564172,52.8912549 59.92153,52.8912549 60.3726677,52.7991034 C62.0877694,52.4485301 63.2590576,50.8566386 63.0833569,49.1150203 C62.9076561,47.3734021 61.4420103,46.0475001 59.6914418,46.0465116 L59.5384128,46.0465116 C59.0789256,46.0654909 58.6284042,46.179795 58.2154524,46.3821668 C56.8948285,47.0153562 56.1258309,48.4208562 56.3047383,49.8743866 C56.4836457,51.3279169 57.570522,52.5050163 59.0052795,52.7991034 L59.0052795,52.7991034 Z M59.6914418,47.4138127 C60.5204775,47.4138127 61.267787,47.9134479 61.5845821,48.67952 C61.9013772,49.445592 61.7251998,50.3270673 61.1382763,50.9125392 C60.5513528,51.4980112 59.6693989,51.6720502 58.9040446,51.353428 C58.1386903,51.0348058 57.6408301,50.2863408 57.6428218,49.4573602 C57.6455494,48.3279421 58.5619485,47.4138127 59.6914418,47.4138127 L59.6914418,47.4138127 Z" id="Shape" fill="#000000" fill-rule="nonzero"></path>
    </g>
</svg>