<?xml version="1.0" encoding="UTF-8"?>
<svg width="102.997802px" height="110px" viewBox="0 0 102.997802 110" version="1.1" xmlns="http://www.w3.org/2000/svg" xmlns:xlink="http://www.w3.org/1999/xlink">
    <title>kuvitukset_image14</title>
    <g id="kuvitukset_image14" stroke="none" stroke-width="1" fill="none" fill-rule="evenodd">
        <path d="M58.8426466,0.477314107 L1.10769231,0.748997486 L1.10769231,86.1652266 L42.4998289,86.1652266 L42.4998289,75.2773871 L10.3642883,75.2773871 L10.3642883,73.0475329 L42.4998289,73.0475329 L42.4998289,69.6950626 L10.3642883,69.6950626 L10.3642883,67.4652084 L42.4998289,67.4652084 L42.4998289,64.112738 L10.3642883,64.112738 L10.3642883,61.8931361 L42.4998289,61.8931361 L42.4998289,58.5406657 L10.3642883,58.5406657 L10.3642883,56.3108116 L42.4998289,56.3108116 L42.4998289,52.9583412 L10.3642883,52.9583412 L10.3642883,50.7182348 L42.4998289,50.7182348 L42.4998289,47.3657645 L10.3642883,47.3657645 L10.3642883,45.1359103 L42.4998289,45.1359103 L42.4998289,41.7834399 L10.3642883,41.7834399 L10.3642883,39.5535858 L42.4998289,39.5535858 L42.4998289,36.2011154 L10.3642883,36.2011154 L10.3642883,33.9661352 L42.4998289,33.9661352 L42.4998289,30.623917 L10.3642883,30.623917 L10.3642883,28.3838106 L42.4998289,28.3838106 L42.4998289,25.0364664 L10.3642883,25.0364664 L10.3642883,22.8014861 L42.4998289,22.8014861 L42.4998289,21.3969343 L59.1076923,21.3969343 L58.8426466,0.477314107 Z M10.3642883,11.6573415 L26.162012,11.6573415 L26.162012,13.8923217 L10.3642883,13.8923217 L10.3642883,11.6573415 Z M51.2113309,19.4746462 L10.3642883,19.4746462 L10.3642883,17.2191616 L51.2113309,17.2191616 L51.2113309,19.4746462 Z" id="Shape"></path>
        <path d="M81.0480936,23.1897729 L42.1076923,23.1897729 L42.1076923,108.877685 L101.107692,108.877685 L101.107692,43.5189241 C101.107692,35.1825836 96.823897,28.0136393 96.3272978,27.2113758 C95.7404078,26.7536741 90.8446418,23.1897729 81.0480936,23.1897729 Z M51.397609,34.1128989 L67.2386224,34.1128989 L67.2386224,36.3499798 L51.397609,36.3499798 L51.397609,34.1128989 Z M92.3695525,97.9597021 L51.397609,97.9597021 L51.397609,95.7174784 L92.3695525,95.7174784 L92.3695525,97.9597021 Z M92.3695525,92.3592857 L51.397609,92.3592857 L51.397609,90.1170621 L92.3695525,90.1170621 L92.3695525,92.3592857 Z M92.3695525,86.7588694 L51.397609,86.7588694 L51.397609,84.5166458 L92.3695525,84.5166458 L92.3695525,86.7588694 Z M92.3695525,81.1533104 L51.397609,81.1533104 L51.397609,78.9162295 L92.3695525,78.9162295 L92.3695525,81.1533104 Z M92.3695525,75.5528941 L51.397609,75.5528941 L51.397609,73.3158132 L92.3695525,73.3158132 L92.3695525,75.5528941 Z M92.3695525,69.9524777 L51.397609,69.9524777 L51.397609,67.7153968 L92.3695525,67.7153968 L92.3695525,69.9524777 Z M92.3695525,64.3520614 L51.397609,64.3520614 L51.397609,62.1149805 L92.3695525,62.1149805 L92.3695525,64.3520614 Z M92.3695525,58.7516451 L51.397609,58.7516451 L51.397609,56.5145642 L92.3695525,56.5145642 L92.3695525,58.7516451 Z M92.3695525,53.1512288 L51.397609,53.1512288 L51.397609,50.9141479 L92.3695525,50.9141479 L92.3695525,53.1512288 Z M92.3695525,47.5508124 L51.397609,47.5508124 L51.397609,45.3137315 L92.3695525,45.3137315 L92.3695525,47.5508124 Z M92.3695525,41.9503961 L51.397609,41.9503961 L51.397609,39.7133152 L92.3695525,39.7133152 L92.3695525,41.9503961 Z" id="Shape"></path>
        <rect id="Rectangle" fill="#000000" fill-rule="nonzero" x="10.1076923" y="11.8335435" width="16" height="2.06476898"></rect>
        <rect id="Rectangle" fill="#000000" fill-rule="nonzero" x="10.1076923" y="19.0602349" width="41" height="2.06476898"></rect>
        <rect id="Rectangle" fill="#000000" fill-rule="nonzero" x="9.10769231" y="24.2221573" width="32" height="2.06476898"></rect>
        <rect id="Rectangle" fill="#000000" fill-rule="nonzero" x="9.10769231" y="29.3840798" width="32" height="2.06476898"></rect>
        <rect id="Rectangle" fill="#000000" fill-rule="nonzero" x="9.10769231" y="34.5460022" width="32" height="2.06476898"></rect>
        <rect id="Rectangle" fill="#000000" fill-rule="nonzero" x="9.10769231" y="39.7079247" width="32" height="2.06476898"></rect>
        <rect id="Rectangle" fill="#000000" fill-rule="nonzero" x="9.10769231" y="45.9022316" width="32" height="2.06476898"></rect>
        <rect id="Rectangle" fill="#000000" fill-rule="nonzero" x="9.10769231" y="53.128923" width="32" height="2.06476898"></rect>
        <rect id="Rectangle" fill="#000000" fill-rule="nonzero" x="9.10769231" y="58.2908455" width="32" height="2.06476898"></rect>
        <rect id="Rectangle" fill="#000000" fill-rule="nonzero" x="9.10769231" y="63.4527679" width="32" height="2.06476898"></rect>
        <rect id="Rectangle" fill="#000000" fill-rule="nonzero" x="9.10769231" y="68.6146903" width="32" height="2.06476898"></rect>
        <rect id="Rectangle" fill="#000000" fill-rule="nonzero" x="9.10769231" y="73.7766128" width="32" height="2.06476898"></rect>
        <path d="M98.1019918,26.897055 L97.9974991,26.7743152 C97.7885136,26.6004339 92.8425232,22.4681941 82.0747938,22.4681941 L59.987016,22.4681941 L59.7083686,0.477314107 L0.107692308,0.748364488 L0.107692308,88.2004686 L42.4023783,88.2004686 L42.4023783,109.91007 L103.107692,109.91007 L103.107692,43.7993477 C103.067886,34.7319453 98.3010256,27.2090187 98.1019918,26.897055 Z M42.3725232,23.8592451 L42.3725232,87.0753538 L1.19242661,87.0753538 L1.19242661,1.8581368 L58.6385619,1.58708642 L58.9022817,22.4579658 L42.3774991,22.4579658 L42.3725232,23.8592451 Z M101.983151,108.795183 L43.4572575,108.795183 L43.4572575,23.5830806 L82.0847454,23.5830806 C91.8025715,23.5830806 96.6589967,27.1271921 97.2411706,27.5823522 C97.7387551,28.3801609 101.983151,35.5092973 101.983151,43.7993477 L101.983151,108.795183 Z" id="Shape" fill="#000000" fill-rule="nonzero"></path>
        <rect id="Rectangle" fill="#000000" fill-rule="nonzero" x="52.1076923" y="34.5460022" width="16" height="2.06476898"></rect>
        <rect id="Rectangle" fill="#000000" fill-rule="nonzero" x="52.1076923" y="39.7079247" width="41" height="2.06476898"></rect>
        <rect id="Rectangle" fill="#000000" fill-rule="nonzero" x="52.1076923" y="45.9022316" width="41" height="2.06476898"></rect>
        <rect id="Rectangle" fill="#000000" fill-rule="nonzero" x="52.1076923" y="51.064154" width="41" height="2.06476898"></rect>
        <rect id="Rectangle" fill="#000000" fill-rule="nonzero" x="52.1076923" y="57.258461" width="41" height="2.06476898"></rect>
        <rect id="Rectangle" fill="#000000" fill-rule="nonzero" x="52.1076923" y="62.4203834" width="41" height="2.06476898"></rect>
        <rect id="Rectangle" fill="#000000" fill-rule="nonzero" x="52.1076923" y="67.5823059" width="41" height="2.06476898"></rect>
        <rect id="Rectangle" fill="#000000" fill-rule="nonzero" x="52.1076923" y="73.7766128" width="41" height="2.06476898"></rect>
        <rect id="Rectangle" fill="#000000" fill-rule="nonzero" x="52.1076923" y="78.9385352" width="41" height="2.06476898"></rect>
        <rect id="Rectangle" fill="#000000" fill-rule="nonzero" x="52.1076923" y="85.1328422" width="41" height="2.06476898"></rect>
        <rect id="Rectangle" fill="#000000" fill-rule="nonzero" x="52.1076923" y="91.3271491" width="41" height="2.06476898"></rect>
        <rect id="Rectangle" fill="#000000" fill-rule="nonzero" x="52.1076923" y="96.4890715" width="41" height="2.06476898"></rect>
    </g>
</svg>