<?xml version="1.0" encoding="UTF-8"?>
<svg width="107.20339px" height="110px" viewBox="0 0 107.20339 110" version="1.1" xmlns="http://www.w3.org/2000/svg" xmlns:xlink="http://www.w3.org/1999/xlink">
    <title>kuvitukset_image3</title>
    <g id="kuvitukset_image3" stroke="none" stroke-width="1" fill="none" fill-rule="evenodd">
        <path d="M25.187951,74.8169323 C24.6848861,72.3320514 22.5563685,70.6734544 20.2666205,70.9821019 C17.9768725,71.2907495 16.2725256,73.465999 16.326012,76.0114811 C16.3249441,76.6704088 16.4393836,77.3233413 16.663022,77.9342855 L16.9952854,78.8459148 L16.2215864,79.3226865 C14.6191258,80.3249614 13.6317703,82.2041142 13.6394253,84.237102 C13.6280529,85.7141191 14.1497158,87.1354025 15.0892537,88.1871954 C16.0287916,89.2389882 17.3089438,89.8347989 18.6471091,89.8430984 C19.5256245,89.8401773 20.3869313,89.5739819 21.1390844,89.0729288 C21.0107282,88.6219203 20.945111,88.152026 20.944473,87.6792886 C20.94393,87.3873381 20.9693674,87.0960346 21.0204189,86.8095733 C20.4850786,85.8909409 20.201573,84.8211594 20.2040003,83.7288949 C20.1623554,81.8495215 21.0115143,80.0821756 22.4444048,79.0659633 C22.668068,77.2368592 23.6945221,75.647152 25.187951,74.8169323 Z" id="Path"></path>
        <path d="M29.9160557,82.0647094 L29.1893648,81.5960818 L29.5222361,80.7673508 C29.6951914,80.3435886 29.7829827,79.8867697 29.7800942,79.4255958 C29.88759,78.3296949 29.4017564,77.2629721 28.5225906,76.6645525 C27.6434248,76.0661329 26.5195347,76.0371691 25.6135789,76.5895842 C24.7076231,77.1419993 24.1727378,78.1824171 24.2291129,79.2825411 L24.2291129,79.4453275 L23.2914471,79.4453275 L23.6290068,80.2740585 C22.6280209,80.7821725 22.0052057,81.8627541 22.0396633,83.0315623 C22.0340226,83.7647025 22.2691928,84.4773972 22.705406,85.0491276 L23.019524,85.4536273 L22.8788742,86.0406451 C22.8073899,86.271616 22.7709984,86.5130101 22.7710426,86.7559188 C22.706544,87.8056151 23.4572402,88.7142849 24.4541527,88.7932159 C24.864008,88.7844414 25.2543598,88.6074083 25.5418449,88.2999236 L26.141951,87.6783754 L26.8217587,88.2061981 C27.2972913,88.5792515 27.8742025,88.7815879 28.4673621,88.78335 C30.1317189,88.78335 31.4866459,87.1801502 31.4866459,85.2069811 C31.5088047,83.9457476 30.9162533,82.7602329 29.9160557,82.0647094 L29.9160557,82.0647094 Z" id="Path"></path>
        <path d="M67.2096312,11.5784735 L65.6268937,12.0162617 C64.4482914,12.2962405 63.2931058,12.6629714 62.1712502,13.1133071 L62.0551828,13.1854134 C61.993996,13.273831 61.9526445,13.3738762 61.9338396,13.478989 C62.1301974,13.6206824 62.3612616,13.7094913 62.6038651,13.7365114 C64.0283288,14.0300869 67.8532778,14.1897508 74.2580888,14.2515562 L75.6983799,13.8549717 C76.7113319,13.5768475 78.5947895,13.0515018 79.0063012,12.6497668 C79.417813,12.2480318 79.7238089,11.9390049 80.0614595,11.583624 C82.1717762,9.41013482 84.1713012,7.59717701 86.6984054,7.24694653 C87.0742126,6.23456917 87.6907929,5.32372865 88.4974503,4.58931521 L88.6504483,4.460554 C88.8343608,4.30296195 89.0281844,4.15674746 89.2307854,4.0227659 L89.0461327,3.62103093 C88.6643846,2.79802376 88.0675976,2.08752571 87.315673,1.56085161 C85.3372296,0.178128281 82.6447865,0.30390286 80.810622,1.86472806 L80.6787272,1.97803792 C79.9639987,2.62876496 79.4504074,3.46203467 79.1962297,4.38329728 L79.037956,4.95499704 L78.2887936,4.98074928 C76.1784769,5.13011228 74.4005351,6.74735305 72.3377006,8.83843505 C71.9578436,9.22986913 71.593814,9.59555095 71.2245086,9.95608234 C70.5597589,10.6050388 69.0719856,11.0582783 67.2096312,11.5784735 Z" id="Path"></path>
        <path d="M80.8634596,57.4571586 L80.5778492,57.29674 C80.1294039,57.5689243 79.6569067,57.8037473 79.1656647,57.9985714 C79.3613607,65.157252 78.5203968,69.7793133 76.632195,71.9950954 L82.9314902,71.9950954 C81.2231171,69.7392087 80.5355366,64.9416895 80.8634596,57.4571586 Z" id="Path"></path>
        <path d="M68.7737238,46.6884262 L68.6378377,47.14988 C68.4224391,47.8849854 68.3133614,48.6461292 68.3138015,49.4110037 C68.3138015,53.7589241 71.7945773,57.29674 76.0749909,57.29674 C77.6937484,57.2975051 79.2697411,56.7869319 80.5696864,55.8405935 L81.0609671,55.481685 L81.5522478,55.8405935 C82.851846,56.7875879 84.4280665,57.2982348 86.0469433,57.29674 C90.3273569,57.29674 93.8081328,53.7589241 93.8081328,49.4110037 C93.8074841,48.7756706 93.7320733,48.1425349 93.583398,47.5241703 L93.4684174,47.0473347 L93.8394911,46.7191897 C95.5902589,45.1953494 96.5879832,43.0061225 96.5781195,40.7100356 C96.6685399,36.5685365 93.4220655,33.0899925 89.2089094,32.814048 L88.6287801,32.7832845 L88.4563092,32.270558 C87.4958108,29.050291 84.4810857,26.8406721 81.060935,26.8501466 C77.6407844,26.8596822 74.6388686,29.0860221 73.6969834,32.3115761 L73.5349653,32.8243026 L73.0123262,32.8858298 C69.0269115,33.4056736 66.0701518,36.7714331 66.1343968,40.7151629 C66.1195035,42.8237885 66.9577953,44.8521108 68.4653668,46.355154 L68.7737238,46.6884262 Z" id="Path"></path>
        <path d="M34.3544107,61.058838 C34.0149692,60.8651571 33.6809157,60.6662416 33.3522501,60.4463876 C32.6912036,60.8871699 31.9937817,61.2741046 31.2671095,61.6032384 C31.4556881,67.7486813 31.1809022,72.7372734 30.4373637,76.6056569 C31.6011375,77.694409 32.2569824,79.1975477 32.2531062,80.7671792 C32.2546184,81.2560455 32.1930755,81.7431696 32.0699156,82.2171687 C32.8242504,82.8640063 33.4049475,83.6797178 33.7617351,84.5936858 L37.7865414,84.5936858 C34.9848021,81.1283679 33.8425545,73.360193 34.3544107,61.058838 Z" id="Path"></path>
        <path d="M57.8228247,59.6778141 L57.8228247,59.8434221 L57.3797476,59.8434221 L57.5211552,60.1997304 C56.3386793,60.8087515 55.6009683,62.098805 55.6357208,63.4968366 C55.6297428,64.3660638 55.9043002,65.2111162 56.4134625,65.890626 L56.5737244,66.0963815 L56.5124478,66.3573397 C56.4184946,66.6583675 56.370746,66.9735549 56.3710402,67.290767 C56.3040247,68.6512988 57.280757,69.814463 58.5581442,69.8953303 C59.1002103,69.8900125 59.6184571,69.6574065 60.0005015,69.2479533 L60.302171,68.9317925 L60.6462628,69.2027875 C61.2108063,69.6491252 61.8945176,69.8917681 62.5976875,69.8953303 C64.5443986,69.8953303 66.1328771,68.0234573 66.1328771,65.7199995 C66.1543973,64.2546802 65.4695405,62.8797148 64.3181465,62.0766219 L63.9552003,61.8357374 L64.1201758,61.4141896 C64.3195261,60.9159655 64.422141,60.3799516 64.4218453,59.8384037 C64.4479474,58.5833659 63.8431835,57.4088374 62.8353625,56.7572515 C61.8275415,56.1056657 60.5697753,56.076014 59.5358522,56.6794659 C58.5019291,57.2829179 57.8489268,58.4277947 57.8228247,59.6828325 L57.8228247,59.6778141 Z" id="Path"></path>
        <path d="M70.8345884,18.6469254 C70.684958,18.4340141 70.5791647,18.1932562 70.5234096,17.9387637 L70.4871054,17.7825515 L70.4871054,17.6211323 C70.5324658,17.0711049 70.7758355,16.5565021 71.1716988,16.1735666 C67.2767773,16.0954605 64.8547689,15.9392484 63.7085936,15.6997231 C63.0601295,15.610673 62.467266,15.2843129 62.0437869,14.7832786 C61.8924416,14.5707159 61.7848847,14.3299572 61.7274218,14.0751169 L61.6911176,13.9189048 L61.6911176,13.7574856 C61.8518933,12.7160714 62.2097489,12.3411622 62.7283803,12.028738 C63.2470117,11.7163137 64.5332174,11.299748 66.5143892,10.7530055 L68.0702833,10.3104045 C69.0608691,10.0292227 70.9123831,9.4981014 71.3169155,9.09194985 C71.721448,8.6857983 72.0222542,8.37337404 72.3541782,8.01408613 C72.6134939,7.74331843 72.8728096,7.49337902 73.1217527,7.22261132 C69.2859132,1.04936134 61.3924815,-1.16551935 54.9246148,2.1165319 C48.4567482,5.39858314 45.5516962,13.0930413 48.2274476,19.8549659 C48.2793108,19.9695214 48.3363602,20.0788699 48.383037,20.1986325 C53.4710214,20.8227181 57.8415543,24.1231642 59.8499763,28.8579918 C66.2337077,29.5929803 72.2932263,25.8601968 74.5324299,19.8133093 C73.8519424,19.7726231 73.1746646,19.6891463 72.5045813,19.5633699 C71.8542567,19.4755454 71.2593507,19.149078 70.8345884,18.6469254 Z" id="Path"></path>
        <path d="M102.649227,11.7039904 L102.321959,11.5857105 L102.176507,11.2720117 C101.782697,10.4124247 101.150385,9.68123584 100.353162,9.16354417 C99.5624417,8.6525613 98.6514672,8.35313056 97.7090519,8.29444415 L97.2207486,8.25330332 L97.0181547,7.81103941 C96.1822111,5.97795525 94.3381578,4.80050296 92.3065475,4.80261344 C91.0604019,4.80455686 89.8564838,5.24990012 88.9143981,6.05741157 L88.7845302,6.17054885 C88.0790278,6.8188733 87.5730038,7.65140912 87.3248151,8.57214475 L87.1689736,9.14811635 L86.4365187,9.20468499 C84.3274641,9.3486779 82.6080132,10.9634554 80.5768793,13.0564951 L79.4807943,14.1724401 C78.8210654,14.8204082 77.3561555,15.2678147 75.5068367,15.7872177 L73.948422,16.224339 C72.7886151,16.5062697 71.6513591,16.8723849 70.5458832,17.3197135 L70.4315994,17.3968526 C70.3809577,17.4841198 70.3474678,17.5800917 70.3328998,17.6796958 C70.5319827,17.8142028 70.7593568,17.9021298 70.9978234,17.936826 C72.5562382,18.2556674 76.9873307,18.4202307 84.5768104,18.4510863 L101.490805,18.4510863 C102.8295,18.4461468 104.048171,17.6859514 104.63045,16.4926057 C105.212729,15.29926 105.056678,13.8816767 104.22842,12.8405058 C103.821525,12.3210966 103.27383,11.9269314 102.649227,11.7039904 L102.649227,11.7039904 Z" id="Path"></path>
        <path d="M46.3754498,62.4400559 C46.2526796,62.9194969 46.1889792,63.4119712 46.1857473,63.9066656 C46.1629746,67.1837564 48.8133426,69.8617303 52.1126692,69.8953303 C53.2951517,69.8973339 54.450291,69.5421261 55.4247727,68.8768429 L55.4760436,68.8411961 C55.2547369,68.3422202 55.1412081,67.8027049 55.1427825,67.2574613 C55.1412885,66.9316232 55.1791578,66.6067838 55.2555786,66.2899063 C54.6566666,65.4469432 54.337621,64.4393159 54.3429556,63.4076109 C54.3187608,61.6778795 55.2440212,60.0720716 56.7578174,59.21657 C56.910392,57.3677962 58.1012109,55.7631858 59.8340745,55.0713606 C59.5704644,53.3132152 58.4607737,51.7929666 56.8603593,50.9974448 C55.9338729,56.5271285 51.831188,61.0045565 46.3754498,62.4400559 L46.3754498,62.4400559 Z" id="Path"></path>
        <path d="M46.5175385,22.8720588 L45.8107287,22.8264712 L45.5648819,22.1882449 C43.9241465,17.4413657 39.4129648,14.2515562 34.3404357,14.2515562 C29.2679066,14.2515562 24.756725,17.4413657 23.1159896,22.1882449 L22.89063,22.8214059 L22.2094293,22.8923199 C16.0596476,23.6105228 11.453362,28.8089443 11.5406995,34.9325099 C11.5315585,37.9766794 12.6733149,40.9142931 14.7418306,43.1686684 L15.1823063,43.6448055 L14.9876775,44.2475748 C14.5167467,45.5687156 14.277699,46.9597636 14.2808677,48.3605888 C14.2808677,55.026508 19.6382808,60.4463876 26.2300499,60.4463876 C28.8376234,60.4479227 31.370771,59.5867069 33.4261927,57.9998321 L34.0869061,57.4933033 L34.7527414,57.9998321 C36.8123112,59.5899182 39.3514125,60.4513189 41.9642496,60.4463876 C48.550897,60.4463876 53.9134318,55.026508 53.9134318,48.3605888 C53.9134135,47.225394 53.7566025,46.0955216 53.4473471,45.0023027 L53.2629619,44.3691417 L53.7751429,43.9183311 C56.3031174,41.5993833 57.7381116,38.3424791 57.7343094,34.9325099 C57.703571,28.5705079 52.7917554,23.2722165 46.5175385,22.8720588 Z" id="Path"></path>
        <path d="M107.04639,13.0250135 C106.521889,12.3539009 105.833197,11.8249457 105.044786,11.4876652 C104.517896,10.4783645 103.735264,9.62044645 102.772836,8.997161 C101.881999,8.42540097 100.873314,8.0560635 99.8198202,7.91589272 C98.6289128,5.73794188 96.3199086,4.38144216 93.8098096,4.38511619 C93.3895029,4.38403403 92.9700183,4.42177867 92.5568575,4.49785506 C92.051782,4.31712169 91.5291082,4.1883251 90.9971662,4.113518 C90.5051379,3.22509345 89.8176789,2.45643403 88.9851644,1.86386503 C86.4079554,0.0420454755 82.8972309,0.20975968 80.5108414,2.26870007 L80.3652702,2.39681243 C79.5639507,3.1231795 78.9537536,4.0306392 78.5872221,5.04105145 C76.8871585,5.27677819 75.4678394,6.19406266 74.0329233,7.43419026 C70.1680604,1.79733534 63.0225267,-0.691807948 56.4225517,1.29962565 C49.8225768,3.29105924 45.3151243,9.29629889 45.3138067,16.09971 C45.3138067,16.4686736 45.3138067,16.8376372 45.3605974,17.2014763 C42.0735745,13.5943447 37.1255552,11.9227861 32.2847705,12.7841509 C27.4439858,13.6455157 23.4012571,16.9168798 21.6012993,21.429184 C14.5410404,22.5622792 9.37616416,28.6043075 9.44030387,35.65478 C9.43386303,39.0550811 10.6370869,42.3500947 12.8410329,44.965986 C12.4144133,46.3515393 12.198905,47.7918577 12.2015595,49.2398142 C12.2015595,57.1827803 18.6326868,63.639643 26.5351229,63.639643 C27.8110239,63.6382596 29.0808084,63.4658637 30.309576,63.1271936 C30.4787584,67.3686376 30.2647569,71.6165082 29.6701025,75.8205658 C29.1886748,75.6726264 28.6874755,75.5966234 28.1831968,75.5950881 L28.1052122,75.5950881 C27.259798,72.1313957 23.9148653,69.8422016 20.3269457,70.2718235 C16.7390261,70.7014454 14.0474514,73.7134582 14.0679901,77.2759222 C14.0687192,77.8949505 14.1490777,78.5113896 14.3071428,79.1104911 C12.3022486,80.5620771 11.1202467,82.8693712 11.1253724,85.3213781 C11.105214,89.5202341 14.539204,92.9417227 18.7990538,92.9671235 C20.0509498,92.9697938 21.2838125,92.6651129 22.3863439,92.080586 C23.127867,92.5773049 23.9842488,92.8821727 24.8766511,92.9671235 C25.0024917,92.9834754 25.1292487,92.992746 25.256176,92.992746 L25.432941,92.992746 C26.1789485,92.9728145 26.9123293,92.7982071 27.5853151,92.4802966 C28.2793003,92.8116554 29.0393773,92.9866994 29.8104747,92.992746 C32.8726687,92.992746 35.3629759,90.3536315 35.3629759,87.1047021 L35.3629759,87.0175857 L44.721124,87.0175857 L44.721124,84.8448002 L43.099045,84.8448002 C42.1732441,84.8431163 41.2979165,84.4286766 40.7179162,83.7174114 C37.9884564,80.6837109 37.3437839,72.3974037 37.6765181,62.8043505 C39.2269161,63.3646237 40.8654487,63.6508588 42.5167602,63.649892 C43.2953602,63.6493504 44.0726066,63.5859362 44.8407003,63.4602857 C44.7664386,63.8662851 44.7264429,64.2776526 44.721124,64.6901644 C44.6980507,68.5878946 47.8790202,71.7691348 51.8333165,71.8029623 C53.1159899,71.807106 54.3750718,71.4631592 55.4725963,70.8088105 C56.3115169,71.4544298 57.3456778,71.8044354 58.410015,71.8029623 L58.4828006,71.8029623 C59.2475217,71.794277 59.9986527,71.6025895 60.6715675,71.2443925 C61.3526865,71.6108237 62.1155686,71.8045354 62.8915282,71.8080868 C65.6469829,71.8080868 67.8929384,69.4098235 67.8929384,66.4581149 C67.9098778,64.7445627 67.1160936,63.1210084 65.7457633,62.0664233 C65.9187745,61.5453588 66.0065222,61.0004676 66.0057119,60.4522076 C66.0756926,57.8003372 63.9594314,55.5907465 61.2694492,55.5070707 C61.0956973,55.5075471 60.9221152,55.5178129 60.749552,55.5378176 C60.3809417,53.335317 58.8995633,51.4695607 56.8191299,50.5875562 C56.8607216,50.1468497 56.8815175,49.7061432 56.8815175,49.2551877 C56.8826144,48.1269916 56.7517767,47.0024306 56.4915947,45.9037685 C60.2506234,42.123021 61.6426316,36.6347521 60.1308745,31.5551846 C60.4168179,31.5551846 60.7079603,31.5551846 60.9991027,31.5551846 C67.7248396,31.5448676 73.7010493,27.3240612 75.8733591,21.0499714 C78.24409,21.1627103 81.5922274,21.2190798 86.0477457,21.2293287 L102.980795,21.2293287 C104.947628,21.2257418 106.741159,20.1198092 107.604815,18.3780511 C108.468472,16.636293 108.251874,14.5619838 107.04639,13.030138 L107.04639,13.0250135 Z M79.1071192,6.61939568 L79.8401741,6.56302624 L79.9961432,5.99420738 C80.2466199,5.07758718 80.7527328,4.24851647 81.4570541,3.60106857 L81.5870284,3.4883297 C82.8250668,2.43858946 84.4915712,2.02323868 86.087029,2.36677322 C87.6824869,2.71030777 89.0214649,3.77280006 89.7026224,5.23578223 L89.8845864,5.63549278 C89.6849355,5.76879919 89.4939341,5.91427687 89.3126995,6.07107479 L89.1619294,6.19918715 C88.3670176,6.92989975 87.7594153,7.83615038 87.3890802,8.84342618 C84.898773,9.19189178 82.9543578,10.9957138 80.8487745,13.1582503 C80.5056424,13.5118404 80.1573113,13.870555 79.8089803,14.2190206 C79.4606492,14.5674862 77.5474278,15.1414296 76.5492254,15.4181523 L75.1299062,15.8127383 C68.8183553,15.7717424 65.0491012,15.6128831 63.645379,15.3002889 C63.411034,15.281671 63.1854694,15.2040308 62.9903086,15.0748112 C63.0022474,14.9756782 63.0340575,14.879873 63.0838901,14.792964 L63.1982675,14.7212211 C64.3037878,14.2731547 65.4421529,13.9082718 66.6035936,13.6297038 L68.1632849,13.1941218 C70.0141186,12.6816724 71.4802285,12.2255924 72.1404978,11.5799061 C72.5044258,11.2211915 72.8631548,10.8573524 73.2374807,10.4678908 C75.2806764,8.3770972 77.0275307,6.76800601 79.1071192,6.61939568 Z M20.4783215,84.8243022 C20.4823987,85.8969674 20.8020532,86.9454383 21.3985394,87.8426293 C21.3422828,88.124496 21.3144196,88.4111521 21.3153559,88.6984198 C21.3160547,89.160803 21.3879252,89.6204052 21.5285137,90.0615353 C20.7041576,90.5498173 19.7608028,90.8084016 18.7990538,90.8097115 C15.7566203,90.7787283 13.3141628,88.3254031 13.3401341,85.3265026 C13.3317497,83.3380431 14.4131998,81.5000493 16.1683744,80.519727 L17.0158067,80.0533981 L16.6518788,79.1617361 C16.4069277,78.5641733 16.2815821,77.925542 16.2827518,77.2810467 C16.2241681,74.7913181 18.0909388,72.6637128 20.5988991,72.3618255 C23.1068594,72.0599382 25.4382241,73.6822071 25.9892309,76.112662 C24.343455,76.9182817 23.2086358,78.4742925 22.9582308,80.2686268 C21.3804608,81.2554545 20.4401448,82.9828463 20.4783215,84.8243022 L20.4783215,84.8243022 Z M29.8364696,90.8097115 C29.1787044,90.8078808 28.5389572,90.5976867 28.0116307,90.2101456 L27.2577799,89.6618248 L26.5923116,90.307511 C26.2735142,90.6269369 25.8406462,90.8108452 25.3861503,90.8199605 C24.8456247,90.7910307 24.3394267,90.5497202 23.9808243,90.150025 C23.6222218,89.7503298 23.4411507,89.2256163 23.4781279,88.6932953 C23.4780788,88.4409532 23.518434,88.1901844 23.5977042,87.9502437 L23.7536734,87.3404289 L23.4053423,86.9202203 C22.9216178,86.3262866 22.6608333,85.5859142 22.6670884,84.8243022 C22.6288777,83.610103 23.3195286,82.4875566 24.4295396,81.9597099 L24.0552137,81.0987949 L25.0950079,81.0987949 L25.0950079,80.9296866 C25.0324926,79.7868389 25.6256364,78.7060162 26.6302669,78.1321478 C27.6348974,77.5582795 28.881199,77.5883682 29.8561216,78.2100276 C30.8310442,78.831687 31.3697938,79.9398364 31.2505897,81.0782969 C31.2537929,81.5573806 31.1564395,82.0319402 30.9646463,82.4721593 L30.5955194,83.3330744 L31.4013599,83.8199013 C32.5085164,84.5436344 33.1635333,85.7749776 33.1378163,87.0842042 C33.1586122,89.1442508 31.6561095,90.8097115 29.8104747,90.8097115 L29.8364696,90.8097115 Z M38.8410876,84.8345512 L34.9158644,84.8345512 C34.5715915,83.9398111 34.0112631,83.1412604 33.2833875,82.5080308 C33.4022274,82.0440036 33.4616116,81.5671275 33.4601525,81.0885459 C33.4638926,79.5519361 32.8310523,78.0804201 31.7080992,77.014573 C32.4255572,73.2275717 32.6907048,68.3439287 32.5087408,62.3277725 C33.209924,62.0055629 33.8828831,61.6267685 34.5207426,61.1952593 C34.8378798,61.410488 35.1602161,61.6052188 35.4877512,61.7948251 C35.0094459,73.8373866 36.1116278,81.442136 38.8150928,84.8345512 L38.8410876,84.8345512 Z M61.2694492,56.5832145 C63.3528586,56.6638025 64.978975,58.3879808 64.908729,60.4419586 C64.9090551,60.9949525 64.7958734,61.5422955 64.5759948,62.0510498 L64.3940308,62.4815073 L64.7943516,62.7274831 C66.0643113,63.5475499 66.8196917,64.9515761 66.7959555,66.4478659 C66.7959555,68.8000087 65.0439022,70.7114451 62.8967271,70.7114451 C62.1211478,70.7078076 61.3670308,70.4600362 60.7443531,70.0042649 L60.3648282,69.7275422 L60.032094,70.0503853 C59.6107083,70.4684925 59.0390947,70.7060149 58.4412089,70.7114451 C57.0322818,70.6288686 55.9549698,69.4411201 56.0288862,68.0518326 C56.0285617,67.727916 56.0812273,67.4060668 56.1848554,67.0986766 L56.2316461,66.8322029 L56.0548811,66.6220987 C55.4932874,65.9282269 55.1904574,65.0653139 55.1970509,64.1777149 C55.1587198,62.750135 55.9723971,61.4328154 57.2766393,60.8109222 L57.1206702,60.4470831 L57.6093735,60.4470831 L57.6093735,60.2779748 C57.6197314,58.2753577 59.2385523,56.641196 61.2694492,56.5832145 L61.2694492,56.5832145 Z M56.6527628,51.704696 C58.2756131,52.5052322 59.4008604,54.0350637 59.668166,55.8042913 C57.9110097,56.5004774 56.7034968,58.1152023 56.5487834,59.9756297 C55.0137654,60.8365239 54.075534,62.4524538 54.1000679,64.1930884 C54.0946585,65.2312967 54.4181768,66.2452755 55.0254848,67.0935521 C54.9479927,67.412427 54.9095926,67.7393141 54.9111074,68.0672061 C54.909511,68.6158865 55.0246314,69.1588026 55.2490406,69.6609238 L55.1970509,69.6967952 C54.208908,70.366272 53.037575,70.7237188 51.8385155,70.7217026 C48.4888363,70.6850919 45.8019494,67.9816639 45.8337038,64.6799154 C45.8369811,64.1821027 45.9015745,63.6865241 46.0260658,63.204061 C51.5532457,61.7593273 55.7103731,57.2588104 56.6527628,51.6995715 L56.6527628,51.704696 Z M54.5003887,44.7456328 L53.9804916,45.2017128 L54.1676546,45.8422746 C54.481569,46.9482716 54.6407424,48.0913507 54.6407609,49.2398142 C54.6407609,55.9836486 49.1974382,61.466879 42.5115613,61.466879 C39.8593611,61.4718679 37.2820076,60.6003987 35.1914099,58.9917268 L34.5155436,58.4792773 L33.8448763,58.9917268 C31.7542786,60.6003987 29.1769251,61.4718679 26.524725,61.466879 C19.8336491,61.466879 14.3955253,55.9836486 14.3955253,49.2398142 C14.4073234,47.8199432 14.6658116,46.412558 15.159774,45.0787249 L15.3833298,44.4689101 L14.9362183,43.9872076 C12.8365399,41.7064819 11.6775826,38.7345316 11.6868613,35.65478 C11.6074739,29.4761362 16.2662345,24.2322145 22.4903234,23.4943552 L23.1817865,23.4226123 L23.4105413,22.7615525 C25.0759947,17.959189 29.6551385,14.7320952 34.8040865,14.7320952 C39.9530346,14.7320952 44.5321784,17.959189 46.1976318,22.7615525 L46.4471824,23.4328613 L47.1646404,23.4789817 C53.5333801,23.8838168 58.5191934,29.2440377 58.5191934,35.6804025 C58.5158265,39.1213168 57.0598175,42.4056407 54.5003887,44.7456328 L54.5003887,44.7456328 Z M60.9991027,29.9358444 C60.5023478,29.9343605 60.0060199,29.9069917 59.5121969,29.8538525 C57.494517,25.200085 53.1141437,21.9584503 48.0172717,21.3471921 C47.970481,21.2293287 47.9132923,21.1217144 47.8613026,21.0089755 C45.1790207,14.3542857 48.0911627,6.78185084 54.5748147,3.55184835 C61.0584667,0.321845858 68.9711629,2.50160162 72.8163641,8.57695248 C72.5616145,8.82805269 72.296467,9.0894019 72.0469163,9.3558756 C71.7037843,9.7094657 71.3554532,10.0630558 71.0071221,10.4166459 C70.6587911,10.770236 68.7455697,11.3390549 67.7525662,11.6157776 L66.1928748,12.0513596 C64.2068679,12.563809 63.0111045,12.9481461 62.3976259,13.3068607 C61.7841473,13.6655753 61.5086018,13.9935429 61.3578317,15.0081927 L61.3578317,15.1670521 L61.3942245,15.3207869 C61.4518276,15.5715858 61.559647,15.8085263 61.7113617,16.0177181 C62.1358743,16.5108067 62.7301848,16.8319912 63.3802314,16.9196291 C64.5292041,17.1553558 66.9571236,17.3090907 70.8615509,17.3859581 C70.4761866,17.7675213 70.2435655,18.2734123 70.2064806,18.8105675 L70.2064806,18.9694268 L70.2428734,19.1231616 C70.2987645,19.3736183 70.4048161,19.6105581 70.5548116,19.8200928 C70.9562753,20.2891561 71.5118493,20.6046696 72.1249009,20.7117548 C72.7966196,20.8355366 73.4755503,20.9176896 74.1576986,20.9577305 C72.0913652,26.3555899 66.8522782,29.9302205 60.9991027,29.9358444 Z M105.455505,18.6107122 C104.804311,19.266927 103.912073,19.6364464 102.980795,19.6356124 L86.0529446,19.6356124 C78.4572478,19.6356124 74.0121274,19.4562537 72.462834,19.1231616 C72.2241721,19.0885877 71.9966117,19.0009703 71.7973657,18.8669369 C71.8119456,18.7676836 71.8454629,18.6720496 71.8961462,18.5850897 L72.0105236,18.5082223 C73.1169051,18.062469 74.2550927,17.697643 75.4158497,17.416705 L76.975541,16.981123 C78.8263747,16.4686736 80.2924846,16.0177181 80.9527539,15.3720318 L82.0497368,14.2600166 C84.0825346,12.1743474 85.803394,10.5652562 87.9141763,10.4217704 L88.6472312,10.365401 L88.8032004,9.79145761 C89.0556024,8.867922 89.5695363,8.0343006 90.2849071,7.38806981 L90.4148814,7.27533094 C92.2272909,5.73310462 94.8739309,5.61039082 96.8252128,6.97811027 C97.5671896,7.49973947 98.1541516,8.20745029 98.5252764,9.02790797 L98.7280363,9.46861447 L99.2167396,9.50961043 C100.159927,9.56809018 101.071648,9.86646649 101.863016,10.37565 C102.660891,10.8915186 103.293722,11.6201326 103.687855,12.4766926 L103.833426,12.7892867 L104.160961,12.9071501 C105.554433,13.4000613 106.484183,14.701927 106.484982,16.1612039 C106.491294,17.0811959 106.120026,17.9646491 105.455505,18.6107122 L105.455505,18.6107122 Z" id="Shape" fill="#000000" fill-rule="nonzero"></path>
        <path d="M75.6304559,58.7447049 C76.2758664,58.742655 76.9193868,58.675094 77.5510425,58.5430693 C77.7067658,66.7118958 76.549223,70.1603814 75.3190094,71.5408097 C74.8449593,72.120114 74.1331741,72.4546348 73.3828504,72.4507549 L72.0643937,72.4507549 L72.0643937,74.0948605 L86.9100094,74.0948605 L86.9100094,72.4507549 L85.8718544,72.4507549 C85.3194131,72.4517573 84.7970633,72.2001964 84.4547729,71.768296 C83.2920394,70.47059 82.217549,66.9652328 82.4926601,58.2225204 C83.4697476,58.5656949 84.4983993,58.7405351 85.5344541,58.7395347 C90.6940841,58.7395347 94.8778485,54.4328053 94.8778485,49.1437487 C94.8773639,48.5368111 94.8217692,47.9311608 94.7117437,47.3341985 C96.5855923,45.4985039 97.637268,42.9878691 97.6289591,40.3700154 C97.6947062,35.5341888 94.0959475,31.4239841 89.2770026,30.831101 C87.9399079,27.165613 84.4349196,24.7320367 80.519473,24.7504857 C76.6040263,24.7691454 73.1224448,27.2358292 71.8204273,30.9138233 C67.2640724,31.7646605 63.9800883,35.7530164 64.0342652,40.3700154 C64.0206088,42.763979 64.8991729,45.0778541 66.4998832,46.8637155 C66.3233791,47.6109666 66.2345416,48.3760962 66.2351537,49.1437487 C66.2714891,54.4379755 70.4656351,58.7447049 75.6304559,58.7447049 Z M82.8975405,72.4507549 L76.7360909,72.4507549 C78.5891975,70.1655515 79.4145307,65.3986794 79.222472,58.0157147 C79.7045835,57.8147866 80.1682986,57.5726066 80.6084089,57.2918946 L80.8887107,57.4573392 C80.5668827,65.1763632 81.2416834,70.1241904 82.8923497,72.4507549 L82.8975405,72.4507549 Z M65.7264577,40.3958662 C65.6463273,36.4091405 68.5841268,32.9979265 72.5523265,32.4700364 L73.071404,32.4079947 L73.232318,31.8909804 C74.1677847,28.6384514 77.1492438,26.3934929 80.5460877,26.3838775 C83.9429316,26.3743238 86.9371128,28.6024215 87.8910658,31.8496192 L88.0623613,32.3666336 L88.6385373,32.3976544 C92.8435361,32.6575913 96.0911806,36.1799612 95.9938651,40.3751856 C96.0021681,42.6886736 95.0113743,44.8940326 93.2738992,46.4294234 L92.9053541,46.7603126 L93.0195512,47.2411359 C93.1672133,47.8646718 93.2421102,48.5031024 93.2427545,49.1437487 C93.2427545,53.5280303 89.7856985,57.0954325 85.5344541,57.0954325 C83.9266091,57.0969398 82.3611299,56.5820224 81.0703878,55.6271084 L80.582455,55.2651984 L80.0945222,55.6271084 C78.8034354,56.5813609 77.2381823,57.096204 75.6304559,57.0954325 C71.3792114,57.0954325 67.9221555,53.5280303 67.9221555,49.1437487 C67.9217184,48.3724776 68.0300528,47.6049685 68.2439835,46.8637155 L68.3789436,46.3984026 L68.0363525,46.0571731 C66.5403284,44.5428315 65.707852,42.4996583 65.7211073,40.3751856 L65.7264577,40.3958662 Z" id="Shape" fill="#000000" fill-rule="nonzero"></path>
        <path d="M42.2214256,95.3738502 C45.1901014,93.3746943 48.7484457,93.0823649 53.0947091,94.473287 C56.1739843,95.5183763 59.4188497,96.082402 62.6971554,96.1423936 C66.5147505,96.1423936 69.7477605,95.1993955 72.1521846,93.2615345 C72.490483,92.9907167 72.5280352,92.5168032 72.2360598,92.2030191 C71.9440844,91.8892351 71.4331464,91.854404 71.094848,92.1252218 C68.9140912,93.8650533 63.7341586,96.2979883 53.6233774,93.0682199 C48.8094459,91.526418 44.6563498,91.8941873 41.2708393,94.1668126 C40.9086775,94.4102883 40.8278834,94.8799798 41.0903805,95.215898 C41.3528776,95.5518162 41.8592638,95.6267557 42.2214256,95.3832802 L42.2214256,95.3738502 Z" id="Path" fill="#000000" fill-rule="nonzero"></path>
        <path d="M97.3731533,81.5639893 C93.5342827,84.0421575 86.6491828,84.5377912 78.4792786,82.8972438 C73.2986165,81.8564132 68.9313184,82.2826581 65.5276234,84.1561533 C65.1857913,84.3260099 65.0126419,84.6998238 65.1107312,85.0561859 C65.2088206,85.412548 65.5519546,85.6562942 65.9368957,85.6430542 C66.0804075,85.6426226 66.2213752,85.6067727 66.346168,85.5389711 C69.41312,83.8637294 73.3866878,83.4969605 78.1580776,84.4535335 C83.2144038,85.4695824 92.5603182,86.6095398 98.3160338,82.8873312 C98.560349,82.7297363 98.6982243,82.4594159 98.6777236,82.1781971 C98.6572228,81.8969782 98.4814605,81.6475847 98.2166446,81.5239607 C97.9518288,81.4003366 97.6381911,81.4212635 97.393876,81.5788583 L97.3731533,81.5639893 Z" id="Path" fill="#000000" fill-rule="nonzero"></path>
        <path d="M26.4223399,107.824404 C24.9143308,108.937514 22.285107,109.03602 19.2152312,108.090368 C17.1490628,107.450083 15.3668701,107.597841 13.9176146,108.489315 C13.7455834,108.579869 13.6381858,108.759444 13.6392432,108.954756 C13.6403162,109.150068 13.7496661,109.328447 13.9226746,109.417097 C14.0956831,109.505746 14.3034116,109.489838 14.4610854,109.375863 C15.6606382,108.627222 17.1147899,108.533642 18.9116709,109.085272 C20.2602242,109.524289 21.6659766,109.759976 23.0831768,109.784661 C24.4858306,109.845927 25.8709453,109.452264 27.0343567,108.661699 C27.2039606,108.56005 27.3015452,108.370403 27.2861246,108.172411 C27.2707039,107.974418 27.1449488,107.802374 26.961677,107.728536 C26.7784052,107.654698 26.5693595,107.691856 26.4223399,107.824404 L26.4223399,107.824404 Z" id="Path" fill="#000000" fill-rule="nonzero"></path>
        <path d="M94.6814307,93.1668713 C93.1987805,94.7254477 90.5794318,95.0345868 87.4312712,94.0105635 C85.3160236,93.3214409 83.5220168,93.6176992 82.1134991,94.8928981 C81.9214111,95.0609671 81.836676,95.3733437 81.9050384,95.6613904 C81.9734008,95.9494371 82.1786693,96.1449315 82.4100292,96.1423354 C82.5164027,96.1441993 82.6203985,96.1012839 82.7065592,96.0199678 C83.8778529,94.9637425 85.3407344,94.7318881 87.1545098,95.3372856 C90.673333,96.4836765 93.5793274,96.0843718 95.3189703,94.2230966 C95.4736522,94.0730767 95.5525907,93.8244523 95.5244665,93.5758665 C95.4963423,93.3272808 95.3657024,93.1189226 95.1843786,93.0334593 C95.0030549,92.9479959 94.8003622,92.9992443 94.6567199,93.1668713 L94.6814307,93.1668713 Z" id="Path" fill="#000000" fill-rule="nonzero"></path>
        <path d="M83.8735767,100.56664 C73.3224301,104.924045 55.6128542,105.327094 34.0047191,101.699655 C21.1134151,99.5411049 10.1994929,99.9575886 1.56441412,102.940149 C1.29059606,103.033746 1.09454901,103.248268 1.050122,103.502906 C1.00569498,103.757544 1.11963753,104.013613 1.34902859,104.174654 C1.57841964,104.335695 1.88840923,104.377242 2.16222727,104.283645 C10.5060638,101.399608 21.1134151,101.009994 33.6981483,103.119282 C44.4281279,104.91061 53.2675873,105.595793 60.4464546,105.591336 C73.0311878,105.591336 80.5575021,103.526809 84.5633611,101.874309 C84.9697157,101.707361 85.1447176,101.283301 84.9542389,100.927145 C84.7637602,100.570989 84.2799313,100.417605 83.8735767,100.584553 L83.8735767,100.56664 Z" id="Path" fill="#000000" fill-rule="nonzero"></path>
    </g>
</svg>