<?xml version="1.0" encoding="UTF-8"?>
<svg width="143.636364px" height="110px" viewBox="0 0 143.636364 110" version="1.1" xmlns="http://www.w3.org/2000/svg" xmlns:xlink="http://www.w3.org/1999/xlink">
    <title>kuvitukset_image6</title>
    <g id="kuvitukset_image6" stroke="none" stroke-width="1" fill="none" fill-rule="evenodd">
        <path d="M104.513951,19.846009 L102.928712,19.7634107 C99.7745205,19.5541615 98.8787518,19.273327 98.7701738,18.4583565 C98.6941692,17.9077007 99.0633345,17.505722 100.002534,17.1257695 C97.0220676,17.0872236 94.7202134,17.0101318 93.0535407,16.9000006 C89.899349,16.6907514 89.0035803,16.409917 88.8950023,15.5949464 C88.7592798,14.554207 90.0567872,14.1907742 93.531284,13.2161135 C95.7408469,12.599379 98.7647449,11.7568757 99.5030755,11.0134904 C99.9211009,10.594992 100.328268,10.1654805 100.735436,9.73596898 C101.397762,9.0421427 102.04923,8.35382298 102.711556,7.73158196 C99.2489211,2.48948924 92.811064,0.164777033 86.8615272,2.00813153 C80.9119904,3.85148602 76.853694,9.42823822 76.869937,15.7381169 C76.8688688,16.7000679 76.9652866,17.6595852 77.1577176,18.601527 L82.1631647,18.601527 C82.9414863,18.604546 83.5717026,19.243777 83.574679,20.033232 L83.574679,27.9131162 C87.3084341,30.2529677 91.9028066,30.698035 96.0057176,29.1173391 C100.108628,27.5366432 103.253176,24.1100635 104.513951,19.846009 L104.513951,19.846009 Z" id="Path"></path>
        <path d="M76.246359,15.9534443 C76.2633983,9.73564701 80.3688482,4.2549644 86.3704575,2.43800207 C92.3720668,0.621039747 98.8681071,2.89216516 102.389786,8.03863008 C102.747388,7.71157164 103.110491,7.40086612 103.490099,7.11741547 C99.2880475,1.05239233 91.374703,-1.2704688 84.5164103,1.54793166 C77.6581176,4.36633213 73.7270805,11.5566162 75.0910307,18.7879508 L76.5434434,18.7879508 C76.3465886,17.855707 76.2470366,16.9058731 76.246359,15.9534443 L76.246359,15.9534443 Z" id="Path" fill="#000000" fill-rule="nonzero"></path>
        <path d="M91.4941276,30.7184009 C88.8589611,30.7222421 86.2754659,30.0057192 84.0369037,28.6501673 L84.0369037,30.249317 C88.228531,32.4706066 93.2315076,32.7023796 97.6202641,30.8785938 C102.009021,29.0548079 105.302283,25.3754605 106.561656,20.8889606 L105.101921,20.8356556 C103.301123,26.6977025 97.7703687,30.7144479 91.4941276,30.7184009 Z" id="Path" fill="#000000" fill-rule="nonzero"></path>
        <path d="M100.989199,9.68089523 C100.582614,10.0912003 100.176029,10.5015053 99.7586024,10.9012897 C99.0375921,11.6009124 96.0180225,12.4057415 93.7953591,13.0054181 C90.3258357,13.9364949 89.0301855,14.2836761 89.1657138,15.2778768 C89.2741364,16.0564043 90.1686229,16.329941 93.3182996,16.5245729 C94.9825866,16.6297793 97.2811459,16.7034238 100.257346,16.740246 C101.005462,16.4509284 102.116794,16.1563504 103.656395,15.7407851 L104.870728,15.4146452 C97.2052501,15.3883435 93.4375645,15.214753 91.6811183,15.0201211 C92.4292342,14.7886669 93.3833532,14.5361715 94.1694171,14.3257587 C97.4220953,13.4525454 99.823656,12.7476624 100.739827,11.8797094 C101.162675,11.4694044 101.574681,11.053839 101.986687,10.643534 C104.155139,8.46576107 106.003745,6.59308679 108.448674,6.59308679 C108.589624,6.59308679 108.730573,6.59308679 108.866101,6.59308679 L109.538322,6.65621064 L109.630481,6.00393083 C109.958776,3.72755374 111.855722,1.96819867 114.21412,1.75275718 C116.572518,1.53731568 118.774525,2.92222807 119.534886,5.09915562 L119.610782,5.30430814 C119.988981,4.89375996 120.420917,4.53299581 120.89559,4.23120265 L120.70585,4.23120265 C119.61434,1.70407428 116.967278,0.148840494 114.153617,0.381555112 C111.339956,0.614269731 109.002343,2.58178012 108.367357,5.25170492 C106.770561,5.31837997 105.243177,5.90380011 104.030453,6.91396637 C103.661816,7.18750306 103.304022,7.48734136 102.946227,7.80296062 C102.301113,8.36055465 101.650577,9.01809478 100.989199,9.68089523 Z" id="Path" fill="#000000" fill-rule="nonzero"></path>
        <path d="M119.703946,4.62922861 C119.035355,5.38218556 118.562126,6.28275137 118.324611,7.25413076 C115.36813,7.2961292 113.26705,9.44329916 111.043006,11.7112146 C110.647382,12.1154496 110.246413,12.5249343 109.834751,12.9291692 C109.252009,13.5013979 107.118851,14.1523736 105.167466,14.6931035 L103.969904,15.0185913 C102.451566,15.4333259 101.355583,15.7273149 100.617799,16.0160541 C99.6928965,16.3782906 99.3293508,16.7352773 99.4041985,17.2865068 C99.5111237,18.0634778 100.393256,18.3364677 103.499433,18.5307104 L105.065887,18.6094575 L106.493339,18.6619555 C108.87777,18.7407026 111.967909,18.7774512 115.833254,18.7879508 L134.759013,18.7879508 C136.999839,18.7801532 138.906144,17.181947 139.265291,15.009981 C139.624439,12.8380151 138.33104,10.7296378 136.20785,10.0260274 C135.206967,7.78337932 132.979815,6.307685 130.487352,6.23566873 C129.616233,4.2291338 127.75006,2.80787386 125.554177,2.47860775 C123.358295,2.14934165 121.145209,2.95892888 119.703946,4.618729 L119.703946,4.62922861 Z M129.525025,7.64261628 L130.059651,7.61636726 L130.310925,7.61636726 C132.418945,7.61365267 134.307117,8.89646029 135.047711,10.8344973 L135.176022,11.1757346 L135.534221,11.2597314 C137.04671,11.6885103 138.018805,13.1316873 137.828777,14.6662407 C137.638749,16.2007941 136.342765,17.3731517 134.769706,17.4335013 L115.849293,17.4335013 C107.642785,17.4335013 103.686552,17.2445084 101.884863,17.039766 C102.622647,16.8087746 103.558242,16.556784 104.338796,16.3467918 C107.546552,15.4700745 109.914945,14.7718505 110.813116,13.9056328 C111.235471,13.4961481 111.641787,13.0814135 112.048102,12.666679 C114.186606,10.4985098 116.004335,8.62432969 118.420844,8.62432969 C118.556156,8.61621007 118.691847,8.61621007 118.82716,8.62432969 L119.495442,8.68732734 L119.586329,8.03635161 C119.90839,5.76388931 121.778357,4.00649781 124.104469,3.79021038 C126.430581,3.57392295 128.603232,4.95542227 129.353945,7.12813546 L129.525025,7.64261628 Z" id="Shape" fill="#000000" fill-rule="nonzero"></path>
        <polygon id="Path" fill="#000000" fill-rule="nonzero" points="127.523967 80.2190939 128.062556 79.1952415 122.943294 79.1952415 122.943294 80.2190939"></polygon>
        <path d="M123.983031,70.9240202 L126.752131,65.9446214 C126.772889,65.9064089 126.809158,65.8776854 126.852729,65.864951 L126.905676,65.864951 C126.931656,65.8581581 126.959115,65.8581581 126.985096,65.864951 C127.015709,65.8796461 127.041373,65.9020585 127.059221,65.9296832 L131.580849,74.0759796 L132.157966,73.0203471 L127.975195,65.4815373 C127.858692,65.2673816 127.673444,65.0931634 127.44573,64.9835974 C126.852039,64.7014209 126.127503,64.9240993 125.825568,65.4815373 L123.967147,68.8276933 L123.983031,70.9240202 Z" id="Path" fill="#000000" fill-rule="nonzero"></path>
        <path d="M136.253375,85.3383559 L138.345355,88.409913 C138.643857,88.2508797 138.974989,88.1315186 139.324932,88.0568116 L137.47093,85.3383559 L136.253375,85.3383559 Z" id="Path" fill="#000000" fill-rule="nonzero"></path>
        <path d="M127.878371,85.342408 L126.014851,88.0046944 C126.343214,88.103049 126.648583,88.2398291 126.919525,88.409913 L129.086409,85.3383559 L127.878371,85.342408 Z" id="Path" fill="#000000" fill-rule="nonzero"></path>
        <path d="M131.52804,74.9387039 L129.059945,79.8467029 L128.540345,80.8813622 L127.168604,83.6033119 C127.08722,83.7681184 127.042844,83.9493804 127.038704,84.1339064 C127.041565,84.7999628 127.57113,85.3383559 128.22339,85.3383559 L138.158126,85.3383559 C138.338828,85.3341283 138.516334,85.2888128 138.677725,85.2057072 C139.25941,84.9031274 139.491775,84.1770458 139.197324,83.5820881 L134.22476,73.7130307 C134.109857,73.4852561 133.928215,73.2997711 133.705161,73.1824362 C133.122532,72.8817546 132.411497,73.1190362 132.115188,73.7130307 L132.07362,73.7926198 L131.52804,74.9387039 Z M133.133602,74.1215884 L133.185562,74.1215884 C133.211092,74.1146086 133.237971,74.1146086 133.263502,74.1215884 C133.29483,74.1378742 133.320297,74.1638805 133.336246,74.1958717 L138.303613,84.0649291 C138.345594,84.1499998 138.313272,84.2537341 138.230869,84.2983907 C138.205162,84.3038247 138.178637,84.3038247 138.15293,84.2983907 L128.218194,84.2983907 C128.173203,84.2998271 128.129564,84.2825747 128.097249,84.2505758 C128.064934,84.218577 128.046704,84.1745662 128.046726,84.1286004 C128.039069,84.1026468 128.039069,84.0749649 128.046726,84.0490113 L133.014094,74.1799538 C133.045009,74.1454061 133.08786,74.1244781 133.133602,74.1215884 L133.133602,74.1215884 Z" id="Shape" fill="#000000" fill-rule="nonzero"></path>
        <path d="M4.28906644,79.1952415 L7.2479748,73.0521272 L5.77603054,73.0521272 L3.15256526,78.5126733 C3.57388285,78.6434467 3.96248217,78.8768345 4.28906644,79.1952415 L4.28906644,79.1952415 Z" id="Path" fill="#000000" fill-rule="nonzero"></path>
        <path d="M7.76709214,73.0521272 L13.7032245,73.0521272 L14.4149415,71.7233338 L4.49216248,71.7233338 L10.3509343,60.7658986 L8.83466764,60.7658986 L3.30596748,71.099823 C3.08817138,71.5123026 3.10313853,72.0074633 3.34545773,72.4062854 C3.58777693,72.8051075 4.02238806,73.0498872 4.49216248,73.0521272 L7.76709214,73.0521272 L7.76709214,73.0521272 Z" id="Path" fill="#000000" fill-rule="nonzero"></path>
        <path d="M10.2370605,60.7658986 L17.2424369,60.7658986 L17.9558481,59.348281 L6.57881653,59.348281 L15.1612072,42.7364304 L15.1612072,42.7364304 L20.804129,53.6340234 L21.5819082,52.0850435 L16.4056538,42.0686723 L16.4056538,42.0686723 C16.2730797,41.8182718 16.0717366,41.612821 15.8263425,41.4775422 C15.146363,41.1113087 14.3041755,41.37573 13.9435805,42.0686723 L5.36118985,58.680523 C5.25777306,58.8874569 5.20269595,59.1160067 5.20027003,59.348281 C5.20322444,60.1320941 5.82676086,60.7658986 6.59490851,60.7658986 L10.2370605,60.7658986 L10.2370605,60.7658986 Z" id="Path" fill="#000000" fill-rule="nonzero"></path>
        <path d="M17.0226371,78.2658593 L18.510351,75.099832 L17.1508093,75.099832 L15.4387939,78.7458699 C15.5839216,78.8813496 15.7172628,79.0318074 15.8370435,79.1952415 C16.1491328,78.7709473 16.5590351,78.4496265 17.0226371,78.2658593 Z" id="Path" fill="#000000" fill-rule="nonzero"></path>
        <path d="M15.783853,73.7339172 L19.9970208,65.8851605 L18.4310646,65.8851605 L15.3204578,71.6640309 L14.5747644,73.0509598 L14.5747644,73.0929879 C14.4683516,73.2902233 14.4134341,73.5104995 14.4149415,73.7339172 C14.4149415,74.4862442 15.0317501,75.0969384 15.7945058,75.099832 L23.629613,75.099832 L23.629613,73.7339172 L15.783853,73.7339172 Z" id="Path" fill="#000000" fill-rule="nonzero"></path>
        <path d="M21.7144682,53.1747077 L19.0017698,58.8382641 L18.3261352,60.2433035 L16.6091088,63.8291376 C16.3984028,64.2662443 16.4160265,64.7889754 16.6556226,65.2087687 C16.8952188,65.6285621 17.3222137,65.8848415 17.7825795,65.8851605 L23.629613,65.8851605 L23.629613,64.4746963 L17.7825795,64.4746963 L23.629613,52.2687556 L23.629613,50.5273748 C23.5469745,50.5376108 23.4653661,50.5557669 23.3857749,50.5816234 C23.0518178,50.6965933 22.7741538,50.9482418 22.613621,51.2814307 L22.4409024,51.6394716 L21.7144682,53.1747077 Z" id="Path" fill="#000000" fill-rule="nonzero"></path>
        <path d="M4.56036407,99.2183044 L1.3608343,99.2183044 L1.3608343,81.4956258 C1.3608343,80.4753922 2.07707344,79.6483293 2.96059919,79.6483293 C3.84412494,79.6483293 4.56036407,80.4753922 4.56036407,81.4956258 C4.55833258,80.7357554 4.78447172,79.9985663 5.20027003,79.4096018 C5.10123107,79.2744177 4.99433265,79.1471808 4.88031705,79.0287745 C4.56019305,78.6932464 4.17805977,78.4463737 3.76294281,78.3069079 C2.89355287,78.0106647 1.9540627,78.2061462 1.22890098,78.8341707 C0.503739249,79.4621952 0.0781659099,80.4489235 0.0810081008,81.4956258 L0.0810081008,100.696142 L4.56036407,100.696142 L4.56036407,99.2183044 Z" id="Path" fill="#000000" fill-rule="nonzero"></path>
        <path d="M18.510351,78.1713892 C18.2031329,78.1722156 17.8984433,78.2362005 17.610261,78.3604081 C17.1610049,78.5526965 16.7645361,78.882828 16.4626463,79.3160036 C16.8428058,79.8600534 17.0495621,80.541024 17.0477048,81.2429463 C17.0477048,80.3005162 17.7025538,79.5365257 18.510351,79.5365257 C19.3181483,79.5365257 19.9729973,80.3005162 19.9729973,81.2429463 C19.9733493,80.5414654 20.1798512,79.861333 20.5580558,79.3160036 C20.0588341,78.5930316 19.3061134,78.1722801 18.510351,78.1713892 L18.510351,78.1713892 Z" id="Path" fill="#000000" fill-rule="nonzero"></path>
        <rect id="Rectangle" fill="#000000" fill-rule="nonzero" x="16.4626463" y="98.6484369" width="3.07155716" height="2.04770477"></rect>
        <path d="M8.64530345,99.2183154 L5.45747508,99.2183154 L5.45747508,81.4957684 C5.42457722,80.8123806 5.72191555,80.1640205 6.23015762,79.810898 C6.73839969,79.4577756 7.37423303,79.4577756 7.8824751,79.810898 C8.39071717,80.1640205 8.6880555,80.8123806 8.65515764,81.4957684 C8.65554305,80.7363814 8.88162125,80.0001052 9.29567957,79.4097598 C8.75045742,78.626833 7.92687179,78.1713892 7.05631636,78.1713892 C6.18576093,78.1713892 5.3621753,78.626833 4.81695315,79.4097598 C4.40075459,79.99872 4.17439778,80.7359036 4.17641764,81.4957684 L4.17641764,100.696142 L8.64530345,100.696142 L8.64530345,99.2183154 Z" id="Path" fill="#000000" fill-rule="nonzero"></path>
        <path d="M23.0445545,99.2183633 L20.7043204,99.2183633 L20.7043204,81.4963905 C20.7008184,80.7948224 21.0142228,80.1520777 21.5118567,79.8402559 C22.0094907,79.5284342 22.6043297,79.6020658 23.0445545,80.0299796 L23.0445545,78.3646371 C22.7624094,78.2398113 22.4659126,78.1745216 22.1669667,78.1713892 C20.7139591,78.174518 19.5366808,79.6613405 19.5342034,81.4963905 L19.5342034,100.696142 L23.629613,100.696142 L23.629613,100.491526 C23.2685219,100.22959 23.0455013,99.744268 23.0445545,99.2183633 L23.0445545,99.2183633 Z" id="Path" fill="#000000" fill-rule="nonzero"></path>
        <path d="M53.3213321,100.368509 L54.3451845,100.368509 L54.3451845,99.999922 C54.0350832,100.238646 53.681721,100.365857 53.3213321,100.368509 L53.3213321,100.368509 Z" id="Path" fill="#000000" fill-rule="nonzero"></path>
        <path d="M14.4149272,99.21876 L14.4149272,81.5015446 C14.4170778,80.7419084 14.1760696,80.0049465 13.7329317,79.4161636 C13.5956605,79.2343027 13.4428486,79.0668813 13.276529,78.9161267 C12.3569787,78.1064846 11.089237,77.9426393 10.0196271,78.4951985 C8.95001721,79.0477577 8.26969397,80.2179711 8.27183221,81.5015446 L8.27183221,100.696142 L14.4149272,100.696142 L14.4149272,99.21876 Z M9.64629138,81.5015446 C9.64629138,80.4816254 10.4096247,79.6548175 11.351244,79.6548175 C12.2928634,79.6548175 13.0561967,80.4816254 13.0561967,81.5015446 L13.0561967,99.21876 L9.64629138,99.21876 L9.64629138,81.5015446 Z" id="Shape" fill="#000000" fill-rule="nonzero"></path>
        <path d="M23.629613,100.368509 L24.6534653,100.368509 C24.2933871,100.36298 23.9405862,100.235972 23.629613,99.999922 L23.629613,100.368509 Z" id="Path" fill="#000000" fill-rule="nonzero"></path>
        <path d="M54.3451845,100.368509 L55.3690369,100.368509 C55.008648,100.365857 54.6552858,100.238646 54.3451845,99.999922 L54.3451845,100.368509 Z" id="Path" fill="#000000" fill-rule="nonzero"></path>
        <path d="M131.131861,88.409913 C130.336356,88.410113 129.583941,88.8311566 129.086409,89.5545297 C129.463734,90.1003539 129.668893,90.7805545 129.667605,91.4814702 C129.667605,90.5390411 130.323175,89.7750515 131.131861,89.7750515 C131.940547,89.7750515 132.596116,90.5390411 132.596116,91.4814702 C132.596468,90.77999 132.803198,90.0998584 133.181818,89.5545297 C132.683299,88.8297189 131.928945,88.4085181 131.131861,88.409913 L131.131861,88.409913 Z" id="Path" fill="#000000" fill-rule="nonzero"></path>
        <rect id="Rectangle" fill="#000000" fill-rule="nonzero" x="129.086409" y="107.863108" width="3.07155716" height="2.04770477"></rect>
        <path d="M122.098616,109.44496 L122.76412,109.44496 L122.76412,109.352814 C122.546739,109.409885 122.323326,109.440819 122.098616,109.44496 L122.098616,109.44496 Z" id="Path" fill="#000000" fill-rule="nonzero"></path>
        <path d="M136.62685,107.47568 L133.439013,107.47568 L133.439013,90.551163 C133.406115,89.8985475 133.703454,89.2793825 134.211698,88.9421608 C134.719941,88.6049391 135.355776,88.6049391 135.86402,88.9421608 C136.372263,89.2793825 136.669602,89.8985475 136.636704,90.551163 C136.63709,89.8259705 136.863168,89.1228481 137.277228,88.5590855 C136.508903,87.5174557 135.22908,87.1205039 134.080316,87.5675265 C132.931553,88.0145492 132.161976,89.2089915 132.157966,90.551163 L132.157966,108.886961 L136.636704,108.886961 L136.62685,107.47568 Z" id="Path" fill="#000000" fill-rule="nonzero"></path>
        <path d="M128.062542,108.427351 L128.062542,90.7053782 C128.064038,89.9466268 127.824744,89.2102998 127.384641,88.6194372 C127.26506,88.4597857 127.131293,88.3132011 126.985261,88.1817874 C126.722432,87.9432208 126.426206,87.7513673 126.107676,87.6134111 C125.752073,87.4654464 125.374619,87.3884179 124.993616,87.3860606 C124.236538,87.3866008 123.506456,87.6903124 122.944167,88.2386251 L122.944167,108.433035 C122.942388,109.105324 122.521282,109.691589 121.919442,109.859659 L121.919442,109.910813 L128.062542,109.910813 L128.062542,108.427351 Z M123.285742,90.7053782 C123.285742,89.6851851 124.050383,88.8581552 124.993616,88.8581552 C125.936849,88.8581552 126.701491,89.6851851 126.701491,90.7053782 L126.701491,108.427351 L123.285742,108.427351 L123.285742,90.7053782 Z" id="Shape" fill="#000000" fill-rule="nonzero"></path>
        <path d="M140.348785,87.3860606 C140.071756,87.3869349 139.796151,87.4290092 139.529703,87.5111034 C139.197706,87.6109139 138.883554,87.7703833 138.60036,87.9828557 C138.360335,88.1637205 138.144743,88.3798845 137.959796,88.6251209 C137.518557,89.2154472 137.277638,89.9516995 137.277228,90.7110619 L137.277228,109.910813 L143.420342,109.910813 L143.420342,90.7110619 C143.420342,88.8747144 142.045159,87.3860606 140.348785,87.3860606 Z M138.642364,90.7110619 C138.642364,89.6908689 139.406355,88.863839 140.348785,88.863839 C141.291215,88.863839 142.055206,89.6908689 142.055206,90.7110619 L142.055206,108.433035 L138.642364,108.433035 L138.642364,90.7110619 Z" id="Shape" fill="#000000" fill-rule="nonzero"></path>
        <path d="M52.6383747,98.6484369 L44.1066607,98.6484369 L44.1066607,100.696142 L52.6383747,100.696142 C52.878771,100.694102 53.1144801,100.596247 53.3213321,100.412613 C52.900607,100.048472 52.6405574,99.3767267 52.6383747,98.6484369 L52.6383747,98.6484369 Z" id="Path" fill="#000000" fill-rule="nonzero"></path>
        <path d="M33.6384853,98.2712281 L25.0063105,98.2712281 L25.0063105,32.0926431 L39.0708022,20.189012 L52.6303329,20.189012 C52.6325412,19.6907084 52.895653,19.2310932 53.3213321,18.9819439 C53.1120444,18.8562994 52.8735598,18.7893466 52.6303329,18.7879508 L39.0708022,18.7879508 C38.7472064,18.7899756 38.4340103,18.9040532 38.183134,19.1112726 L24.1239577,31.0149038 C23.8089886,31.2815144 23.6277442,31.6766638 23.629613,32.0926431 L23.629613,98.2712281 C23.629613,98.7687203 23.8908808,99.2285897 24.3153113,99.4782962 C24.5251876,99.6025328 24.7632933,99.6693793 25.0063105,99.6722893 L33.6384853,99.6722893 L33.6384853,98.2712281 Z" id="Path" fill="#000000" fill-rule="nonzero"></path>
        <path d="M62.9843596,98.2712281 L54.7025235,98.2712281 L54.7025235,20.189012 L82.6557123,20.189012 L82.6557123,46.4642974 L84.0369037,46.4642974 L84.0369037,20.189012 C84.0339912,19.4164543 83.4173136,18.7909052 82.6557123,18.7879508 L54.7025235,18.7879508 C53.9433084,18.7966867 53.3299441,19.4188748 53.3213321,20.189012 L53.3213321,98.2712281 C53.3299441,99.0413653 53.9433084,99.6635534 54.7025235,99.6722893 L62.9843596,99.6722893 L62.9843596,98.2712281 Z" id="Path" fill="#000000" fill-rule="nonzero"></path>
        <path d="M33.8681488,32.5993844 C33.8639091,34.463801 34.9837326,36.1470004 36.7050074,36.8634298 C38.4262822,37.5798592 40.4096685,37.1882785 41.7295156,35.8714393 C43.0493627,34.5546 43.44547,32.5721098 42.7329735,30.8492011 C42.0204769,29.1262924 40.3398412,28.0026223 38.4754226,28.0026223 C35.9361933,28.0054995 33.8768354,30.0601643 33.8681488,32.5993844 L33.8681488,32.5993844 Z M38.4754226,35.8407583 C36.685264,35.8407583 35.2340538,34.3895458 35.2340538,32.5993844 C35.2340538,30.809223 36.685264,29.3580104 38.4754226,29.3580104 C40.2655813,29.3580104 41.7167915,30.809223 41.7167915,32.5993844 C41.7138991,34.3883463 40.2643818,35.8378659 38.4754226,35.8407583 L38.4754226,35.8407583 Z" id="Shape" fill="#000000" fill-rule="nonzero"></path>
        <path d="M57.4167417,72.0282749 L62.3553797,72.0282749 L62.3553797,70.6619706 L58.6668493,70.6619706 L58.6668493,61.1030955 L62.3743927,61.1030955 L62.3743927,60.3989233 C62.376646,60.1683001 62.4322838,59.9421572 62.5360036,59.7420462 L57.4167417,59.7420462 L57.4167417,72.0282749 Z" id="Path" fill="#000000" fill-rule="nonzero"></path>
        <path d="M56.3928893,42.3365557 L56.3928893,54.6227843 L66.3842582,54.6227843 L66.6314131,54.4179263 L66.6314131,42.3365557 L56.3928893,42.3365557 Z M65.2746904,53.2570641 L57.7759051,53.2570641 L57.7759051,43.7022758 L65.2957249,43.7022758 L65.2746904,53.2570641 Z" id="Shape" fill="#000000" fill-rule="nonzero"></path>
        <path d="M56.3928893,38.2411461 L66.6314131,38.2411461 L66.6314131,25.9549175 L56.3928893,25.9549175 L56.3928893,38.2411461 Z M57.7751951,27.3206377 L65.2911546,27.3206377 L65.2911546,36.875426 L57.7751951,36.875426 L57.7751951,27.3206377 Z" id="Shape" fill="#000000" fill-rule="nonzero"></path>
        <path d="M44.1066607,59.7420462 L33.8681368,59.7420462 L33.8681368,72.0282749 L44.1066607,72.0282749 L44.1066607,59.7420462 Z M42.7408237,70.6619706 L35.2339738,70.6619706 L35.2339738,61.1030955 L42.7408237,61.1030955 L42.7408237,70.6619706 Z" id="Shape" fill="#000000" fill-rule="nonzero"></path>
        <path d="M33.8681368,54.6227843 L44.1066607,54.6227843 L44.1066607,42.3365557 L33.8681368,42.3365557 L33.8681368,54.6227843 Z M35.2339738,43.7022758 L42.7408237,43.7022758 L42.7408237,53.2570641 L35.2339738,53.2570641 L35.2339738,43.7022758 Z" id="Shape" fill="#000000" fill-rule="nonzero"></path>
        <polygon id="Path" fill="#000000" fill-rule="nonzero" points="57.4167417 87.3860606 62.5360036 87.3860606 62.5360036 86.0197563 58.6977889 86.0197563 58.6977889 80.9013702 58.6977889 76.4661363 62.5360036 76.4661363 62.5360036 75.099832 57.4167417 75.099832"></polygon>
        <path d="M44.1066607,98.2468455 L44.1066607,75.099832 L33.8681368,75.099832 L33.8681368,99.6722893 L44.1066607,99.6722893 L44.1066607,98.2468455 Z M40.3558623,98.2468455 L35.2339738,98.2468455 L35.2339738,76.5252758 L42.7408237,76.5252758 L42.7408237,98.2468455 L40.3558623,98.2468455 Z" id="Shape" fill="#000000" fill-rule="nonzero"></path>
        <path d="M78.5536636,43.64854 L78.5536636,45.9899274 C78.6649224,45.9621219 78.7791606,45.9468812 78.8940748,45.9445126 L79.9414941,45.9445126 L79.9414941,42.3365557 L69.7029703,42.3365557 L69.7029703,52.5750795 L71.0646154,51.4851233 L71.0646154,43.64854 L78.5536636,43.64854 Z" id="Path" fill="#000000" fill-rule="nonzero"></path>
        <path d="M79.9414941,25.9549175 L69.7029703,25.9549175 L69.7029703,38.2411461 L79.9414941,38.2411461 L79.9414941,25.9549175 Z M78.5809104,36.875426 L71.0688072,36.875426 L71.0688072,27.3206377 L78.5809104,27.3206377 L78.5809104,36.875426 Z" id="Shape" fill="#000000" fill-rule="nonzero"></path>
        <path d="M92.2277228,109.58318 L94.2754275,109.58318 C93.916334,109.578722 93.5645134,109.451576 93.2555283,109.214593 C92.9433543,109.450643 92.5891913,109.577651 92.2277228,109.58318 L92.2277228,109.58318 Z" id="Path" fill="#000000" fill-rule="nonzero"></path>
        <path d="M82.4197413,46.4319652 L78.6170907,46.4319652 C78.5003927,46.4344478 78.3843812,46.450422 78.2713952,46.4795658 C78.1381039,46.5154547 78.0108656,46.5707019 77.8937894,46.6435232 C78.2283527,46.6333689 78.5552634,46.7442415 78.8138713,46.9555712 L79.8350026,47.807092 L106.698203,47.807092 L119.547439,58.4590353 L121.111046,58.4590353 C121.401292,58.4582217 121.684321,58.5489562 121.919442,58.7181938 C121.845678,58.6040664 121.756164,58.5008051 121.653522,58.4114348 L107.581056,46.7757469 C107.333907,46.5692304 107.021011,46.4567616 106.698203,46.45841 L82.4197413,46.45841 L82.4197413,46.4319652 Z" id="Path" fill="#000000" fill-rule="nonzero"></path>
        <path d="M92.5686178,107.863108 L84.0369037,107.863108 L84.0369037,109.910813 L92.5686178,109.910813 C92.8088068,109.90656 93.0441414,109.808861 93.2515752,109.627285 C92.8292672,109.265527 92.5686346,108.592276 92.5686178,107.863108 L92.5686178,107.863108 Z" id="Path" fill="#000000" fill-rule="nonzero"></path>
        <path d="M72.7962768,108.497057 L63.9660258,108.497057 L63.9660258,59.562695 L78.1031272,47.8355648 L92.2402287,59.562695 L92.2402287,59.9364465 C92.2432199,59.3155277 92.6540573,58.7698258 93.2515752,58.5931078 L93.1428282,58.4847741 L80.060572,47.6513974 L78.9948521,46.7522271 C78.4674136,46.3252113 77.7116542,46.3252113 77.1842156,46.7522271 L70.6593996,52.1689155 L69.2456894,53.3389201 L67.4785518,54.8068427 L67.2229965,55.0180935 L63.0471142,58.4901907 C62.9136779,58.6018294 62.8029366,58.7378914 62.7208734,58.8910257 C62.6022263,59.0972931 62.5385812,59.3303933 62.5360036,59.5681117 L62.5360036,108.502474 C62.5389846,109.279045 63.1701813,109.907843 63.9497137,109.910813 L72.7962768,109.910813 L72.7962768,108.497057 Z" id="Path" fill="#000000" fill-rule="nonzero"></path>
        <path d="M122.943294,107.511599 L122.943294,60.0882707 C122.940829,59.6480808 122.72768,59.2354458 122.369469,58.9774063 C122.134578,58.8081405 121.851826,58.7173908 121.561864,58.7181992 L93.6038399,58.7181992 C93.47239,58.7181992 93.3417114,58.7382202 93.2159768,58.7763928 C92.6321023,58.948972 92.2306457,59.4818937 92.2277228,60.0882707 L92.2277228,107.511599 C92.236275,108.265579 92.8465691,108.875535 93.6038399,108.886955 L121.561864,108.886955 C121.678475,108.884816 121.794414,108.868833 121.907222,108.839347 C122.515726,108.682925 122.941496,108.137294 122.943294,107.511599 L122.943294,107.511599 Z M93.6038399,60.0882707 L121.561864,60.0882707 L121.561864,107.511599 L93.6038399,107.511599 L93.6038399,60.0882707 Z" id="Shape" fill="#000000" fill-rule="nonzero"></path>
        <path d="M77.3819305,55.6466367 C75.5184644,55.6466367 73.8384872,56.7691616 73.1253695,58.4907798 C72.4122519,60.212398 72.8064303,62.1940663 74.1240998,63.5117358 C75.4417693,64.8294053 77.4234376,65.2235837 79.1450558,64.5104661 C80.866674,63.7973485 81.9891989,62.1173712 81.9891989,60.2539051 C81.9891989,57.709381 79.9264546,55.6466367 77.3819305,55.6466367 Z M77.3819305,57.0125315 C79.1720917,57.0125315 80.6233041,58.4637439 80.6233041,60.2539051 C80.6233041,62.0440663 79.1720917,63.4952786 77.3819305,63.4952786 C75.5917693,63.4952786 74.140557,62.0440663 74.140557,60.2539051 C74.1434494,58.4649434 75.5929688,57.015424 77.3819305,57.0125315 L77.3819305,57.0125315 Z" id="Shape" fill="#000000" fill-rule="nonzero"></path>
        <path d="M106.561656,68.9567177 L96.3231323,68.9567177 L96.3231323,81.2429463 L106.561656,81.2429463 L106.561656,68.9567177 Z M105.190566,79.8667206 L97.6889693,79.8667206 L97.6889693,70.3119323 L105.190566,70.3119323 L105.190566,79.8667206 Z" id="Shape" fill="#000000" fill-rule="nonzero"></path>
        <path d="M72.7745275,68.9567177 L72.7745275,81.2429463 L83.0130513,81.2429463 L83.0130513,68.9567177 L72.7745275,68.9567177 Z M81.6472144,79.8772262 L74.1403644,79.8772262 L74.1403644,70.3119323 L81.6472144,70.3119323 L81.6472144,79.8772262 Z" id="Shape" fill="#000000" fill-rule="nonzero"></path>
        <path d="M96.3231323,98.6484369 L106.561656,98.6484369 L106.561656,86.3622082 L96.3231323,86.3622082 L96.3231323,98.6484369 Z M105.190566,87.7232575 L105.190566,97.2821326 L97.6889693,97.2821326 L97.6889693,87.7232575 L105.190566,87.7232575 Z" id="Shape" fill="#000000" fill-rule="nonzero"></path>
        <path d="M83.0130513,108.485369 L83.0130513,85.3383559 L72.7745275,85.3383559 L72.7745275,109.910813 L83.0130513,109.910813 L83.0130513,108.485369 Z M78.5740812,108.485369 L74.1403644,108.485369 L74.1403644,86.7583171 L81.6472144,86.7583171 L81.6472144,108.485369 L78.5740812,108.485369 Z" id="Shape" fill="#000000" fill-rule="nonzero"></path>
        <path d="M118.847885,68.9567177 L108.609361,68.9567177 L108.609361,81.2429463 L118.847885,81.2429463 L118.847885,68.9567177 Z M109.975198,70.3224379 L117.482048,70.3224379 L117.482048,79.8772262 L109.975198,79.8772262 L109.975198,70.3224379 Z" id="Shape" fill="#000000" fill-rule="nonzero"></path>
        <path d="M108.609361,98.6484369 L118.847885,98.6484369 L118.847885,86.3622082 L108.609361,86.3622082 L108.609361,98.6484369 Z M117.482048,97.2821326 L109.975198,97.2821326 L109.975198,87.7232575 L117.482048,87.7232575 L117.482048,97.2821326 Z" id="Shape" fill="#000000" fill-rule="nonzero"></path>
    </g>
</svg>